<svg width="33" height="33" viewBox="0 0 33 33" fill="none" xmlns="http://www.w3.org/2000/svg">
<g id="material-symbols:groups">
<path id="Vector" d="M0 24.75V22.5844C0 21.599 0.504167 20.7969 1.5125 20.1781C2.52083 19.5594 3.85 19.25 5.5 19.25C5.79792 19.25 6.08437 19.256 6.35938 19.2679C6.63438 19.2798 6.89792 19.3082 7.15 19.3531C6.82917 19.8344 6.58854 20.3385 6.42813 20.8656C6.26771 21.3927 6.1875 21.9427 6.1875 22.5156V24.75H0ZM8.25 24.75V22.5156C8.25 21.7823 8.45075 21.1118 8.85225 20.504C9.25375 19.8963 9.82071 19.3637 10.5531 18.9063C11.2865 18.4479 12.1632 18.1042 13.1835 17.875C14.2038 17.6458 15.3092 17.5313 16.5 17.5313C17.7146 17.5313 18.832 17.6458 19.8522 17.875C20.8725 18.1042 21.7488 18.4479 22.4813 18.9063C23.2146 19.3646 23.776 19.8976 24.1656 20.5054C24.5552 21.1131 24.75 21.7832 24.75 22.5156V24.75H8.25ZM26.8125 24.75V22.5156C26.8125 21.9198 26.7378 21.3583 26.5884 20.8313C26.439 20.3042 26.2157 19.8115 25.9188 19.3531C26.1708 19.3073 26.4289 19.2789 26.6929 19.2679C26.9569 19.2569 27.2259 19.2509 27.5 19.25C29.15 19.25 30.4792 19.5539 31.4875 20.1616C32.4958 20.7694 33 21.577 33 22.5844V24.75H26.8125ZM5.5 17.875C4.74375 17.875 4.09612 17.6055 3.55712 17.0665C3.01812 16.5275 2.74908 15.8803 2.75 15.125C2.75 14.3458 3.0195 13.6927 3.5585 13.1656C4.0975 12.6385 4.74467 12.375 5.5 12.375C6.27917 12.375 6.93229 12.6385 7.45938 13.1656C7.98646 13.6927 8.25 14.3458 8.25 15.125C8.25 15.8813 7.98646 16.5289 7.45938 17.0679C6.93229 17.6069 6.27917 17.8759 5.5 17.875ZM27.5 17.875C26.7437 17.875 26.0961 17.6055 25.5571 17.0665C25.0181 16.5275 24.7491 15.8803 24.75 15.125C24.75 14.3458 25.0195 13.6927 25.5585 13.1656C26.0975 12.6385 26.7447 12.375 27.5 12.375C28.2792 12.375 28.9323 12.6385 29.4594 13.1656C29.9865 13.6927 30.25 14.3458 30.25 15.125C30.25 15.8813 29.9865 16.5289 29.4594 17.0679C28.9323 17.6069 28.2792 17.8759 27.5 17.875ZM16.5 16.5C15.3542 16.5 14.3802 16.099 13.5781 15.2969C12.776 14.4948 12.375 13.5208 12.375 12.375C12.375 11.2063 12.776 10.2263 13.5781 9.43525C14.3802 8.64417 15.3542 8.24908 16.5 8.25C17.6688 8.25 18.6487 8.64554 19.4397 9.43663C20.2308 10.2277 20.6259 11.2072 20.625 12.375C20.625 13.5208 20.2295 14.4948 19.4384 15.2969C18.6473 16.099 17.6678 16.5 16.5 16.5Z" fill="white"/>
</g>
</svg>
