<svg width="27" height="24" viewBox="0 0 27 24" fill="none" xmlns="http://www.w3.org/2000/svg">
<g id="19">
<g id="Group">
<path id="Vector" d="M20.3475 9.9901C20.3475 14.1401 15.8664 19.1301 14.0407 20.9901C13.6313 21.4001 12.9232 21.4001 12.5138 20.9901C10.6882 19.1301 6.20703 14.1401 6.20703 9.9901C6.20703 6.4601 9.37149 3.6001 13.2773 3.6001C17.1831 3.6001 20.3475 6.4601 20.3475 9.9901Z" stroke="#636363" stroke-width="1.2" stroke-miterlimit="10" stroke-linecap="round" stroke-linejoin="round"/>
<path id="Vector_2" d="M13.2661 12.5502C14.8305 12.5502 16.0986 11.404 16.0986 9.99018C16.0986 8.57633 14.8305 7.43018 13.2661 7.43018C11.7018 7.43018 10.4336 8.57633 10.4336 9.99018C10.4336 11.404 11.7018 12.5502 13.2661 12.5502Z" stroke="#636363" stroke-width="1.2" stroke-miterlimit="10" stroke-linecap="round" stroke-linejoin="round"/>
</g>
</g>
</svg>
