<svg width="32" height="32" viewBox="0 0 32 32" fill="none" xmlns="http://www.w3.org/2000/svg">
<g id="Frame">
<path id="Vector" d="M4.47 15.47L13.47 6.47C13.6122 6.33752 13.8002 6.2654 13.9945 6.26882C14.1888 6.27225 14.3742 6.35096 14.5116 6.48838C14.649 6.62579 14.7277 6.81118 14.7312 7.00548C14.7346 7.19978 14.6625 7.38782 14.53 7.53L6.81125 15.25L27 15.25C27.1989 15.25 27.3897 15.329 27.5303 15.4697C27.671 15.6103 27.75 15.8011 27.75 16C27.75 16.1989 27.671 16.3897 27.5303 16.5303C27.3897 16.671 27.1989 16.75 27 16.75L6.81125 16.75L14.53 24.47C14.6625 24.6122 14.7346 24.8002 14.7312 24.9945C14.7277 25.1888 14.649 25.3742 14.5116 25.5116C14.3742 25.649 14.1888 25.7277 13.9945 25.7312C13.8002 25.7346 13.6122 25.6625 13.47 25.53L4.47 16.53C4.32955 16.3894 4.25066 16.1987 4.25066 16C4.25066 15.8012 4.32955 15.6106 4.47 15.47Z" fill="black"/>
</g>
</svg>
