<svg width="202" height="77" viewBox="0 0 202 77" fill="none" xmlns="http://www.w3.org/2000/svg">
<g id="Group 8">
<g id="Group 6">
<g id="Group 3">
<g id="Group 2">
<g id="Polisys">
<path d="M15.8009 8.77222C21.0486 8.77222 25.1773 10.0263 28.187 12.5343C31.1967 15.0424 32.7016 18.4959 32.7016 22.8947C32.7016 27.2935 31.1967 30.7469 28.187 33.255C25.1773 35.7631 21.0486 37.0171 15.8009 37.0171H5.78789V49.2874H0V8.77222H15.8009ZM15.6273 31.9816C19.293 31.9816 22.0904 31.2099 24.0197 29.6665C25.949 28.0845 26.9137 25.8272 26.9137 22.8947C26.9137 19.9621 25.949 17.7242 24.0197 16.1807C22.0904 14.5987 19.293 13.8077 15.6273 13.8077H5.78789V31.9816H15.6273Z" fill="#FD3C3C"/>
<path d="M53.4199 49.6347C50.3717 49.6347 47.6321 48.9595 45.2011 47.6089C42.7702 46.2584 40.8602 44.4063 39.4711 42.0526C38.1206 39.6602 37.4454 36.9592 37.4454 33.9495C37.4454 30.9398 38.1206 28.2581 39.4711 25.9044C40.8602 23.512 42.7702 21.6599 45.2011 20.348C47.6321 18.9975 50.3717 18.3222 53.4199 18.3222C56.4682 18.3222 59.1885 18.9975 61.5809 20.348C64.0118 21.6599 65.9025 23.512 67.253 25.9044C68.6421 28.2581 69.3366 30.9398 69.3366 33.9495C69.3366 36.9592 68.6421 39.6602 67.253 42.0526C65.9025 44.4063 64.0118 46.2584 61.5809 47.6089C59.1885 48.9595 56.4682 49.6347 53.4199 49.6347ZM53.4199 44.7729C55.3878 44.7729 57.1435 44.3291 58.6869 43.4417C60.2689 42.5156 61.5037 41.2423 62.3912 39.6217C63.2786 37.9625 63.7224 36.0718 63.7224 33.9495C63.7224 31.8273 63.2786 29.9559 62.3912 28.3353C61.5037 26.6761 60.2689 25.4028 58.6869 24.5153C57.1435 23.6278 55.3878 23.1841 53.4199 23.1841C51.4521 23.1841 49.6771 23.6278 48.0951 24.5153C46.5516 25.4028 45.3169 26.6761 44.3908 28.3353C43.5034 29.9559 43.0596 31.8273 43.0596 33.9495C43.0596 36.0718 43.5034 37.9625 44.3908 39.6217C45.3169 41.2423 46.5516 42.5156 48.0951 43.4417C49.6771 44.3291 51.4521 44.7729 53.4199 44.7729Z" fill="#FD3C3C"/>
<path d="M86.3395 49.6347C83.3683 49.6347 81.0725 48.8244 79.4519 47.2038C77.8313 45.5446 77.021 43.2294 77.021 40.2583V6.34131H82.5773V39.7953C82.5773 41.4545 82.9632 42.7278 83.7349 43.6153C84.5452 44.5028 85.7414 44.9465 87.3234 44.9465C88.288 44.9465 89.1948 44.7536 90.0437 44.3677L90.3331 48.9402C89.0598 49.4032 87.7285 49.6347 86.3395 49.6347Z" fill="#FD3C3C"/>
<path d="M95.6168 18.6116H101.173V49.2874H95.6168V18.6116Z" fill="#FD3C3C"/>
<path d="M120.58 49.6347C118.072 49.6347 115.66 49.3067 113.345 48.6508C111.03 47.9562 109.216 47.088 107.904 46.0462L110.219 41.6474C111.57 42.6121 113.21 43.3838 115.139 43.9626C117.068 44.5414 119.017 44.8308 120.985 44.8308C125.847 44.8308 128.278 43.4417 128.278 40.6635C128.278 39.7374 127.95 39.0043 127.294 38.4641C126.638 37.9239 125.808 37.538 124.805 37.3065C123.84 37.0364 122.451 36.747 120.638 36.4383C118.168 36.0525 116.142 35.6087 114.56 35.1071C113.017 34.6055 111.686 33.7566 110.567 32.5604C109.448 31.3643 108.888 29.6858 108.888 27.525C108.888 24.7468 110.046 22.5281 112.361 20.8689C114.676 19.1711 117.782 18.3222 121.679 18.3222C123.725 18.3222 125.77 18.573 127.815 19.0747C129.86 19.5763 131.538 20.2515 132.85 21.1004L130.477 25.4992C127.969 23.8786 125.017 23.0683 121.622 23.0683C119.268 23.0683 117.474 23.4542 116.239 24.2259C115.004 24.9976 114.387 26.0201 114.387 27.2935C114.387 28.2967 114.734 29.0877 115.429 29.6665C116.123 30.2453 116.972 30.6697 117.975 30.9398C119.017 31.2099 120.464 31.5186 122.316 31.8659C124.786 32.2903 126.773 32.7534 128.278 33.255C129.821 33.718 131.133 34.5283 132.213 35.6859C133.294 36.8435 133.834 38.4641 133.834 40.5477C133.834 43.3259 132.638 45.5446 130.246 47.2038C127.892 48.8244 124.67 49.6347 120.58 49.6347Z" fill="#FD3C3C"/>
<path d="M169.37 18.6116V45.1202C169.37 50.4836 168.116 54.4387 165.608 56.9853C163.1 59.5706 159.338 60.8632 154.322 60.8632C151.582 60.8632 148.958 60.4581 146.45 59.6478C143.981 58.876 141.955 57.757 140.373 56.2908L143.093 52.0077C144.444 53.2425 146.064 54.2071 147.955 54.9017C149.884 55.5962 151.91 55.9435 154.032 55.9435C157.389 55.9435 159.859 55.0946 161.441 53.3968C163.023 51.7376 163.814 49.1717 163.814 45.6989V43.4417C162.695 44.9079 161.248 46.0462 159.473 46.8565C157.698 47.6282 155.769 48.0141 153.685 48.0141C149.595 48.0141 146.373 46.8951 144.019 44.6571C141.666 42.4191 140.489 39.1007 140.489 34.702V18.6116H146.045V34.0653C146.045 36.9978 146.759 39.2358 148.187 40.7792C149.614 42.2841 151.659 43.0365 154.322 43.0365C157.254 43.0365 159.569 42.149 161.267 40.3741C162.965 38.5991 163.814 36.0911 163.814 32.8498V18.6116H169.37Z" fill="#FD3C3C"/>
<path d="M188.746 49.6347C186.238 49.6347 183.826 49.3067 181.511 48.6508C179.196 47.9562 177.382 47.088 176.07 46.0462L178.385 41.6474C179.736 42.6121 181.376 43.3838 183.305 43.9626C185.234 44.5414 187.183 44.8308 189.151 44.8308C194.013 44.8308 196.444 43.4417 196.444 40.6635C196.444 39.7374 196.116 39.0043 195.46 38.4641C194.804 37.9239 193.974 37.538 192.971 37.3065C192.006 37.0364 190.617 36.747 188.804 36.4383C186.334 36.0525 184.308 35.6087 182.726 35.1071C181.183 34.6055 179.852 33.7566 178.733 32.5604C177.614 31.3643 177.054 29.6858 177.054 27.525C177.054 24.7468 178.212 22.5281 180.527 20.8689C182.842 19.1711 185.948 18.3222 189.845 18.3222C191.89 18.3222 193.936 18.573 195.981 19.0747C198.026 19.5763 199.704 20.2515 201.016 21.1004L198.643 25.4992C196.135 23.8786 193.183 23.0683 189.788 23.0683C187.434 23.0683 185.64 23.4542 184.405 24.2259C183.17 24.9976 182.553 26.0201 182.553 27.2935C182.553 28.2967 182.9 29.0877 183.595 29.6665C184.289 30.2453 185.138 30.6697 186.141 30.9398C187.183 31.2099 188.63 31.5186 190.482 31.8659C192.952 32.2903 194.939 32.7534 196.444 33.255C197.987 33.718 199.299 34.5283 200.379 35.6859C201.46 36.8435 202 38.4641 202 40.5477C202 43.3259 200.804 45.5446 198.411 47.2038C196.058 48.8244 192.836 49.6347 188.746 49.6347Z" fill="#FD3C3C"/>
</g>
<g id="Group 1">
<path id="up arrow" d="M98.3761 12.6611L95.6631 15.245L96.7483 16.2786L98.3762 14.7282L100.004 16.2786L101.089 15.245L98.3761 12.6611Z" fill="#FD3C3C"/>
<path id="up arrow_2" d="M98.3758 6.78271L92.4976 12.9194L94.8489 15.3741L98.3759 11.6921L101.903 15.3741L104.254 12.9194L98.3758 6.78271Z" fill="#FD3C3C"/>
<path id="up arrow_3" d="M98.3759 0L91.1411 7.42859L94.0351 10.4001L98.376 5.9429L102.717 10.4001L105.611 7.42859L98.3759 0Z" fill="#FD3C3C"/>
</g>
</g>
</g>
</g>
<g id="Group 7">
<g id="Group 3_2">
<g id="Group 2_2">
<g id="Polisys_2">
<path d="M15.8009 8.77222C21.0486 8.77222 25.1773 10.0263 28.187 12.5343C31.1967 15.0424 32.7016 18.4959 32.7016 22.8947C32.7016 27.2935 31.1967 30.7469 28.187 33.255C25.1773 35.7631 21.0486 37.0171 15.8009 37.0171H5.78789V49.2874H0V8.77222H15.8009ZM15.6273 31.9816C19.293 31.9816 22.0904 31.2099 24.0197 29.6665C25.949 28.0845 26.9137 25.8272 26.9137 22.8947C26.9137 19.9621 25.949 17.7242 24.0197 16.1807C22.0904 14.5987 19.293 13.8077 15.6273 13.8077H5.78789V31.9816H15.6273Z" fill="#FD3C3C"/>
<path d="M53.4199 49.6347C50.3717 49.6347 47.6321 48.9595 45.2011 47.6089C42.7702 46.2584 40.8602 44.4063 39.4711 42.0526C38.1206 39.6602 37.4454 36.9592 37.4454 33.9495C37.4454 30.9398 38.1206 28.2581 39.4711 25.9044C40.8602 23.512 42.7702 21.6599 45.2011 20.348C47.6321 18.9975 50.3717 18.3222 53.4199 18.3222C56.4682 18.3222 59.1885 18.9975 61.5809 20.348C64.0118 21.6599 65.9025 23.512 67.253 25.9044C68.6421 28.2581 69.3366 30.9398 69.3366 33.9495C69.3366 36.9592 68.6421 39.6602 67.253 42.0526C65.9025 44.4063 64.0118 46.2584 61.5809 47.6089C59.1885 48.9595 56.4682 49.6347 53.4199 49.6347ZM53.4199 44.7729C55.3878 44.7729 57.1435 44.3291 58.6869 43.4417C60.2689 42.5156 61.5037 41.2423 62.3912 39.6217C63.2786 37.9625 63.7224 36.0718 63.7224 33.9495C63.7224 31.8273 63.2786 29.9559 62.3912 28.3353C61.5037 26.6761 60.2689 25.4028 58.6869 24.5153C57.1435 23.6278 55.3878 23.1841 53.4199 23.1841C51.4521 23.1841 49.6771 23.6278 48.0951 24.5153C46.5516 25.4028 45.3169 26.6761 44.3908 28.3353C43.5034 29.9559 43.0596 31.8273 43.0596 33.9495C43.0596 36.0718 43.5034 37.9625 44.3908 39.6217C45.3169 41.2423 46.5516 42.5156 48.0951 43.4417C49.6771 44.3291 51.4521 44.7729 53.4199 44.7729Z" fill="#FD3C3C"/>
<path d="M86.3395 49.6347C83.3683 49.6347 81.0725 48.8244 79.4519 47.2038C77.8313 45.5446 77.021 43.2294 77.021 40.2583V6.34131H82.5773V39.7953C82.5773 41.4545 82.9632 42.7278 83.7349 43.6153C84.5452 44.5028 85.7414 44.9465 87.3234 44.9465C88.288 44.9465 89.1948 44.7536 90.0437 44.3677L90.3331 48.9402C89.0598 49.4032 87.7285 49.6347 86.3395 49.6347Z" fill="#FD3C3C"/>
<path d="M95.6168 18.6116H101.173V49.2874H95.6168V18.6116Z" fill="#FD3C3C"/>
<path d="M120.58 49.6347C118.072 49.6347 115.66 49.3067 113.345 48.6508C111.03 47.9562 109.216 47.088 107.904 46.0462L110.219 41.6474C111.57 42.6121 113.21 43.3838 115.139 43.9626C117.068 44.5414 119.017 44.8308 120.985 44.8308C125.847 44.8308 128.278 43.4417 128.278 40.6635C128.278 39.7374 127.95 39.0043 127.294 38.4641C126.638 37.9239 125.808 37.538 124.805 37.3065C123.84 37.0364 122.451 36.747 120.638 36.4383C118.168 36.0525 116.142 35.6087 114.56 35.1071C113.017 34.6055 111.686 33.7566 110.567 32.5604C109.448 31.3643 108.888 29.6858 108.888 27.525C108.888 24.7468 110.046 22.5281 112.361 20.8689C114.676 19.1711 117.782 18.3222 121.679 18.3222C123.725 18.3222 125.77 18.573 127.815 19.0747C129.86 19.5763 131.538 20.2515 132.85 21.1004L130.477 25.4992C127.969 23.8786 125.017 23.0683 121.622 23.0683C119.268 23.0683 117.474 23.4542 116.239 24.2259C115.004 24.9976 114.387 26.0201 114.387 27.2935C114.387 28.2967 114.734 29.0877 115.429 29.6665C116.123 30.2453 116.972 30.6697 117.975 30.9398C119.017 31.2099 120.464 31.5186 122.316 31.8659C124.786 32.2903 126.773 32.7534 128.278 33.255C129.821 33.718 131.133 34.5283 132.213 35.6859C133.294 36.8435 133.834 38.4641 133.834 40.5477C133.834 43.3259 132.638 45.5446 130.246 47.2038C127.892 48.8244 124.67 49.6347 120.58 49.6347Z" fill="#FD3C3C"/>
<path d="M169.37 18.6116V45.1202C169.37 50.4836 168.116 54.4387 165.608 56.9853C163.1 59.5706 159.338 60.8632 154.322 60.8632C151.582 60.8632 148.958 60.4581 146.45 59.6478C143.981 58.876 141.955 57.757 140.373 56.2908L143.093 52.0077C144.444 53.2425 146.064 54.2071 147.955 54.9017C149.884 55.5962 151.91 55.9435 154.032 55.9435C157.389 55.9435 159.859 55.0946 161.441 53.3968C163.023 51.7376 163.814 49.1717 163.814 45.6989V43.4417C162.695 44.9079 161.248 46.0462 159.473 46.8565C157.698 47.6282 155.769 48.0141 153.685 48.0141C149.595 48.0141 146.373 46.8951 144.019 44.6571C141.666 42.4191 140.489 39.1007 140.489 34.702V18.6116H146.045V34.0653C146.045 36.9978 146.759 39.2358 148.187 40.7792C149.614 42.2841 151.659 43.0365 154.322 43.0365C157.254 43.0365 159.569 42.149 161.267 40.3741C162.965 38.5991 163.814 36.0911 163.814 32.8498V18.6116H169.37Z" fill="#FD3C3C"/>
<path d="M188.746 49.6347C186.238 49.6347 183.826 49.3067 181.511 48.6508C179.196 47.9562 177.382 47.088 176.07 46.0462L178.385 41.6474C179.736 42.6121 181.376 43.3838 183.305 43.9626C185.234 44.5414 187.183 44.8308 189.151 44.8308C194.013 44.8308 196.444 43.4417 196.444 40.6635C196.444 39.7374 196.116 39.0043 195.46 38.4641C194.804 37.9239 193.974 37.538 192.971 37.3065C192.006 37.0364 190.617 36.747 188.804 36.4383C186.334 36.0525 184.308 35.6087 182.726 35.1071C181.183 34.6055 179.852 33.7566 178.733 32.5604C177.614 31.3643 177.054 29.6858 177.054 27.525C177.054 24.7468 178.212 22.5281 180.527 20.8689C182.842 19.1711 185.948 18.3222 189.845 18.3222C191.89 18.3222 193.936 18.573 195.981 19.0747C198.026 19.5763 199.704 20.2515 201.016 21.1004L198.643 25.4992C196.135 23.8786 193.183 23.0683 189.788 23.0683C187.434 23.0683 185.64 23.4542 184.405 24.2259C183.17 24.9976 182.553 26.0201 182.553 27.2935C182.553 28.2967 182.9 29.0877 183.595 29.6665C184.289 30.2453 185.138 30.6697 186.141 30.9398C187.183 31.2099 188.63 31.5186 190.482 31.8659C192.952 32.2903 194.939 32.7534 196.444 33.255C197.987 33.718 199.299 34.5283 200.379 35.6859C201.46 36.8435 202 38.4641 202 40.5477C202 43.3259 200.804 45.5446 198.411 47.2038C196.058 48.8244 192.836 49.6347 188.746 49.6347Z" fill="#FD3C3C"/>
</g>
<g id="Group 1_2">
<path id="up arrow_4" d="M98.3761 12.6611L95.6631 15.245L96.7483 16.2786L98.3762 14.7282L100.004 16.2786L101.089 15.245L98.3761 12.6611Z" fill="#FD3C3C"/>
<path id="up arrow_5" d="M98.3758 6.78271L92.4976 12.9194L94.8489 15.3741L98.3759 11.6921L101.903 15.3741L104.254 12.9194L98.3758 6.78271Z" fill="#FD3C3C"/>
<path id="up arrow_6" d="M98.3759 0L91.1411 7.42859L94.0351 10.4001L98.376 5.9429L102.717 10.4001L105.611 7.42859L98.3759 0Z" fill="#FD3C3C"/>
</g>
</g>
</g>
</g>
<g id="Growth Engine for Politics &#38; Policies">
<path d="M2.88283 75.1831C2.48836 75.1831 2.11683 75.1302 1.76823 75.0244C1.42422 74.9186 1.11919 74.7622 0.853153 74.5551C0.587116 74.3481 0.378415 74.0905 0.227049 73.7822C0.0756829 73.4694 0 73.1059 0 72.6918C0 72.3422 0.0756829 72.0178 0.227049 71.7188C0.383002 71.4151 0.59629 71.1529 0.866914 70.932C1.14212 70.7066 1.4632 70.5318 1.83015 70.4076C2.1971 70.2833 2.59157 70.2212 3.01356 70.2212C3.36674 70.2212 3.69241 70.2603 3.99056 70.3386C4.29329 70.4168 4.55703 70.518 4.78179 70.6422C5.01113 70.7664 5.19231 70.8975 5.32533 71.0356L4.76114 71.6705C4.60519 71.5508 4.43548 71.4473 4.25201 71.3599C4.07312 71.2679 3.87818 71.1943 3.66718 71.1391C3.46077 71.0839 3.24061 71.0563 3.00668 71.0563C2.71771 71.0563 2.44708 71.0977 2.19481 71.1805C1.94712 71.2633 1.72924 71.3783 1.54118 71.5255C1.35771 71.6728 1.21322 71.8453 1.10772 72.0431C1.00223 72.241 0.949477 72.4572 0.949477 72.6918C0.949477 72.9863 1.00452 73.2393 1.1146 73.451C1.22469 73.658 1.37376 73.8282 1.56182 73.9616C1.75447 74.0951 1.97234 74.194 2.21545 74.2584C2.45855 74.3182 2.70853 74.3481 2.9654 74.3481C3.23602 74.3481 3.486 74.3228 3.71534 74.2722C3.94927 74.2216 4.15109 74.1503 4.32081 74.0583C4.49511 73.9662 4.62813 73.8581 4.71986 73.7339C4.81619 73.6051 4.85976 73.4648 4.85059 73.3129L4.84371 73.2094L4.97443 73.4096H2.9654V72.6228H5.76566C5.77484 72.6918 5.78172 72.7539 5.7863 72.8092C5.79089 72.8644 5.79319 72.9104 5.79319 72.9472C5.79319 72.9794 5.79319 73.0047 5.79319 73.0231C5.79319 73.3865 5.72209 73.704 5.5799 73.9754C5.44229 74.2469 5.24276 74.4723 4.98131 74.6518C4.72445 74.8266 4.41713 74.96 4.05936 75.052C3.70617 75.1394 3.314 75.1831 2.88283 75.1831Z" fill="#1E1E1E"/>
<path d="M8.09748 75.1141V71.4772H8.92999L8.94376 72.8161L8.68919 72.7885C8.76716 72.5308 8.89101 72.2985 9.06072 72.0914C9.23043 71.8798 9.42996 71.7119 9.6593 71.5877C9.88865 71.4634 10.1272 71.4013 10.3749 71.4013C10.5446 71.4013 10.7097 71.4197 10.8702 71.4565C11.0308 71.4933 11.1615 71.5439 11.2624 71.6084L11.0354 72.4986C10.9344 72.4342 10.806 72.3836 10.6501 72.3468C10.4941 72.31 10.3473 72.2916 10.2097 72.2916C10.0125 72.2916 9.8359 72.3238 9.67994 72.3882C9.52399 72.4526 9.39097 72.5377 9.28089 72.6435C9.17539 72.7493 9.09283 72.8667 9.0332 72.9955C8.97816 73.1197 8.95064 73.2485 8.95064 73.3819V75.1141H8.09748Z" fill="#1E1E1E"/>
<path d="M15.2697 75.1831C14.7927 75.1831 14.3684 75.1026 13.9969 74.9416C13.6299 74.7806 13.3433 74.5574 13.1368 74.2722C12.9304 73.9823 12.8272 73.6557 12.8272 73.2922C12.8272 72.9242 12.9304 72.5975 13.1368 72.3123C13.3433 72.027 13.6299 71.8039 13.9969 71.6429C14.3684 71.4818 14.7927 71.4013 15.2697 71.4013C15.7468 71.4013 16.1665 71.4818 16.5288 71.6429C16.8958 71.8039 17.1824 72.027 17.3889 72.3123C17.5953 72.5975 17.6985 72.9242 17.6985 73.2922C17.6985 73.6557 17.5953 73.9823 17.3889 74.2722C17.1824 74.5574 16.8958 74.7806 16.5288 74.9416C16.1665 75.1026 15.7468 75.1831 15.2697 75.1831ZM15.2697 74.4309C15.5633 74.4309 15.8293 74.3826 16.0678 74.286C16.3064 74.1848 16.4967 74.0491 16.6389 73.8788C16.7811 73.7086 16.8476 73.5131 16.8384 73.2922C16.8476 73.0668 16.7811 72.869 16.6389 72.6987C16.4967 72.5285 16.3064 72.3951 16.0678 72.2985C15.8293 72.2019 15.5633 72.1535 15.2697 72.1535C14.9762 72.1535 14.7078 72.2019 14.4647 72.2985C14.2262 72.3951 14.0359 72.5285 13.8937 72.6987C13.7561 72.869 13.6873 73.0668 13.6873 73.2922C13.6873 73.5131 13.7561 73.7086 13.8937 73.8788C14.0359 74.0491 14.2262 74.1848 14.4647 74.286C14.7078 74.3826 14.9762 74.4309 15.2697 74.4309Z" fill="#1E1E1E"/>
<path d="M20.3972 75.1141L19.0624 71.4772L19.9844 71.4703L20.8375 74.1894L20.6862 74.1756L21.732 72.0086H22.3994L23.4796 74.1825L23.3557 74.1963L24.3396 71.4772H25.2203L23.7685 75.1141H23.1493L21.8421 72.4158L22.3512 72.3537L21.0164 75.1141H20.3972Z" fill="#1E1E1E"/>
<path d="M28.0709 75.1141V70.3455H28.9172V75.1141H28.0709ZM26.9426 72.264V71.4772H30.2589V72.264H26.9426Z" fill="#1E1E1E"/>
<path d="M32.7764 75.1141V70.0073H33.6158V72.4986L33.3337 72.54C33.3888 72.356 33.5034 72.1766 33.6777 72.0017C33.852 71.8269 34.0699 71.6843 34.3313 71.5739C34.5928 71.4588 34.8772 71.4013 35.1845 71.4013C35.5514 71.4013 35.8565 71.4726 36.0996 71.6153C36.3473 71.7579 36.533 71.9488 36.6569 72.1881C36.7807 72.4227 36.8426 72.6803 36.8426 72.961V75.1141H35.9964V73.1404C35.9964 72.9426 35.9459 72.77 35.845 72.6228C35.7441 72.471 35.6111 72.3537 35.446 72.2709C35.2808 72.1835 35.0951 72.1397 34.8886 72.1397C34.7052 72.1397 34.5355 72.1743 34.3795 72.2433C34.2236 72.3123 34.0882 72.3997 33.9736 72.5055C33.8635 72.6113 33.7763 72.7286 33.7121 72.8575C33.6525 72.9817 33.6227 73.1059 33.6227 73.2301V75.1141H33.203C33.0608 75.1141 32.953 75.1141 32.8796 75.1141C32.8108 75.1141 32.7764 75.1141 32.7764 75.1141Z" fill="#1E1E1E"/>
<path d="M42.9765 75.1141V70.2833H47.0909V71.0977H43.8571V74.2998H47.1184V75.1141H42.9765ZM43.4581 73.0438V72.2433H46.74V73.0438H43.4581Z" fill="#1E1E1E"/>
<path d="M49.6613 75.1141V71.4772H50.4869L50.5007 72.4986L50.2186 72.5331C50.3149 72.3491 50.4456 72.172 50.6108 72.0017C50.7759 71.8269 50.9754 71.6843 51.2093 71.5739C51.4479 71.4588 51.7162 71.4013 52.0143 71.4013C52.3905 71.4013 52.7047 71.4726 52.9569 71.6153C53.2138 71.7533 53.4064 71.9419 53.5349 72.1812C53.6633 72.4158 53.7275 72.678 53.7275 72.9679V75.1141H52.8812V73.1335C52.8812 72.9403 52.8308 72.77 52.7299 72.6228C52.629 72.4756 52.496 72.3629 52.3308 72.2847C52.1657 72.2019 51.9799 72.1604 51.7735 72.1604C51.5855 72.1604 51.4135 72.195 51.2575 72.264C51.1016 72.3284 50.9662 72.4135 50.8516 72.5193C50.7415 72.6251 50.6566 72.7401 50.597 72.8644C50.5374 72.984 50.5076 73.1013 50.5076 73.2163V75.1141H50.0879C49.9457 75.1141 49.8379 75.1141 49.7645 75.1141C49.6957 75.1141 49.6613 75.1141 49.6613 75.1141Z" fill="#1E1E1E"/>
<path d="M58.664 76.7014C58.2328 76.7014 57.8613 76.6554 57.5494 76.5634C57.2421 76.476 56.9944 76.3724 56.8063 76.2528L57.0953 75.5834C57.2008 75.6294 57.3246 75.6823 57.4668 75.7421C57.6136 75.8019 57.781 75.8526 57.9691 75.894C58.1617 75.94 58.3773 75.963 58.6158 75.963C58.8773 75.963 59.1066 75.9124 59.3039 75.8111C59.5011 75.7099 59.6548 75.5604 59.7648 75.3626C59.8795 75.1693 59.9369 74.9324 59.9369 74.6518V74.2584L60.0607 74.3067C60.0286 74.4355 59.9208 74.5666 59.7373 74.7001C59.5584 74.8289 59.3314 74.937 59.0562 75.0244C58.781 75.1072 58.4851 75.1486 58.1686 75.1486C57.7558 75.1486 57.3934 75.0704 57.0815 74.914C56.7742 74.753 56.5334 74.5321 56.3591 74.2515C56.1848 73.9708 56.0977 73.6488 56.0977 73.2853C56.0977 72.9173 56.1894 72.5929 56.3729 72.3123C56.5609 72.027 56.8178 71.8039 57.1435 71.6429C57.4737 71.4818 57.8521 71.4013 58.2787 71.4013C58.3842 71.4013 58.5149 71.4151 58.6709 71.4427C58.8268 71.4657 58.9874 71.5025 59.1525 71.5531C59.3176 71.6038 59.4736 71.6659 59.6204 71.7395C59.7717 71.8085 59.8933 71.8867 59.985 71.9741C60.0768 72.0615 60.1226 72.1581 60.1226 72.264L59.9437 72.3192L59.9575 71.4772H60.79V74.5896C60.79 74.9485 60.7304 75.2591 60.6111 75.5213C60.4919 75.7881 60.3313 76.009 60.1295 76.1838C59.9277 76.3586 59.7006 76.4875 59.4484 76.5703C59.1961 76.6577 58.9346 76.7014 58.664 76.7014ZM58.5058 74.424C58.7993 74.424 59.0539 74.3757 59.2695 74.2791C59.4896 74.1825 59.6593 74.0491 59.7786 73.8788C59.9024 73.704 59.9644 73.5085 59.9644 73.2922C59.9644 73.0668 59.9024 72.869 59.7786 72.6987C59.6593 72.5285 59.4896 72.3951 59.2695 72.2985C59.0539 72.1973 58.7993 72.1466 58.5058 72.1466C58.203 72.1466 57.9347 72.1973 57.7008 72.2985C57.4668 72.3951 57.2834 72.5308 57.1503 72.7056C57.0173 72.8759 56.9508 73.0714 56.9508 73.2922C56.9508 73.5039 57.0173 73.6971 57.1503 73.8719C57.2834 74.0422 57.4668 74.1779 57.7008 74.2791C57.9347 74.3757 58.203 74.424 58.5058 74.424Z" fill="#1E1E1E"/>
<path d="M63.6506 75.1141V71.4772H64.4969V75.1141H63.6506ZM64.0634 70.6353C63.8937 70.6353 63.7607 70.5939 63.6643 70.5111C63.5726 70.4237 63.5267 70.3017 63.5267 70.1453C63.5267 69.9981 63.5749 69.8785 63.6712 69.7865C63.7676 69.6944 63.8983 69.6484 64.0634 69.6484C64.2377 69.6484 64.3707 69.6921 64.4625 69.7796C64.5588 69.8624 64.6069 69.9843 64.6069 70.1453C64.6069 70.2879 64.5588 70.4053 64.4625 70.4973C64.3661 70.5893 64.2331 70.6353 64.0634 70.6353Z" fill="#1E1E1E"/>
<path d="M67.4667 75.1141V71.4772H68.2923L68.3061 72.4986L68.024 72.5331C68.1203 72.3491 68.251 72.172 68.4161 72.0017C68.5813 71.8269 68.7808 71.6843 69.0147 71.5739C69.2532 71.4588 69.5216 71.4013 69.8197 71.4013C70.1958 71.4013 70.51 71.4726 70.7623 71.6153C71.0192 71.7533 71.2118 71.9419 71.3402 72.1812C71.4687 72.4158 71.5329 72.678 71.5329 72.9679V75.1141H70.6866V73.1335C70.6866 72.9403 70.6362 72.77 70.5353 72.6228C70.4343 72.4756 70.3013 72.3629 70.1362 72.2847C69.9711 72.2019 69.7853 72.1604 69.5789 72.1604C69.3908 72.1604 69.2188 72.195 69.0629 72.264C68.9069 72.3284 68.7716 72.4135 68.657 72.5193C68.5469 72.6251 68.462 72.7401 68.4024 72.8644C68.3427 72.984 68.3129 73.1013 68.3129 73.2163V75.1141H67.8932C67.751 75.1141 67.6432 75.1141 67.5699 75.1141C67.5011 75.1141 67.4667 75.1141 67.4667 75.1141Z" fill="#1E1E1E"/>
<path d="M76.3043 75.1831C75.818 75.1831 75.3869 75.1026 75.0108 74.9416C74.6346 74.7806 74.3411 74.5597 74.1301 74.2791C73.9237 73.9984 73.8205 73.681 73.8205 73.3267C73.8205 73.0231 73.8824 72.7539 74.0062 72.5193C74.1347 72.2801 74.309 72.0776 74.5291 71.912C74.7539 71.7464 75.0108 71.6199 75.2997 71.5324C75.5933 71.4404 75.9006 71.3944 76.2217 71.3944C76.529 71.3944 76.818 71.4381 77.0886 71.5255C77.3592 71.613 77.5955 71.7372 77.7973 71.8982C78.0037 72.0546 78.1619 72.2433 78.272 72.4641C78.3867 72.6803 78.4417 72.9219 78.4371 73.1887L78.4303 73.5476H74.5291L74.3709 72.9403H77.7216L77.6115 73.0231V72.8713C77.5886 72.724 77.5083 72.5952 77.3707 72.4848C77.2377 72.3744 77.0703 72.2893 76.8684 72.2295C76.6666 72.165 76.451 72.1328 76.2217 72.1328C75.9327 72.1328 75.6667 72.1697 75.4236 72.2433C75.1851 72.3169 74.9947 72.4365 74.8525 72.6021C74.7103 72.7677 74.6392 72.9886 74.6392 73.2646C74.6392 73.4947 74.7149 73.6971 74.8663 73.8719C75.0222 74.0468 75.2355 74.1848 75.5061 74.286C75.7814 74.3826 76.1001 74.4309 76.4625 74.4309C76.8249 74.4309 77.123 74.3872 77.3569 74.2998C77.5909 74.2078 77.7743 74.1227 77.9074 74.0445L78.2789 74.6449C78.1275 74.7415 77.9463 74.8312 77.7354 74.914C77.5289 74.9968 77.3019 75.0635 77.0542 75.1141C76.8111 75.1601 76.5611 75.1831 76.3043 75.1831Z" fill="#1E1E1E"/>
<path d="M84.0699 75.1141V70.2833H84.9644V75.1141H84.0699ZM84.4002 73.2025V72.3882H87.7922V73.2025H84.4002ZM84.4965 71.1115V70.2833H88.088V71.1115H84.4965Z" fill="#1E1E1E"/>
<path d="M92.2897 75.1831C91.8127 75.1831 91.3884 75.1026 91.0169 74.9416C90.6499 74.7806 90.3633 74.5574 90.1569 74.2722C89.9505 73.9823 89.8473 73.6557 89.8473 73.2922C89.8473 72.9242 89.9505 72.5975 90.1569 72.3123C90.3633 72.027 90.6499 71.8039 91.0169 71.6429C91.3884 71.4818 91.8127 71.4013 92.2897 71.4013C92.7668 71.4013 93.1865 71.4818 93.5488 71.6429C93.9158 71.8039 94.2025 72.027 94.4089 72.3123C94.6153 72.5975 94.7185 72.9242 94.7185 73.2922C94.7185 73.6557 94.6153 73.9823 94.4089 74.2722C94.2025 74.5574 93.9158 74.7806 93.5488 74.9416C93.1865 75.1026 92.7668 75.1831 92.2897 75.1831ZM92.2897 74.4309C92.5833 74.4309 92.8493 74.3826 93.0879 74.286C93.3264 74.1848 93.5167 74.0491 93.6589 73.8788C93.8011 73.7086 93.8676 73.5131 93.8584 73.2922C93.8676 73.0668 93.8011 72.869 93.6589 72.6987C93.5167 72.5285 93.3264 72.3951 93.0879 72.2985C92.8493 72.2019 92.5833 72.1535 92.2897 72.1535C91.9962 72.1535 91.7279 72.2019 91.4848 72.2985C91.2462 72.3951 91.0559 72.5285 90.9137 72.6987C90.7761 72.869 90.7073 73.0668 90.7073 73.2922C90.7073 73.5131 90.7761 73.7086 90.9137 73.8788C91.0559 74.0491 91.2462 74.1848 91.4848 74.286C91.7279 74.3826 91.9962 74.4309 92.2897 74.4309Z" fill="#1E1E1E"/>
<path d="M97.0975 75.1141V71.4772H97.93L97.9438 72.8161L97.6892 72.7885C97.7672 72.5308 97.891 72.2985 98.0607 72.0914C98.2304 71.8798 98.43 71.7119 98.6593 71.5877C98.8887 71.4634 99.1272 71.4013 99.3749 71.4013C99.5446 71.4013 99.7097 71.4197 99.8702 71.4565C100.031 71.4933 100.162 71.5439 100.262 71.6084L100.035 72.4986C99.9345 72.4342 99.806 72.3836 99.6501 72.3468C99.4941 72.31 99.3473 72.2916 99.2097 72.2916C99.0125 72.2916 98.8359 72.3238 98.68 72.3882C98.524 72.4526 98.391 72.5377 98.2809 72.6435C98.1754 72.7493 98.0928 72.8667 98.0332 72.9955C97.9782 73.1197 97.9506 73.2485 97.9506 73.3819V75.1141H97.0975Z" fill="#1E1E1E"/>
<path d="M105.745 75.1141V70.2833H108.601C108.899 70.2833 109.17 70.3501 109.413 70.4835C109.66 70.6169 109.858 70.7986 110.004 71.0287C110.151 71.2587 110.225 71.5163 110.225 71.8016C110.225 72.1052 110.144 72.379 109.984 72.6228C109.823 72.8667 109.61 73.0599 109.344 73.2025C109.078 73.3451 108.784 73.4165 108.463 73.4165H106.64V75.1141H105.745ZM106.64 72.5883H108.346C108.511 72.5883 108.665 72.5538 108.807 72.4848C108.949 72.4112 109.062 72.3169 109.144 72.2019C109.231 72.0822 109.275 71.9511 109.275 71.8085C109.275 71.6751 109.231 71.5578 109.144 71.4565C109.062 71.3507 108.949 71.2679 108.807 71.2081C108.665 71.1437 108.511 71.1115 108.346 71.1115H106.64V72.5883Z" fill="#1E1E1E"/>
<path d="M114.415 75.1831C113.938 75.1831 113.514 75.1026 113.143 74.9416C112.776 74.7806 112.489 74.5574 112.283 74.2722C112.076 73.9823 111.973 73.6557 111.973 73.2922C111.973 72.9242 112.076 72.5975 112.283 72.3123C112.489 72.027 112.776 71.8039 113.143 71.6429C113.514 71.4818 113.938 71.4013 114.415 71.4013C114.892 71.4013 115.312 71.4818 115.675 71.6429C116.041 71.8039 116.328 72.027 116.535 72.3123C116.741 72.5975 116.844 72.9242 116.844 73.2922C116.844 73.6557 116.741 73.9823 116.535 74.2722C116.328 74.5574 116.041 74.7806 115.675 74.9416C115.312 75.1026 114.892 75.1831 114.415 75.1831ZM114.415 74.4309C114.709 74.4309 114.975 74.3826 115.214 74.286C115.452 74.1848 115.642 74.0491 115.785 73.8788C115.927 73.7086 115.993 73.5131 115.984 73.2922C115.993 73.0668 115.927 72.869 115.785 72.6987C115.642 72.5285 115.452 72.3951 115.214 72.2985C114.975 72.2019 114.709 72.1535 114.415 72.1535C114.122 72.1535 113.854 72.2019 113.61 72.2985C113.372 72.3951 113.182 72.5285 113.039 72.6987C112.902 72.869 112.833 73.0668 112.833 73.2922C112.833 73.5131 112.902 73.7086 113.039 73.8788C113.182 74.0491 113.372 74.1848 113.61 74.286C113.854 74.3826 114.122 74.4309 114.415 74.4309Z" fill="#1E1E1E"/>
<path d="M119.175 75.1141V70.0073H120.028V75.1141H119.175Z" fill="#1E1E1E"/>
<path d="M122.966 75.1141V71.4772H123.812V75.1141H122.966ZM123.379 70.6353C123.209 70.6353 123.076 70.5939 122.98 70.5111C122.888 70.4237 122.842 70.3017 122.842 70.1453C122.842 69.9981 122.89 69.8785 122.987 69.7865C123.083 69.6944 123.214 69.6484 123.379 69.6484C123.553 69.6484 123.686 69.6921 123.778 69.7796C123.874 69.8624 123.922 69.9843 123.922 70.1453C123.922 70.2879 123.874 70.4053 123.778 70.4973C123.682 70.5893 123.549 70.6353 123.379 70.6353Z" fill="#1E1E1E"/>
<path d="M127.264 75.1141V70.3455H128.11V75.1141H127.264ZM126.135 72.264V71.4772H129.452V72.264H126.135Z" fill="#1E1E1E"/>
<path d="M131.983 75.1141V71.4772H132.829V75.1141H131.983ZM132.396 70.6353C132.226 70.6353 132.093 70.5939 131.997 70.5111C131.905 70.4237 131.859 70.3017 131.859 70.1453C131.859 69.9981 131.907 69.8785 132.004 69.7865C132.1 69.6944 132.231 69.6484 132.396 69.6484C132.57 69.6484 132.703 69.6921 132.795 69.7796C132.891 69.8624 132.939 69.9843 132.939 70.1453C132.939 70.2879 132.891 70.4053 132.795 70.4973C132.698 70.5893 132.565 70.6353 132.396 70.6353Z" fill="#1E1E1E"/>
<path d="M137.505 75.1831C137.065 75.1831 136.671 75.1003 136.322 74.9347C135.978 74.7691 135.705 74.5436 135.503 74.2584C135.306 73.9731 135.207 73.6511 135.207 73.2922C135.207 72.9288 135.306 72.6067 135.503 72.3261C135.705 72.0408 135.978 71.8154 136.322 71.6498C136.666 71.4841 137.051 71.4013 137.478 71.4013C137.904 71.4013 138.297 71.4611 138.654 71.5808C139.017 71.6958 139.31 71.8614 139.535 72.0776L139.06 72.7401C138.941 72.6297 138.794 72.5308 138.62 72.4434C138.45 72.356 138.269 72.287 138.076 72.2364C137.888 72.1812 137.7 72.1535 137.512 72.1535C137.228 72.1535 136.978 72.2042 136.762 72.3054C136.551 72.402 136.386 72.5354 136.267 72.7056C136.152 72.8759 136.095 73.0714 136.095 73.2922C136.095 73.5131 136.157 73.7086 136.281 73.8788C136.404 74.0491 136.574 74.1848 136.79 74.286C137.005 74.3826 137.246 74.4309 137.512 74.4309C137.755 74.4309 137.971 74.4079 138.159 74.3619C138.352 74.3113 138.521 74.2515 138.668 74.1825C138.819 74.1089 138.955 74.0399 139.074 73.9754L139.535 74.6173C139.274 74.7691 138.975 74.9025 138.641 75.0175C138.31 75.1279 137.932 75.1831 137.505 75.1831Z" fill="#1E1E1E"/>
<path d="M143.345 75.1831C142.905 75.1831 142.501 75.1302 142.134 75.0244C141.772 74.914 141.471 74.7346 141.233 74.4861L141.783 73.9754C141.962 74.1411 142.18 74.2722 142.437 74.3688C142.698 74.4654 142.989 74.5137 143.31 74.5137C143.421 74.5137 143.535 74.5091 143.654 74.4999C143.774 74.4861 143.886 74.4654 143.992 74.4378C144.102 74.4056 144.189 74.3642 144.253 74.3136C144.317 74.2584 144.349 74.1894 144.349 74.1066C144.349 73.9731 144.237 73.8765 144.012 73.8167C143.884 73.7799 143.742 73.7477 143.586 73.7201C143.434 73.6925 143.278 73.6695 143.118 73.6511C142.824 73.6005 142.558 73.5476 142.32 73.4924C142.086 73.4372 141.889 73.3566 141.728 73.2508C141.604 73.168 141.506 73.0645 141.432 72.9403C141.363 72.8115 141.329 72.6596 141.329 72.4848C141.329 72.3146 141.377 72.1627 141.473 72.0293C141.574 71.8959 141.71 71.7832 141.879 71.6912C142.054 71.5946 142.256 71.5232 142.485 71.4772C142.714 71.4266 142.96 71.4013 143.221 71.4013C143.446 71.4013 143.677 71.422 143.916 71.4634C144.159 71.5002 144.391 71.5601 144.611 71.6429C144.836 71.7257 145.026 71.8361 145.182 71.9741L144.748 72.5331C144.62 72.4457 144.469 72.3675 144.294 72.2985C144.12 72.2249 143.937 72.1674 143.744 72.1259C143.551 72.0799 143.361 72.0569 143.173 72.0569C143.067 72.0569 142.955 72.0638 142.836 72.0776C142.721 72.0868 142.611 72.1052 142.505 72.1328C142.405 72.1604 142.322 72.1996 142.258 72.2502C142.194 72.3008 142.161 72.3652 142.161 72.4434C142.161 72.4894 142.178 72.5331 142.21 72.5745C142.242 72.6113 142.283 72.6458 142.333 72.678C142.439 72.7424 142.581 72.7931 142.76 72.8299C142.944 72.8667 143.143 72.9035 143.359 72.9403C143.657 72.9817 143.93 73.0346 144.177 73.099C144.43 73.1634 144.638 73.2462 144.803 73.3474C144.932 73.4257 145.031 73.5177 145.099 73.6235C145.168 73.7247 145.203 73.8466 145.203 73.9892C145.203 74.2469 145.12 74.4631 144.955 74.638C144.794 74.8128 144.574 74.9485 144.294 75.0451C144.015 75.1371 143.698 75.1831 143.345 75.1831Z" fill="#1E1E1E"/>
<path d="M154.639 75.1141L154.143 74.5689L153.827 74.286L152.499 73.1059C152.361 72.9863 152.215 72.8598 152.059 72.7263C151.903 72.5929 151.756 72.4549 151.618 72.3123C151.485 72.165 151.375 72.0155 151.288 71.8637C151.206 71.7119 151.164 71.5578 151.164 71.4013C151.164 71.2173 151.231 71.031 151.364 70.8423C151.501 70.6537 151.699 70.495 151.956 70.3662C152.212 70.2373 152.522 70.1729 152.884 70.1729C153.219 70.1729 153.515 70.2189 153.772 70.3109C154.033 70.3984 154.256 70.5157 154.439 70.6629C154.627 70.8101 154.776 70.9781 154.887 71.1667L154.267 71.7119C154.102 71.4496 153.893 71.2587 153.641 71.1391C153.394 71.0195 153.155 70.9597 152.926 70.9597C152.797 70.9597 152.676 70.9735 152.561 71.0011C152.451 71.0287 152.359 71.0747 152.286 71.1391C152.217 71.2035 152.183 71.2863 152.183 71.3875C152.183 71.4565 152.208 71.5324 152.258 71.6153C152.309 71.6935 152.371 71.7717 152.444 71.8499C152.517 71.9281 152.598 72.004 152.685 72.0776C152.772 72.1512 152.852 72.2226 152.926 72.2916L154.563 73.7477L154.79 74.01L155.836 75.1141H154.639ZM152.589 75.2246C152.084 75.2246 151.667 75.1532 151.336 75.0106C151.006 74.8634 150.761 74.6725 150.6 74.4378C150.444 74.2032 150.366 73.9547 150.366 73.6925C150.366 73.3796 150.476 73.0898 150.696 72.823C150.917 72.5515 151.254 72.3284 151.708 72.1535L152.272 72.6987C151.928 72.7908 151.689 72.915 151.556 73.0714C151.428 73.2232 151.364 73.3889 151.364 73.5683C151.364 73.7017 151.403 73.8305 151.481 73.9547C151.563 74.079 151.696 74.1802 151.88 74.2584C152.068 74.3366 152.318 74.3757 152.63 74.3757C152.799 74.3757 152.985 74.3504 153.187 74.2998C153.394 74.2492 153.586 74.1641 153.765 74.0445C153.944 73.9248 154.091 73.7638 154.205 73.5614C154.325 73.3543 154.38 73.1013 154.37 72.8023H155.286C155.286 73.1381 155.228 73.4372 155.114 73.6994C155.003 73.9616 154.854 74.1894 154.666 74.3826C154.478 74.5712 154.267 74.7277 154.033 74.8519C153.799 74.9761 153.559 75.0681 153.311 75.1279C153.063 75.1923 152.822 75.2246 152.589 75.2246Z" fill="#1E1E1E"/>
<path d="M161.218 75.1141V70.2833H164.073C164.371 70.2833 164.642 70.3501 164.885 70.4835C165.132 70.6169 165.33 70.7986 165.476 71.0287C165.623 71.2587 165.697 71.5163 165.697 71.8016C165.697 72.1052 165.616 72.379 165.456 72.6228C165.295 72.8667 165.082 73.0599 164.816 73.2025C164.55 73.3451 164.256 73.4165 163.935 73.4165H162.112V75.1141H161.218ZM162.112 72.5883H163.818C163.983 72.5883 164.137 72.5538 164.279 72.4848C164.422 72.4112 164.534 72.3169 164.616 72.2019C164.704 72.0822 164.747 71.9511 164.747 71.8085C164.747 71.6751 164.704 71.5578 164.616 71.4565C164.534 71.3507 164.422 71.2679 164.279 71.2081C164.137 71.1437 163.983 71.1115 163.818 71.1115H162.112V72.5883Z" fill="#1E1E1E"/>
<path d="M169.888 75.1831C169.411 75.1831 168.986 75.1026 168.615 74.9416C168.248 74.7806 167.961 74.5574 167.755 74.2722C167.548 73.9823 167.445 73.6557 167.445 73.2922C167.445 72.9242 167.548 72.5975 167.755 72.3123C167.961 72.027 168.248 71.8039 168.615 71.6429C168.986 71.4818 169.411 71.4013 169.888 71.4013C170.365 71.4013 170.784 71.4818 171.147 71.6429C171.514 71.8039 171.8 72.027 172.007 72.3123C172.213 72.5975 172.316 72.9242 172.316 73.2922C172.316 73.6557 172.213 73.9823 172.007 74.2722C171.8 74.5574 171.514 74.7806 171.147 74.9416C170.784 75.1026 170.365 75.1831 169.888 75.1831ZM169.888 74.4309C170.181 74.4309 170.447 74.3826 170.686 74.286C170.924 74.1848 171.115 74.0491 171.257 73.8788C171.399 73.7086 171.465 73.5131 171.456 73.2922C171.465 73.0668 171.399 72.869 171.257 72.6987C171.115 72.5285 170.924 72.3951 170.686 72.2985C170.447 72.2019 170.181 72.1535 169.888 72.1535C169.594 72.1535 169.326 72.2019 169.083 72.2985C168.844 72.3951 168.654 72.5285 168.512 72.6987C168.374 72.869 168.305 73.0668 168.305 73.2922C168.305 73.5131 168.374 73.7086 168.512 73.8788C168.654 74.0491 168.844 74.1848 169.083 74.286C169.326 74.3826 169.594 74.4309 169.888 74.4309Z" fill="#1E1E1E"/>
<path d="M174.647 75.1141V70.0073H175.5V75.1141H174.647Z" fill="#1E1E1E"/>
<path d="M178.438 75.1141V71.4772H179.284V75.1141H178.438ZM178.851 70.6353C178.681 70.6353 178.548 70.5939 178.452 70.5111C178.36 70.4237 178.314 70.3017 178.314 70.1453C178.314 69.9981 178.362 69.8785 178.459 69.7865C178.555 69.6944 178.686 69.6484 178.851 69.6484C179.025 69.6484 179.158 69.6921 179.25 69.7796C179.346 69.8624 179.395 69.9843 179.395 70.1453C179.395 70.2879 179.346 70.4053 179.25 70.4973C179.154 70.5893 179.021 70.6353 178.851 70.6353Z" fill="#1E1E1E"/>
<path d="M183.961 75.1831C183.52 75.1831 183.126 75.1003 182.777 74.9347C182.433 74.7691 182.16 74.5436 181.958 74.2584C181.761 73.9731 181.663 73.6511 181.663 73.2922C181.663 72.9288 181.761 72.6067 181.958 72.3261C182.16 72.0408 182.433 71.8154 182.777 71.6498C183.121 71.4841 183.506 71.4013 183.933 71.4013C184.36 71.4013 184.752 71.4611 185.11 71.5808C185.472 71.6958 185.765 71.8614 185.99 72.0776L185.515 72.7401C185.396 72.6297 185.249 72.5308 185.075 72.4434C184.905 72.356 184.724 72.287 184.532 72.2364C184.344 72.1812 184.155 72.1535 183.967 72.1535C183.683 72.1535 183.433 72.2042 183.217 72.3054C183.006 72.402 182.841 72.5354 182.722 72.7056C182.607 72.8759 182.55 73.0714 182.55 73.2922C182.55 73.5131 182.612 73.7086 182.736 73.8788C182.86 74.0491 183.029 74.1848 183.245 74.286C183.461 74.3826 183.701 74.4309 183.967 74.4309C184.211 74.4309 184.426 74.4079 184.614 74.3619C184.807 74.3113 184.977 74.2515 185.123 74.1825C185.275 74.1089 185.41 74.0399 185.529 73.9754L185.99 74.6173C185.729 74.7691 185.431 74.9025 185.096 75.0175C184.766 75.1279 184.387 75.1831 183.961 75.1831Z" fill="#1E1E1E"/>
<path d="M188.362 75.1141V71.4772H189.208V75.1141H188.362ZM188.775 70.6353C188.605 70.6353 188.472 70.5939 188.376 70.5111C188.284 70.4237 188.238 70.3017 188.238 70.1453C188.238 69.9981 188.286 69.8785 188.383 69.7865C188.479 69.6944 188.61 69.6484 188.775 69.6484C188.949 69.6484 189.082 69.6921 189.174 69.7796C189.27 69.8624 189.318 69.9843 189.318 70.1453C189.318 70.2879 189.27 70.4053 189.174 70.4973C189.078 70.5893 188.945 70.6353 188.775 70.6353Z" fill="#1E1E1E"/>
<path d="M193.988 75.1831C193.502 75.1831 193.07 75.1026 192.694 74.9416C192.318 74.7806 192.025 74.5597 191.814 74.2791C191.607 73.9984 191.504 73.681 191.504 73.3267C191.504 73.0231 191.566 72.7539 191.69 72.5193C191.818 72.2801 191.992 72.0776 192.213 71.912C192.437 71.7464 192.694 71.6199 192.983 71.5324C193.277 71.4404 193.584 71.3944 193.905 71.3944C194.212 71.3944 194.501 71.4381 194.772 71.5255C195.043 71.613 195.279 71.7372 195.481 71.8982C195.687 72.0546 195.845 72.2433 195.955 72.4641C196.07 72.6803 196.125 72.9219 196.121 73.1887L196.114 73.5476H192.213L192.054 72.9403H195.405L195.295 73.0231V72.8713C195.272 72.724 195.192 72.5952 195.054 72.4848C194.921 72.3744 194.754 72.2893 194.552 72.2295C194.35 72.165 194.134 72.1328 193.905 72.1328C193.616 72.1328 193.35 72.1697 193.107 72.2433C192.869 72.3169 192.678 72.4365 192.536 72.6021C192.394 72.7677 192.323 72.9886 192.323 73.2646C192.323 73.4947 192.398 73.6971 192.55 73.8719C192.706 74.0468 192.919 74.1848 193.19 74.286C193.465 74.3826 193.784 74.4309 194.146 74.4309C194.508 74.4309 194.806 74.3872 195.04 74.2998C195.274 74.2078 195.458 74.1227 195.591 74.0445L195.962 74.6449C195.811 74.7415 195.63 74.8312 195.419 74.914C195.212 74.9968 194.985 75.0635 194.738 75.1141C194.495 75.1601 194.245 75.1831 193.988 75.1831Z" fill="#1E1E1E"/>
<path d="M200.033 75.1831C199.593 75.1831 199.189 75.1302 198.822 75.0244C198.46 74.914 198.159 74.7346 197.921 74.4861L198.471 73.9754C198.65 74.1411 198.868 74.2722 199.125 74.3688C199.386 74.4654 199.678 74.5137 199.999 74.5137C200.109 74.5137 200.224 74.5091 200.343 74.4999C200.462 74.4861 200.574 74.4654 200.68 74.4378C200.79 74.4056 200.877 74.3642 200.941 74.3136C201.006 74.2584 201.038 74.1894 201.038 74.1066C201.038 73.9731 200.925 73.8765 200.701 73.8167C200.572 73.7799 200.43 73.7477 200.274 73.7201C200.123 73.6925 199.967 73.6695 199.806 73.6511C199.513 73.6005 199.247 73.5476 199.008 73.4924C198.774 73.4372 198.577 73.3566 198.416 73.2508C198.292 73.168 198.194 73.0645 198.12 72.9403C198.052 72.8115 198.017 72.6596 198.017 72.4848C198.017 72.3146 198.065 72.1627 198.162 72.0293C198.263 71.8959 198.398 71.7832 198.568 71.6912C198.742 71.5946 198.944 71.5232 199.173 71.4772C199.402 71.4266 199.648 71.4013 199.909 71.4013C200.134 71.4013 200.366 71.422 200.604 71.4634C200.847 71.5002 201.079 71.5601 201.299 71.6429C201.524 71.7257 201.714 71.8361 201.87 71.9741L201.437 72.5331C201.308 72.4457 201.157 72.3675 200.983 72.2985C200.808 72.2249 200.625 72.1674 200.432 72.1259C200.24 72.0799 200.049 72.0569 199.861 72.0569C199.756 72.0569 199.643 72.0638 199.524 72.0776C199.409 72.0868 199.299 72.1052 199.194 72.1328C199.093 72.1604 199.01 72.1996 198.946 72.2502C198.882 72.3008 198.85 72.3652 198.85 72.4434C198.85 72.4894 198.866 72.5331 198.898 72.5745C198.93 72.6113 198.971 72.6458 199.022 72.678C199.127 72.7424 199.269 72.7931 199.448 72.8299C199.632 72.8667 199.831 72.9035 200.047 72.9403C200.345 72.9817 200.618 73.0346 200.866 73.099C201.118 73.1634 201.327 73.2462 201.492 73.3474C201.62 73.4257 201.719 73.5177 201.788 73.6235C201.856 73.7247 201.891 73.8466 201.891 73.9892C201.891 74.2469 201.808 74.4631 201.643 74.638C201.483 74.8128 201.262 74.9485 200.983 75.0451C200.703 75.1371 200.386 75.1831 200.033 75.1831Z" fill="#1E1E1E"/>
</g>
</g>
</svg>
