<svg xmlns="http://www.w3.org/2000/svg" width="159" height="60" viewBox="0 0 159 60" fill="none">
  <path d="M12.6856 6.86218C16.7907 6.86218 20.0204 7.84316 22.3748 9.80514C24.7291 11.7671 25.9063 14.4686 25.9063 17.9096C25.9063 21.3506 24.7291 24.0521 22.3748 26.0141C20.0204 27.976 16.7907 28.957 12.6856 28.957H4.85283V38.5556H0.325195V6.86218H12.6856ZM12.5498 25.018C15.4173 25.018 17.6057 24.4143 19.1149 23.2069C20.6241 21.9694 21.3787 20.2036 21.3787 17.9096C21.3787 15.6156 20.6241 13.8649 19.1149 12.6575C17.6057 11.42 15.4173 10.8012 12.5498 10.8012H4.85283V25.018H12.5498Z" fill="#FD3C3C"/>
  <path d="M42.1135 38.8272C39.7289 38.8272 37.5858 38.299 35.6842 37.2426C33.7826 36.1861 32.2885 34.7373 31.2019 32.8961C30.1454 31.0246 29.6172 28.9117 29.6172 26.5574C29.6172 24.203 30.1454 22.1052 31.2019 20.264C32.2885 18.3925 33.7826 16.9437 35.6842 15.9174C37.5858 14.861 39.7289 14.3328 42.1135 14.3328C44.498 14.3328 46.626 14.861 48.4974 15.9174C50.399 16.9437 51.878 18.3925 52.9345 20.264C54.0211 22.1052 54.5644 24.203 54.5644 26.5574C54.5644 28.9117 54.0211 31.0246 52.9345 32.8961C51.878 34.7373 50.399 36.1861 48.4974 37.2426C46.626 38.299 44.498 38.8272 42.1135 38.8272ZM42.1135 35.024C43.6529 35.024 45.0262 34.6769 46.2336 33.9827C47.4712 33.2583 48.437 32.2622 49.1313 30.9944C49.8255 29.6965 50.1726 28.2175 50.1726 26.5574C50.1726 24.8972 49.8255 23.4333 49.1313 22.1656C48.437 20.8676 47.4712 19.8716 46.2336 19.1773C45.0262 18.4831 43.6529 18.136 42.1135 18.136C40.5741 18.136 39.1856 18.4831 37.948 19.1773C36.7407 19.8716 35.7748 20.8676 35.0504 22.1656C34.3561 23.4333 34.009 24.8972 34.009 26.5574C34.009 28.2175 34.3561 29.6965 35.0504 30.9944C35.7748 32.2622 36.7407 33.2583 37.948 33.9827C39.1856 34.6769 40.5741 35.024 42.1135 35.024Z" fill="#FD3C3C"/>
  <path d="M67.8651 38.8272C65.5409 38.8272 63.7449 38.1934 62.4772 36.9256C61.2094 35.6277 60.5756 33.8167 60.5756 31.4925V4.96057H64.9221V31.1303C64.9221 32.4282 65.2239 33.4243 65.8276 34.1185C66.4615 34.8127 67.3972 35.1599 68.6348 35.1599C69.3894 35.1599 70.0987 35.0089 70.7627 34.7071L70.9891 38.2839C69.993 38.6461 68.9517 38.8272 67.8651 38.8272Z" fill="#FD3C3C"/>
  <path d="M75.1224 14.5591H79.4689V38.5556H75.1224V14.5591Z" fill="#FD3C3C"/>
  <path d="M94.6499 38.8272C92.6879 38.8272 90.8014 38.5707 88.9903 38.0576C87.1793 37.5142 85.7606 36.8351 84.7344 36.0201L86.5454 32.5791C87.6019 33.3337 88.8847 33.9374 90.3939 34.3902C91.9031 34.8429 93.4274 35.0693 94.9668 35.0693C98.77 35.0693 100.672 33.9827 100.672 31.8094C100.672 31.085 100.415 30.5115 99.9019 30.0889C99.3888 29.6663 98.7398 29.3645 97.9551 29.1834C97.2005 28.9721 96.1138 28.7457 94.6952 28.5042C92.7634 28.2024 91.1787 27.8553 89.9412 27.4629C88.7338 27.0705 87.6924 26.4064 86.8171 25.4707C85.9417 24.535 85.5041 23.222 85.5041 21.5317C85.5041 19.3584 86.4096 17.6228 88.2207 16.3249C90.0317 14.9968 92.4615 14.3328 95.5101 14.3328C97.1099 14.3328 98.7097 14.529 100.309 14.9214C101.909 15.3138 103.222 15.842 104.248 16.506L102.392 19.947C100.43 18.6793 98.1211 18.0454 95.4649 18.0454C93.6236 18.0454 92.2201 18.3473 91.2542 18.9509C90.2883 19.5546 89.8053 20.3545 89.8053 21.3506C89.8053 22.1354 90.077 22.7542 90.6203 23.2069C91.1636 23.6597 91.8277 23.9917 92.6124 24.203C93.4274 24.4143 94.5593 24.6558 96.0082 24.9274C97.94 25.2594 99.4945 25.6217 100.672 26.0141C101.879 26.3763 102.905 27.0101 103.75 27.9157C104.596 28.8212 105.018 30.0889 105.018 31.7189C105.018 33.8921 104.082 35.6277 102.211 36.9256C100.37 38.1934 97.8494 38.8272 94.6499 38.8272Z" fill="#FD3C3C"/>
  <path d="M132.817 14.5591V35.2957C132.817 39.4913 131.836 42.5852 129.874 44.5773C127.912 46.5997 124.969 47.6109 121.045 47.6109C118.902 47.6109 116.849 47.2939 114.887 46.66C112.956 46.0564 111.371 45.181 110.133 44.034L112.261 40.6836C113.318 41.6495 114.585 42.4041 116.065 42.9474C117.574 43.4907 119.158 43.7624 120.819 43.7624C123.445 43.7624 125.376 43.0983 126.614 41.7702C127.851 40.4723 128.47 38.465 128.47 35.7485V33.9827C127.595 35.1297 126.463 36.0201 125.075 36.654C123.686 37.2577 122.177 37.5595 120.547 37.5595C117.347 37.5595 114.827 36.6842 112.986 34.9335C111.145 33.1828 110.224 30.587 110.224 27.146V14.5591H114.57V26.6479C114.57 28.9419 115.129 30.6926 116.246 31.9C117.362 33.0772 118.962 33.6658 121.045 33.6658C123.339 33.6658 125.15 32.9715 126.478 31.583C127.806 30.1946 128.47 28.2326 128.47 25.6971V14.5591H132.817Z" fill="#FD3C3C"/>
  <path d="M147.973 38.8272C146.011 38.8272 144.125 38.5707 142.314 38.0576C140.503 37.5142 139.084 36.8351 138.058 36.0201L139.869 32.5791C140.925 33.3337 142.208 33.9374 143.717 34.3902C145.227 34.8429 146.751 35.0693 148.29 35.0693C152.093 35.0693 153.995 33.9827 153.995 31.8094C153.995 31.085 153.739 30.5115 153.225 30.0889C152.712 29.6663 152.063 29.3645 151.279 29.1834C150.524 28.9721 149.437 28.7457 148.019 28.5042C146.087 28.2024 144.502 27.8553 143.265 27.4629C142.057 27.0705 141.016 26.4064 140.141 25.4707C139.265 24.535 138.828 23.222 138.828 21.5317C138.828 19.3584 139.733 17.6228 141.544 16.3249C143.355 14.9968 145.785 14.3328 148.834 14.3328C150.433 14.3328 152.033 14.529 153.633 14.9214C155.233 15.3138 156.546 15.842 157.572 16.506L155.716 19.947C153.754 18.6793 151.445 18.0454 148.788 18.0454C146.947 18.0454 145.544 18.3473 144.578 18.9509C143.612 19.5546 143.129 20.3545 143.129 21.3506C143.129 22.1354 143.4 22.7542 143.944 23.2069C144.487 23.6597 145.151 23.9917 145.936 24.203C146.751 24.4143 147.883 24.6558 149.332 24.9274C151.263 25.2594 152.818 25.6217 153.995 26.0141C155.202 26.3763 156.229 27.0101 157.074 27.9157C157.919 28.8212 158.342 30.0889 158.342 31.7189C158.342 33.8921 157.406 35.6277 155.535 36.9256C153.693 38.1934 151.173 38.8272 147.973 38.8272Z" fill="#FD3C3C"/>
  <path d="M77.2805 9.90417L75.1582 11.9254L76.0071 12.7339L77.2805 11.5212L78.5539 12.7339L79.4029 11.9254L77.2805 9.90417Z" fill="#FD3C3C"/>
  <path d="M77.2805 5.30579L72.6821 10.1063L74.5215 12.0265L77.2805 9.14618L80.0396 12.0265L81.879 10.1063L77.2805 5.30579Z" fill="#FD3C3C"/>
  <path d="M77.2806 0L71.6211 5.81109L73.8849 8.13559L77.2807 4.64889L80.6764 8.13559L82.9403 5.81109L77.2806 0Z" fill="#FD3C3C"/>
  <path d="M12.6856 6.86218C16.7907 6.86218 20.0204 7.84316 22.3748 9.80514C24.7291 11.7671 25.9063 14.4686 25.9063 17.9096C25.9063 21.3506 24.7291 24.0521 22.3748 26.0141C20.0204 27.976 16.7907 28.957 12.6856 28.957H4.85283V38.5556H0.325195V6.86218H12.6856ZM12.5498 25.018C15.4173 25.018 17.6057 24.4143 19.1149 23.2069C20.6241 21.9694 21.3787 20.2036 21.3787 17.9096C21.3787 15.6156 20.6241 13.8649 19.1149 12.6575C17.6057 11.42 15.4173 10.8012 12.5498 10.8012H4.85283V25.018H12.5498Z" fill="#FD3C3C"/>
  <path d="M42.1135 38.8272C39.7289 38.8272 37.5858 38.299 35.6842 37.2426C33.7826 36.1861 32.2885 34.7373 31.2019 32.8961C30.1454 31.0246 29.6172 28.9117 29.6172 26.5574C29.6172 24.203 30.1454 22.1052 31.2019 20.264C32.2885 18.3925 33.7826 16.9437 35.6842 15.9174C37.5858 14.861 39.7289 14.3328 42.1135 14.3328C44.498 14.3328 46.626 14.861 48.4974 15.9174C50.399 16.9437 51.878 18.3925 52.9345 20.264C54.0211 22.1052 54.5644 24.203 54.5644 26.5574C54.5644 28.9117 54.0211 31.0246 52.9345 32.8961C51.878 34.7373 50.399 36.1861 48.4974 37.2426C46.626 38.299 44.498 38.8272 42.1135 38.8272ZM42.1135 35.024C43.6529 35.024 45.0262 34.6769 46.2336 33.9827C47.4712 33.2583 48.437 32.2622 49.1313 30.9944C49.8255 29.6965 50.1726 28.2175 50.1726 26.5574C50.1726 24.8972 49.8255 23.4333 49.1313 22.1656C48.437 20.8676 47.4712 19.8716 46.2336 19.1773C45.0262 18.4831 43.6529 18.136 42.1135 18.136C40.5741 18.136 39.1856 18.4831 37.948 19.1773C36.7407 19.8716 35.7748 20.8676 35.0504 22.1656C34.3561 23.4333 34.009 24.8972 34.009 26.5574C34.009 28.2175 34.3561 29.6965 35.0504 30.9944C35.7748 32.2622 36.7407 33.2583 37.948 33.9827C39.1856 34.6769 40.5741 35.024 42.1135 35.024Z" fill="#FD3C3C"/>
  <path d="M67.8651 38.8272C65.5409 38.8272 63.7449 38.1934 62.4772 36.9256C61.2094 35.6277 60.5756 33.8167 60.5756 31.4925V4.96057H64.9221V31.1303C64.9221 32.4282 65.2239 33.4243 65.8276 34.1185C66.4615 34.8127 67.3972 35.1599 68.6348 35.1599C69.3894 35.1599 70.0987 35.0089 70.7627 34.7071L70.9891 38.2839C69.993 38.6461 68.9517 38.8272 67.8651 38.8272Z" fill="#FD3C3C"/>
  <path d="M75.1224 14.5591H79.4689V38.5556H75.1224V14.5591Z" fill="#FD3C3C"/>
  <path d="M94.6499 38.8272C92.6879 38.8272 90.8014 38.5707 88.9903 38.0576C87.1793 37.5142 85.7606 36.8351 84.7344 36.0201L86.5454 32.5791C87.6019 33.3337 88.8847 33.9374 90.3939 34.3902C91.9031 34.8429 93.4274 35.0693 94.9668 35.0693C98.77 35.0693 100.672 33.9827 100.672 31.8094C100.672 31.085 100.415 30.5115 99.9019 30.0889C99.3888 29.6663 98.7398 29.3645 97.9551 29.1834C97.2005 28.9721 96.1138 28.7457 94.6952 28.5042C92.7634 28.2024 91.1787 27.8553 89.9412 27.4629C88.7338 27.0705 87.6924 26.4064 86.8171 25.4707C85.9417 24.535 85.5041 23.222 85.5041 21.5317C85.5041 19.3584 86.4096 17.6228 88.2207 16.3249C90.0317 14.9968 92.4615 14.3328 95.5101 14.3328C97.1099 14.3328 98.7097 14.529 100.309 14.9214C101.909 15.3138 103.222 15.842 104.248 16.506L102.392 19.947C100.43 18.6793 98.1211 18.0454 95.4649 18.0454C93.6236 18.0454 92.2201 18.3473 91.2542 18.9509C90.2883 19.5546 89.8053 20.3545 89.8053 21.3506C89.8053 22.1354 90.077 22.7542 90.6203 23.2069C91.1636 23.6597 91.8277 23.9917 92.6124 24.203C93.4274 24.4143 94.5593 24.6558 96.0082 24.9274C97.94 25.2594 99.4945 25.6217 100.672 26.0141C101.879 26.3763 102.905 27.0101 103.75 27.9157C104.596 28.8212 105.018 30.0889 105.018 31.7189C105.018 33.8921 104.082 35.6277 102.211 36.9256C100.37 38.1934 97.8494 38.8272 94.6499 38.8272Z" fill="#FD3C3C"/>
  <path d="M132.817 14.5591V35.2957C132.817 39.4913 131.836 42.5852 129.874 44.5773C127.912 46.5997 124.969 47.6109 121.045 47.6109C118.902 47.6109 116.849 47.2939 114.887 46.66C112.956 46.0564 111.371 45.181 110.133 44.034L112.261 40.6836C113.318 41.6495 114.585 42.4041 116.065 42.9474C117.574 43.4907 119.158 43.7624 120.819 43.7624C123.445 43.7624 125.376 43.0983 126.614 41.7702C127.851 40.4723 128.47 38.465 128.47 35.7485V33.9827C127.595 35.1297 126.463 36.0201 125.075 36.654C123.686 37.2577 122.177 37.5595 120.547 37.5595C117.347 37.5595 114.827 36.6842 112.986 34.9335C111.145 33.1828 110.224 30.587 110.224 27.146V14.5591H114.57V26.6479C114.57 28.9419 115.129 30.6926 116.246 31.9C117.362 33.0772 118.962 33.6658 121.045 33.6658C123.339 33.6658 125.15 32.9715 126.478 31.583C127.806 30.1946 128.47 28.2326 128.47 25.6971V14.5591H132.817Z" fill="#FD3C3C"/>
  <path d="M147.973 38.8272C146.011 38.8272 144.125 38.5707 142.314 38.0576C140.503 37.5142 139.084 36.8351 138.058 36.0201L139.869 32.5791C140.925 33.3337 142.208 33.9374 143.717 34.3902C145.227 34.8429 146.751 35.0693 148.29 35.0693C152.093 35.0693 153.995 33.9827 153.995 31.8094C153.995 31.085 153.739 30.5115 153.225 30.0889C152.712 29.6663 152.063 29.3645 151.279 29.1834C150.524 28.9721 149.437 28.7457 148.019 28.5042C146.087 28.2024 144.502 27.8553 143.265 27.4629C142.057 27.0705 141.016 26.4064 140.141 25.4707C139.265 24.535 138.828 23.222 138.828 21.5317C138.828 19.3584 139.733 17.6228 141.544 16.3249C143.355 14.9968 145.785 14.3328 148.834 14.3328C150.433 14.3328 152.033 14.529 153.633 14.9214C155.233 15.3138 156.546 15.842 157.572 16.506L155.716 19.947C153.754 18.6793 151.445 18.0454 148.788 18.0454C146.947 18.0454 145.544 18.3473 144.578 18.9509C143.612 19.5546 143.129 20.3545 143.129 21.3506C143.129 22.1354 143.4 22.7542 143.944 23.2069C144.487 23.6597 145.151 23.9917 145.936 24.203C146.751 24.4143 147.883 24.6558 149.332 24.9274C151.263 25.2594 152.818 25.6217 153.995 26.0141C155.202 26.3763 156.229 27.0101 157.074 27.9157C157.919 28.8212 158.342 30.0889 158.342 31.7189C158.342 33.8921 157.406 35.6277 155.535 36.9256C153.693 38.1934 151.173 38.8272 147.973 38.8272Z" fill="#FD3C3C"/>
  <path d="M77.2805 9.90417L75.1582 11.9254L76.0071 12.7339L77.2805 11.5212L78.5539 12.7339L79.4029 11.9254L77.2805 9.90417Z" fill="#FD3C3C"/>
  <path d="M77.2805 5.30579L72.6821 10.1063L74.5215 12.0265L77.2805 9.14618L80.0396 12.0265L81.879 10.1063L77.2805 5.30579Z" fill="#FD3C3C"/>
  <path d="M77.2806 0L71.6211 5.81109L73.8849 8.13559L77.2807 4.64889L80.6764 8.13559L82.9403 5.81109L77.2806 0Z" fill="#FD3C3C"/>
  <path d="M2.58032 58.8124C2.27174 58.8124 1.9811 58.771 1.70841 58.6882C1.4393 58.6054 1.20069 58.4831 0.992582 58.3211C0.784472 58.1591 0.621214 57.9576 0.502806 57.7165C0.384399 57.4717 0.325195 57.1874 0.325195 56.8635C0.325195 56.59 0.384399 56.3363 0.502806 56.1023C0.624802 55.8648 0.791649 55.6597 1.00335 55.4869C1.21863 55.3106 1.4698 55.1738 1.75685 55.0766C2.0439 54.9794 2.35247 54.9309 2.68258 54.9309C2.95886 54.9309 3.21362 54.9615 3.44685 55.0226C3.68366 55.0838 3.88998 55.163 4.06579 55.2602C4.2452 55.3573 4.38693 55.4599 4.49098 55.5679L4.04965 56.0645C3.92765 55.971 3.79489 55.89 3.65137 55.8216C3.51143 55.7496 3.35894 55.692 3.19388 55.6489C3.03242 55.6057 2.86019 55.5841 2.6772 55.5841C2.45115 55.5841 2.23945 55.6165 2.0421 55.6812C1.84835 55.746 1.67791 55.836 1.5308 55.9512C1.38727 56.0663 1.27425 56.2013 1.19172 56.3561C1.1092 56.5108 1.06793 56.68 1.06793 56.8635C1.06793 57.0939 1.11099 57.2918 1.1971 57.4573C1.28322 57.6193 1.39983 57.7525 1.54694 57.8568C1.69764 57.9612 1.86808 58.0386 2.05825 58.089C2.24842 58.1358 2.44397 58.1591 2.6449 58.1591C2.8566 58.1591 3.05215 58.1394 3.23156 58.0998C3.41455 58.0602 3.57243 58.0044 3.70519 57.9324C3.84154 57.8604 3.94559 57.7759 4.01735 57.6787C4.0927 57.5779 4.12679 57.4681 4.11961 57.3494L4.11423 57.2684L4.21649 57.425H2.6449V56.8095H4.83544C4.84262 56.8635 4.848 56.9121 4.85159 56.9553C4.85518 56.9985 4.85697 57.0345 4.85697 57.0633C4.85697 57.0885 4.85697 57.1082 4.85697 57.1226C4.85697 57.407 4.80135 57.6553 4.69012 57.8676C4.58248 58.08 4.4264 58.2563 4.22188 58.3967C4.02094 58.5334 3.78054 58.6378 3.50067 58.7098C3.22438 58.7782 2.9176 58.8124 2.58032 58.8124Z" fill="white"/>
  <path d="M6.65953 58.7584V55.9134H7.31077L7.32153 56.9607L7.12239 56.9391C7.18339 56.7376 7.28027 56.5558 7.41303 56.3938C7.54579 56.2283 7.70187 56.0969 7.88128 55.9998C8.06068 55.9026 8.24726 55.854 8.44102 55.854C8.57378 55.854 8.70295 55.8684 8.82854 55.8972C8.95412 55.926 9.05638 55.9656 9.13532 56.016L8.95771 56.7124C8.87877 56.662 8.7783 56.6224 8.65631 56.5936C8.53431 56.5648 8.41949 56.5504 8.31185 56.5504C8.15756 56.5504 8.01942 56.5756 7.89742 56.626C7.77543 56.6764 7.67137 56.7429 7.58526 56.8257C7.50273 56.9085 7.43815 57.0003 7.3915 57.101C7.34844 57.1982 7.32692 57.299 7.32692 57.4034V58.7584H6.65953Z" fill="white"/>
  <path d="M12.2701 58.8124C11.8969 58.8124 11.565 58.7494 11.2744 58.6234C10.9873 58.4975 10.7631 58.3229 10.6016 58.0998C10.4402 57.873 10.3594 57.6175 10.3594 57.3332C10.3594 57.0453 10.4402 56.7897 10.6016 56.5666C10.7631 56.3435 10.9873 56.1689 11.2744 56.0429C11.565 55.917 11.8969 55.854 12.2701 55.854C12.6433 55.854 12.9716 55.917 13.255 56.0429C13.5421 56.1689 13.7663 56.3435 13.9278 56.5666C14.0893 56.7897 14.17 57.0453 14.17 57.3332C14.17 57.6175 14.0893 57.873 13.9278 58.0998C13.7663 58.3229 13.5421 58.4975 13.255 58.6234C12.9716 58.7494 12.6433 58.8124 12.2701 58.8124ZM12.2701 58.2239C12.4997 58.2239 12.7078 58.1861 12.8944 58.1106C13.081 58.0314 13.2299 57.9252 13.3411 57.7921C13.4524 57.6589 13.5044 57.5059 13.4972 57.3332C13.5044 57.1568 13.4524 57.0021 13.3411 56.8689C13.2299 56.7358 13.081 56.6314 12.8944 56.5558C12.7078 56.4802 12.4997 56.4424 12.2701 56.4424C12.0404 56.4424 11.8305 56.4802 11.6404 56.5558C11.4538 56.6314 11.3049 56.7358 11.1937 56.8689C11.086 57.0021 11.0322 57.1568 11.0322 57.3332C11.0322 57.5059 11.086 57.6589 11.1937 57.7921C11.3049 57.9252 11.4538 58.0314 11.6404 58.1106C11.8305 58.1861 12.0404 58.2239 12.2701 58.2239Z" fill="white"/>
  <path d="M16.2811 58.7584L15.237 55.9134L15.9582 55.908L16.6256 58.035L16.5071 58.0242L17.3252 56.3291H17.8473L18.6923 58.0296L18.5954 58.0404L19.3651 55.9134H20.054L18.9184 58.7584H18.434L17.4113 56.6476L17.8096 56.599L16.7655 58.7584H16.2811Z" fill="white"/>
  <path d="M22.284 58.7584V55.028H22.946V58.7584H22.284ZM21.4013 56.5288V55.9134H23.9955V56.5288H21.4013Z" fill="white"/>
  <path d="M25.9649 58.7584V54.7635H26.6215V56.7124L26.4008 56.7447C26.4439 56.6008 26.5336 56.4604 26.6699 56.3237C26.8063 56.1869 26.9767 56.0753 27.1812 55.989C27.3857 55.899 27.6082 55.854 27.8486 55.854C28.1357 55.854 28.3743 55.9098 28.5644 56.0214C28.7582 56.1329 28.9035 56.2823 29.0004 56.4694C29.0973 56.653 29.1457 56.8545 29.1457 57.0741V58.7584H28.4837V57.2144C28.4837 57.0597 28.4442 56.9247 28.3653 56.8095C28.2864 56.6908 28.1823 56.599 28.0531 56.5342C27.924 56.4658 27.7786 56.4316 27.6172 56.4316C27.4736 56.4316 27.3409 56.4586 27.2189 56.5126C27.0969 56.5666 26.9911 56.635 26.9013 56.7178C26.8152 56.8005 26.7471 56.8923 26.6968 56.9931C26.6502 57.0903 26.6269 57.1874 26.6269 57.2846V58.7584H26.2985C26.1873 58.7584 26.103 58.7584 26.0456 58.7584C25.9918 58.7584 25.9649 58.7584 25.9649 58.7584Z" fill="white"/>
  <path d="M33.9439 58.7584V54.9794H37.1625V55.6165H34.6329V58.1214H37.184V58.7584H33.9439ZM34.3207 57.1388V56.5126H36.888V57.1388H34.3207Z" fill="white"/>
  <path d="M39.1732 58.7584V55.9134H39.8191L39.8298 56.7124L39.6092 56.7394C39.6845 56.5954 39.7868 56.4568 39.9159 56.3237C40.0451 56.1869 40.2012 56.0753 40.3842 55.989C40.5708 55.899 40.7807 55.854 41.0139 55.854C41.3081 55.854 41.5539 55.9098 41.7513 56.0214C41.9522 56.1293 42.1029 56.2769 42.2034 56.464C42.3038 56.6476 42.3541 56.8527 42.3541 57.0795V58.7584H41.6921V57.209C41.6921 57.0579 41.6526 56.9247 41.5737 56.8095C41.4947 56.6944 41.3907 56.6062 41.2615 56.545C41.1323 56.4802 40.987 56.4478 40.8255 56.4478C40.6784 56.4478 40.5439 56.4748 40.4219 56.5288C40.2999 56.5792 40.194 56.6458 40.1043 56.7286C40.0182 56.8113 39.9518 56.9013 39.9052 56.9985C39.8585 57.0921 39.8352 57.1838 39.8352 57.2738V58.7584H39.5069C39.3957 58.7584 39.3114 58.7584 39.2539 58.7584C39.2001 58.7584 39.1732 58.7584 39.1732 58.7584Z" fill="white"/>
  <path d="M46.2157 60C45.8784 60 45.5878 59.964 45.3438 59.8921C45.1034 59.8237 44.9096 59.7427 44.7625 59.6491L44.9885 59.1255C45.0711 59.1615 45.1679 59.2029 45.2792 59.2496C45.394 59.2964 45.525 59.336 45.6721 59.3684C45.8228 59.4044 45.9914 59.4224 46.178 59.4224C46.3825 59.4224 46.5619 59.3828 46.7162 59.3036C46.8705 59.2244 46.9907 59.1075 47.0768 58.9527C47.1665 58.8016 47.2114 58.6162 47.2114 58.3967V58.089L47.3083 58.1268C47.2831 58.2275 47.1988 58.3301 47.0553 58.4345C46.9154 58.5352 46.7377 58.6198 46.5225 58.6882C46.3072 58.753 46.0757 58.7854 45.8282 58.7854C45.5052 58.7854 45.2218 58.7242 44.9778 58.6018C44.7374 58.4759 44.549 58.3031 44.4127 58.0836C44.2763 57.864 44.2081 57.6121 44.2081 57.3278C44.2081 57.0399 44.2799 56.7861 44.4234 56.5666C44.5705 56.3435 44.7715 56.1689 45.0262 56.0429C45.2846 55.917 45.5806 55.854 45.9143 55.854C45.9968 55.854 46.0991 55.8648 46.2211 55.8864C46.3431 55.9044 46.4686 55.9332 46.5978 55.9728C46.727 56.0124 46.849 56.0609 46.9638 56.1185C47.0822 56.1725 47.1773 56.2337 47.249 56.3021C47.3208 56.3705 47.3567 56.446 47.3567 56.5288L47.2168 56.572L47.2275 55.9134H47.8788V58.3481C47.8788 58.6288 47.8321 58.8717 47.7388 59.0769C47.6455 59.2856 47.52 59.4584 47.3621 59.5951C47.2042 59.7319 47.0266 59.8327 46.8292 59.8975C46.6319 59.9658 46.4274 60 46.2157 60ZM46.0919 58.2185C46.3215 58.2185 46.5207 58.1807 46.6893 58.1052C46.8615 58.0296 46.9943 57.9252 47.0876 57.7921C47.1845 57.6553 47.2329 57.5023 47.2329 57.3332C47.2329 57.1568 47.1845 57.0021 47.0876 56.8689C46.9943 56.7358 46.8615 56.6314 46.6893 56.5558C46.5207 56.4766 46.3215 56.437 46.0919 56.437C45.8551 56.437 45.6452 56.4766 45.4622 56.5558C45.2792 56.6314 45.1357 56.7376 45.0316 56.8743C44.9275 57.0075 44.8755 57.1604 44.8755 57.3332C44.8755 57.4987 44.9275 57.6499 45.0316 57.7867C45.1357 57.9198 45.2792 58.026 45.4622 58.1052C45.6452 58.1807 45.8551 58.2185 46.0919 58.2185Z" fill="white"/>
  <path d="M50.1165 58.7584V55.9134H50.7785V58.7584H50.1165ZM50.4394 55.2548C50.3066 55.2548 50.2026 55.2224 50.1272 55.1576C50.0555 55.0892 50.0196 54.9938 50.0196 54.8715C50.0196 54.7563 50.0573 54.6627 50.1326 54.5908C50.208 54.5188 50.3102 54.4828 50.4394 54.4828C50.5758 54.4828 50.6798 54.517 50.7516 54.5854C50.8269 54.6501 50.8646 54.7455 50.8646 54.8715C50.8646 54.983 50.8269 55.0748 50.7516 55.1468C50.6762 55.2188 50.5722 55.2548 50.4394 55.2548Z" fill="white"/>
  <path d="M53.1016 58.7584V55.9134H53.7475L53.7583 56.7124L53.5376 56.7394C53.6129 56.5954 53.7152 56.4568 53.8444 56.3237C53.9735 56.1869 54.1296 56.0753 54.3126 55.989C54.4992 55.899 54.7091 55.854 54.9423 55.854C55.2366 55.854 55.4823 55.9098 55.6797 56.0214C55.8806 56.1293 56.0313 56.2769 56.1318 56.464C56.2323 56.6476 56.2825 56.8527 56.2825 57.0795V58.7584H55.6205V57.209C55.6205 57.0579 55.581 56.9247 55.5021 56.8095C55.4231 56.6944 55.3191 56.6062 55.1899 56.545C55.0607 56.4802 54.9154 56.4478 54.754 56.4478C54.6068 56.4478 54.4723 56.4748 54.3503 56.5288C54.2283 56.5792 54.1225 56.6458 54.0327 56.7286C53.9466 56.8113 53.8803 56.9013 53.8336 56.9985C53.787 57.0921 53.7636 57.1838 53.7636 57.2738V58.7584H53.4353C53.3241 58.7584 53.2398 58.7584 53.1824 58.7584C53.1285 58.7584 53.1016 58.7584 53.1016 58.7584Z" fill="white"/>
  <path d="M60.0149 58.8124C59.6346 58.8124 59.2973 58.7494 59.0031 58.6234C58.7089 58.4975 58.4792 58.3247 58.3142 58.1052C58.1527 57.8856 58.072 57.6373 58.072 57.3602C58.072 57.1226 58.1204 56.9121 58.2173 56.7286C58.3178 56.5414 58.4541 56.3831 58.6263 56.2535C58.8022 56.1239 59.0031 56.025 59.2291 55.9566C59.4588 55.8846 59.6992 55.8486 59.9503 55.8486C60.1907 55.8486 60.4168 55.8828 60.6285 55.9512C60.8402 56.0196 61.025 56.1167 61.1829 56.2427C61.3443 56.3651 61.4681 56.5126 61.5542 56.6854C61.6439 56.8545 61.687 57.0435 61.6834 57.2522L61.678 57.5329H58.6263L58.5025 57.0579H61.1237L61.0375 57.1226V57.0039C61.0196 56.8887 60.9568 56.7879 60.8492 56.7016C60.7451 56.6152 60.6141 56.5486 60.4563 56.5018C60.2984 56.4514 60.1297 56.4262 59.9503 56.4262C59.7243 56.4262 59.5162 56.455 59.326 56.5126C59.1394 56.5702 58.9905 56.6638 58.8793 56.7933C58.7681 56.9229 58.7124 57.0957 58.7124 57.3116C58.7124 57.4915 58.7717 57.6499 58.8901 57.7867C59.0121 57.9234 59.1789 58.0314 59.3906 58.1106C59.6059 58.1861 59.8553 58.2239 60.1387 58.2239C60.4222 58.2239 60.6554 58.1897 60.8384 58.1214C61.0214 58.0494 61.1649 57.9828 61.269 57.9216L61.5596 58.3913C61.4412 58.4669 61.2995 58.537 61.1344 58.6018C60.9729 58.6666 60.7953 58.7188 60.6016 58.7584C60.4114 58.7944 60.2159 58.8124 60.0149 58.8124Z" fill="white"/>
  <path d="M66.0897 58.7584V54.9794H66.7894V58.7584H66.0897ZM66.348 57.263V56.626H69.0014V57.263H66.348ZM66.4234 55.6273V54.9794H69.2329V55.6273H66.4234Z" fill="white"/>
  <path d="M72.5197 58.8124C72.1466 58.8124 71.8147 58.7494 71.524 58.6234C71.237 58.4975 71.0127 58.3229 70.8513 58.0998C70.6898 57.873 70.6091 57.6175 70.6091 57.3332C70.6091 57.0453 70.6898 56.7897 70.8513 56.5666C71.0127 56.3435 71.237 56.1689 71.524 56.0429C71.8147 55.917 72.1466 55.854 72.5197 55.854C72.8929 55.854 73.2212 55.917 73.5047 56.0429C73.7917 56.1689 74.016 56.3435 74.1774 56.5666C74.3389 56.7897 74.4196 57.0453 74.4196 57.3332C74.4196 57.6175 74.3389 57.873 74.1774 58.0998C74.016 58.3229 73.7917 58.4975 73.5047 58.6234C73.2212 58.7494 72.8929 58.8124 72.5197 58.8124ZM72.5197 58.2239C72.7494 58.2239 72.9575 58.1861 73.1441 58.1106C73.3307 58.0314 73.4795 57.9252 73.5908 57.7921C73.702 57.6589 73.754 57.5059 73.7469 57.3332C73.754 57.1568 73.702 57.0021 73.5908 56.8689C73.4795 56.7358 73.3307 56.6314 73.1441 56.5558C72.9575 56.4802 72.7494 56.4424 72.5197 56.4424C72.2901 56.4424 72.0802 56.4802 71.89 56.5558C71.7034 56.6314 71.5545 56.7358 71.4433 56.8689C71.3357 57.0021 71.2818 57.1568 71.2818 57.3332C71.2818 57.5059 71.3357 57.6589 71.4433 57.7921C71.5545 57.9252 71.7034 58.0314 71.89 58.1106C72.0802 58.1861 72.2901 58.2239 72.5197 58.2239Z" fill="white"/>
  <path d="M76.2806 58.7584V55.9134H76.9319L76.9426 56.9607L76.7435 56.9391C76.8045 56.7376 76.9014 56.5558 77.0341 56.3938C77.1669 56.2283 77.323 56.0969 77.5024 55.9998C77.6818 55.9026 77.8684 55.854 78.0621 55.854C78.1949 55.854 78.3241 55.8684 78.4496 55.8972C78.5752 55.926 78.6775 55.9656 78.7564 56.016L78.5788 56.7124C78.4999 56.662 78.3994 56.6224 78.2774 56.5936C78.1554 56.5648 78.0406 56.5504 77.933 56.5504C77.7787 56.5504 77.6405 56.5756 77.5185 56.626C77.3965 56.6764 77.2925 56.7429 77.2064 56.8257C77.1238 56.9085 77.0593 57.0003 77.0126 57.101C76.9696 57.1982 76.948 57.299 76.948 57.4034V58.7584H76.2806Z" fill="white"/>
  <path d="M83.0456 58.7584V54.9794H85.2792C85.5124 54.9794 85.7241 55.0316 85.9143 55.136C86.108 55.2404 86.2623 55.3825 86.3771 55.5625C86.492 55.7424 86.5494 55.944 86.5494 56.1671C86.5494 56.4046 86.4866 56.6188 86.361 56.8095C86.2354 57.0003 86.0686 57.1514 85.8605 57.263C85.6523 57.3746 85.4227 57.4304 85.1715 57.4304H83.7453V58.7584H83.0456ZM83.7453 56.7825H85.08C85.2092 56.7825 85.3294 56.7555 85.4406 56.7016C85.5519 56.644 85.6398 56.5702 85.7044 56.4802C85.7725 56.3867 85.8066 56.2841 85.8066 56.1725C85.8066 56.0681 85.7725 55.9764 85.7044 55.8972C85.6398 55.8144 85.5519 55.7496 85.4406 55.7028C85.3294 55.6525 85.2092 55.6273 85.08 55.6273H83.7453V56.7825Z" fill="white"/>
  <path d="M89.8278 58.8124C89.4546 58.8124 89.1227 58.7494 88.8321 58.6234C88.545 58.4975 88.3208 58.3229 88.1593 58.0998C87.9978 57.873 87.9171 57.6175 87.9171 57.3332C87.9171 57.0453 87.9978 56.7897 88.1593 56.5666C88.3208 56.3435 88.545 56.1689 88.8321 56.0429C89.1227 55.917 89.4546 55.854 89.8278 55.854C90.2009 55.854 90.5293 55.917 90.8127 56.0429C91.0998 56.1689 91.324 56.3435 91.4855 56.5666C91.6469 56.7897 91.7277 57.0453 91.7277 57.3332C91.7277 57.6175 91.6469 57.873 91.4855 58.0998C91.324 58.3229 91.0998 58.4975 90.8127 58.6234C90.5293 58.7494 90.2009 58.8124 89.8278 58.8124ZM89.8278 58.2239C90.0574 58.2239 90.2655 58.1861 90.4521 58.1106C90.6387 58.0314 90.7876 57.9252 90.8988 57.7921C91.0101 57.6589 91.0621 57.5059 91.0549 57.3332C91.0621 57.1568 91.0101 57.0021 90.8988 56.8689C90.7876 56.7358 90.6387 56.6314 90.4521 56.5558C90.2655 56.4802 90.0574 56.4424 89.8278 56.4424C89.5981 56.4424 89.3882 56.4802 89.1981 56.5558C89.0115 56.6314 88.8626 56.7358 88.7513 56.8689C88.6437 57.0021 88.5899 57.1568 88.5899 57.3332C88.5899 57.5059 88.6437 57.6589 88.7513 57.7921C88.8626 57.9252 89.0115 58.0314 89.1981 58.1106C89.3882 58.1861 89.5981 58.2239 89.8278 58.2239Z" fill="white"/>
  <path d="M93.551 58.7584V54.7635H94.2184V58.7584H93.551Z" fill="white"/>
  <path d="M96.5165 58.7584V55.9134H97.1785V58.7584H96.5165ZM96.8395 55.2548C96.7067 55.2548 96.6026 55.2224 96.5273 55.1576C96.4555 55.0892 96.4196 54.9938 96.4196 54.8715C96.4196 54.7563 96.4573 54.6627 96.5327 54.5908C96.608 54.5188 96.7103 54.4828 96.8395 54.4828C96.9758 54.4828 97.0799 54.517 97.1516 54.5854C97.227 54.6501 97.2647 54.7455 97.2647 54.8715C97.2647 54.983 97.227 55.0748 97.1516 55.1468C97.0763 55.2188 96.9722 55.2548 96.8395 55.2548Z" fill="white"/>
  <path d="M99.8784 58.7584V55.028H100.54V58.7584H99.8784ZM98.9958 56.5288V55.9134H101.59V56.5288H98.9958Z" fill="white"/>
  <path d="M103.57 58.7584V55.9134H104.232V58.7584H103.57ZM103.893 55.2548C103.76 55.2548 103.656 55.2224 103.581 55.1576C103.509 55.0892 103.473 54.9938 103.473 54.8715C103.473 54.7563 103.511 54.6627 103.586 54.5908C103.662 54.5188 103.764 54.4828 103.893 54.4828C104.029 54.4828 104.133 54.517 104.205 54.5854C104.281 54.6501 104.318 54.7455 104.318 54.8715C104.318 54.983 104.281 55.0748 104.205 55.1468C104.13 55.2188 104.026 55.2548 103.893 55.2548Z" fill="white"/>
  <path d="M107.89 58.8124C107.546 58.8124 107.237 58.7476 106.964 58.618C106.695 58.4885 106.482 58.3121 106.324 58.089C106.17 57.8658 106.092 57.6139 106.092 57.3332C106.092 57.0489 106.17 56.7969 106.324 56.5774C106.482 56.3543 106.695 56.1779 106.964 56.0483C107.233 55.9188 107.535 55.854 107.868 55.854C108.202 55.854 108.509 55.9008 108.789 55.9944C109.072 56.0843 109.302 56.2139 109.478 56.3831L109.106 56.9013C109.013 56.8149 108.898 56.7376 108.762 56.6692C108.629 56.6008 108.487 56.5468 108.337 56.5072C108.19 56.464 108.043 56.4424 107.895 56.4424C107.673 56.4424 107.477 56.482 107.309 56.5612C107.144 56.6368 107.015 56.7412 106.921 56.8743C106.832 57.0075 106.787 57.1604 106.787 57.3332C106.787 57.5059 106.835 57.6589 106.932 57.7921C107.029 57.9252 107.162 58.0314 107.33 58.1106C107.499 58.1861 107.687 58.2239 107.895 58.2239C108.086 58.2239 108.254 58.2059 108.401 58.1699C108.552 58.1304 108.685 58.0836 108.8 58.0296C108.918 57.972 109.024 57.918 109.117 57.8676L109.478 58.3697C109.273 58.4885 109.04 58.5928 108.778 58.6828C108.52 58.7692 108.224 58.8124 107.89 58.8124Z" fill="white"/>
  <path d="M112.458 58.8124C112.114 58.8124 111.798 58.771 111.511 58.6882C111.227 58.6018 110.992 58.4615 110.806 58.2671L111.236 57.8676C111.376 57.9972 111.547 58.0998 111.748 58.1753C111.952 58.2509 112.18 58.2887 112.431 58.2887C112.517 58.2887 112.607 58.2851 112.7 58.2779C112.794 58.2671 112.881 58.2509 112.964 58.2293C113.05 58.2041 113.118 58.1717 113.169 58.1322C113.219 58.089 113.244 58.035 113.244 57.9702C113.244 57.8658 113.156 57.7903 112.98 57.7435C112.88 57.7147 112.768 57.6895 112.646 57.6679C112.528 57.6463 112.406 57.6283 112.28 57.6139C112.051 57.5743 111.843 57.5329 111.656 57.4897C111.473 57.4466 111.319 57.3836 111.193 57.3008C111.096 57.236 111.019 57.155 110.962 57.0579C110.908 56.9571 110.881 56.8383 110.881 56.7016C110.881 56.5684 110.919 56.4496 110.994 56.3453C111.073 56.2409 111.179 56.1527 111.312 56.0807C111.448 56.0052 111.606 55.9494 111.785 55.9134C111.965 55.8738 112.157 55.854 112.361 55.854C112.537 55.854 112.718 55.8702 112.905 55.9026C113.095 55.9314 113.276 55.9782 113.448 56.0429C113.624 56.1077 113.773 56.1941 113.895 56.3021L113.556 56.7394C113.456 56.671 113.337 56.6098 113.201 56.5558C113.064 56.4982 112.921 56.4532 112.77 56.4208C112.62 56.3849 112.471 56.3669 112.324 56.3669C112.241 56.3669 112.153 56.3723 112.06 56.3831C111.97 56.3902 111.884 56.4046 111.801 56.4262C111.723 56.4478 111.658 56.4784 111.608 56.518C111.557 56.5576 111.532 56.608 111.532 56.6692C111.532 56.7052 111.545 56.7394 111.57 56.7717C111.595 56.8005 111.627 56.8275 111.667 56.8527C111.749 56.9031 111.861 56.9427 112.001 56.9715C112.144 57.0003 112.3 57.0291 112.469 57.0579C112.702 57.0903 112.916 57.1316 113.109 57.182C113.307 57.2324 113.47 57.2972 113.599 57.3764C113.7 57.4376 113.777 57.5095 113.831 57.5923C113.884 57.6715 113.911 57.7669 113.911 57.8784C113.911 58.08 113.847 58.2491 113.718 58.3859C113.592 58.5226 113.42 58.6288 113.201 58.7044C112.982 58.7764 112.734 58.8124 112.458 58.8124Z" fill="white"/>
  <path d="M121.293 58.7584L120.905 58.3319L120.658 58.1106L119.619 57.1874C119.511 57.0939 119.397 56.9949 119.275 56.8905C119.153 56.7861 119.038 56.6782 118.93 56.5666C118.826 56.4514 118.74 56.3345 118.672 56.2157C118.607 56.0969 118.575 55.9764 118.575 55.854C118.575 55.71 118.627 55.5643 118.731 55.4167C118.839 55.2692 118.993 55.145 119.194 55.0442C119.395 54.9435 119.637 54.8931 119.92 54.8931C120.182 54.8931 120.414 54.9291 120.615 55.001C120.819 55.0694 120.993 55.1612 121.137 55.2764C121.284 55.3915 121.401 55.5229 121.487 55.6705L121.002 56.0969C120.873 55.8918 120.71 55.7424 120.512 55.6489C120.319 55.5553 120.132 55.5085 119.953 55.5085C119.852 55.5085 119.757 55.5193 119.667 55.5409C119.581 55.5625 119.51 55.5985 119.452 55.6489C119.398 55.6992 119.371 55.764 119.371 55.8432C119.371 55.8972 119.391 55.9566 119.431 56.0214C119.47 56.0825 119.519 56.1437 119.576 56.2049C119.633 56.2661 119.696 56.3255 119.764 56.3831C119.833 56.4406 119.895 56.4964 119.953 56.5504L121.234 57.6895L121.411 57.8946L122.229 58.7584H121.293ZM119.689 58.8448C119.294 58.8448 118.968 58.789 118.709 58.6774C118.451 58.5622 118.259 58.4129 118.134 58.2293C118.012 58.0458 117.951 57.8514 117.951 57.6463C117.951 57.4016 118.037 57.1748 118.209 56.9661C118.381 56.7537 118.645 56.5792 119 56.4424L119.441 56.8689C119.172 56.9409 118.986 57.0381 118.882 57.1604C118.781 57.2792 118.731 57.4088 118.731 57.5491C118.731 57.6535 118.761 57.7543 118.822 57.8514C118.887 57.9486 118.991 58.0278 119.135 58.089C119.282 58.1502 119.477 58.1807 119.721 58.1807C119.854 58.1807 119.999 58.1609 120.157 58.1214C120.319 58.0818 120.469 58.0152 120.609 57.9216C120.749 57.828 120.864 57.7021 120.954 57.5437C121.047 57.3818 121.09 57.1838 121.083 56.9499H121.799C121.799 57.2126 121.754 57.4466 121.664 57.6517C121.578 57.8568 121.462 58.035 121.314 58.1861C121.167 58.3337 121.002 58.4561 120.819 58.5532C120.636 58.6504 120.448 58.7224 120.254 58.7692C120.06 58.8196 119.872 58.8448 119.689 58.8448Z" fill="white"/>
  <path d="M126.439 58.7584V54.9794H128.673C128.906 54.9794 129.118 55.0316 129.308 55.136C129.502 55.2404 129.656 55.3825 129.771 55.5625C129.886 55.7424 129.943 55.944 129.943 56.1671C129.943 56.4046 129.88 56.6188 129.755 56.8095C129.629 57.0003 129.462 57.1514 129.254 57.263C129.046 57.3746 128.816 57.4304 128.565 57.4304H127.139V58.7584H126.439ZM127.139 56.7825H128.474C128.603 56.7825 128.723 56.7555 128.834 56.7016C128.945 56.644 129.033 56.5702 129.098 56.4802C129.166 56.3867 129.2 56.2841 129.2 56.1725C129.2 56.0681 129.166 55.9764 129.098 55.8972C129.033 55.8144 128.945 55.7496 128.834 55.7028C128.723 55.6525 128.603 55.6273 128.474 55.6273H127.139V56.7825Z" fill="white"/>
  <path d="M133.221 58.8124C132.848 58.8124 132.516 58.7494 132.226 58.6234C131.939 58.4975 131.714 58.3229 131.553 58.0998C131.391 57.873 131.311 57.6175 131.311 57.3332C131.311 57.0453 131.391 56.7897 131.553 56.5666C131.714 56.3435 131.939 56.1689 132.226 56.0429C132.516 55.917 132.848 55.854 133.221 55.854C133.595 55.854 133.923 55.917 134.206 56.0429C134.493 56.1689 134.718 56.3435 134.879 56.5666C135.041 56.7897 135.121 57.0453 135.121 57.3332C135.121 57.6175 135.041 57.873 134.879 58.0998C134.718 58.3229 134.493 58.4975 134.206 58.6234C133.923 58.7494 133.595 58.8124 133.221 58.8124ZM133.221 58.2239C133.451 58.2239 133.659 58.1861 133.846 58.1106C134.032 58.0314 134.181 57.9252 134.292 57.7921C134.404 57.6589 134.456 57.5059 134.449 57.3332C134.456 57.1568 134.404 57.0021 134.292 56.8689C134.181 56.7358 134.032 56.6314 133.846 56.5558C133.659 56.4802 133.451 56.4424 133.221 56.4424C132.992 56.4424 132.782 56.4802 132.592 56.5558C132.405 56.6314 132.256 56.7358 132.145 56.8689C132.037 57.0021 131.984 57.1568 131.984 57.3332C131.984 57.5059 132.037 57.6589 132.145 57.7921C132.256 57.9252 132.405 58.0314 132.592 58.1106C132.782 58.1861 132.992 58.2239 133.221 58.2239Z" fill="white"/>
  <path d="M136.945 58.7584V54.7635H137.612V58.7584H136.945Z" fill="white"/>
  <path d="M139.91 58.7584V55.9134H140.572V58.7584H139.91ZM140.233 55.2548C140.1 55.2548 139.996 55.2224 139.921 55.1576C139.849 55.0892 139.813 54.9938 139.813 54.8715C139.813 54.7563 139.851 54.6627 139.926 54.5908C140.002 54.5188 140.104 54.4828 140.233 54.4828C140.369 54.4828 140.473 54.517 140.545 54.5854C140.621 54.6501 140.658 54.7455 140.658 54.8715C140.658 54.983 140.621 55.0748 140.545 55.1468C140.47 55.2188 140.366 55.2548 140.233 55.2548Z" fill="white"/>
  <path d="M144.23 58.8124C143.886 58.8124 143.577 58.7476 143.304 58.618C143.035 58.4885 142.822 58.3121 142.664 58.089C142.51 57.8658 142.432 57.6139 142.432 57.3332C142.432 57.0489 142.51 56.7969 142.664 56.5774C142.822 56.3543 143.035 56.1779 143.304 56.0483C143.573 55.9188 143.875 55.854 144.209 55.854C144.542 55.854 144.849 55.9008 145.129 55.9944C145.412 56.0843 145.642 56.2139 145.818 56.3831L145.446 56.9013C145.353 56.8149 145.238 56.7376 145.102 56.6692C144.969 56.6008 144.827 56.5468 144.677 56.5072C144.53 56.464 144.383 56.4424 144.235 56.4424C144.013 56.4424 143.817 56.482 143.649 56.5612C143.484 56.6368 143.355 56.7412 143.261 56.8743C143.172 57.0075 143.127 57.1604 143.127 57.3332C143.127 57.5059 143.175 57.6589 143.272 57.7921C143.369 57.9252 143.502 58.0314 143.67 58.1106C143.839 58.1861 144.027 58.2239 144.235 58.2239C144.426 58.2239 144.594 58.2059 144.741 58.1699C144.892 58.1304 145.025 58.0836 145.14 58.0296C145.258 57.972 145.364 57.918 145.457 57.8676L145.818 58.3697C145.613 58.4885 145.38 58.5928 145.118 58.6828C144.86 58.7692 144.564 58.8124 144.23 58.8124Z" fill="white"/>
  <path d="M147.673 58.7584V55.9134H148.335V58.7584H147.673ZM147.996 55.2548C147.863 55.2548 147.759 55.2224 147.684 55.1576C147.612 55.0892 147.576 54.9938 147.576 54.8715C147.576 54.7563 147.614 54.6627 147.689 54.5908C147.765 54.5188 147.867 54.4828 147.996 54.4828C148.133 54.4828 148.237 54.517 148.308 54.5854C148.384 54.6501 148.421 54.7455 148.421 54.8715C148.421 54.983 148.384 55.0748 148.308 55.1468C148.233 55.2188 148.129 55.2548 147.996 55.2548Z" fill="white"/>
  <path d="M152.074 58.8124C151.694 58.8124 151.356 58.7494 151.062 58.6234C150.768 58.4975 150.538 58.3247 150.373 58.1052C150.212 57.8856 150.131 57.6373 150.131 57.3602C150.131 57.1226 150.179 56.9121 150.276 56.7286C150.377 56.5414 150.513 56.3831 150.685 56.2535C150.861 56.1239 151.062 56.025 151.288 55.9566C151.518 55.8846 151.758 55.8486 152.009 55.8486C152.25 55.8486 152.476 55.8828 152.688 55.9512C152.899 56.0196 153.084 56.1167 153.242 56.2427C153.403 56.3651 153.527 56.5126 153.613 56.6854C153.703 56.8545 153.746 57.0435 153.742 57.2522L153.737 57.5329H150.685L150.562 57.0579H153.183L153.097 57.1226V57.0039C153.079 56.8887 153.016 56.7879 152.908 56.7016C152.804 56.6152 152.673 56.5486 152.515 56.5018C152.357 56.4514 152.189 56.4262 152.009 56.4262C151.783 56.4262 151.575 56.455 151.385 56.5126C151.198 56.5702 151.05 56.6638 150.938 56.7933C150.827 56.9229 150.771 57.0957 150.771 57.3116C150.771 57.4915 150.831 57.6499 150.949 57.7867C151.071 57.9234 151.238 58.0314 151.45 58.1106C151.665 58.1861 151.914 58.2239 152.198 58.2239C152.481 58.2239 152.714 58.1897 152.897 58.1214C153.08 58.0494 153.224 57.9828 153.328 57.9216L153.619 58.3913C153.5 58.4669 153.358 58.537 153.193 58.6018C153.032 58.6666 152.854 58.7188 152.661 58.7584C152.47 58.7944 152.275 58.8124 152.074 58.8124Z" fill="white"/>
  <path d="M156.803 58.8124C156.459 58.8124 156.143 58.771 155.856 58.6882C155.572 58.6018 155.337 58.4615 155.151 58.2671L155.581 57.8676C155.721 57.9972 155.892 58.0998 156.093 58.1753C156.297 58.2509 156.525 58.2887 156.776 58.2887C156.862 58.2887 156.952 58.2851 157.045 58.2779C157.139 58.2671 157.226 58.2509 157.309 58.2293C157.395 58.2041 157.463 58.1717 157.514 58.1322C157.564 58.089 157.589 58.035 157.589 57.9702C157.589 57.8658 157.501 57.7903 157.325 57.7435C157.225 57.7147 157.113 57.6895 156.991 57.6679C156.873 57.6463 156.751 57.6283 156.625 57.6139C156.396 57.5743 156.188 57.5329 156.001 57.4897C155.818 57.4466 155.664 57.3836 155.538 57.3008C155.441 57.236 155.364 57.155 155.307 57.0579C155.253 56.9571 155.226 56.8383 155.226 56.7016C155.226 56.5684 155.264 56.4496 155.339 56.3453C155.418 56.2409 155.524 56.1527 155.657 56.0807C155.793 56.0052 155.951 55.9494 156.13 55.9134C156.31 55.8738 156.502 55.854 156.706 55.854C156.882 55.854 157.063 55.8702 157.25 55.9026C157.44 55.9314 157.621 55.9782 157.793 56.0429C157.969 56.1077 158.118 56.1941 158.24 56.3021L157.901 56.7394C157.801 56.671 157.682 56.6098 157.546 56.5558C157.409 56.4982 157.266 56.4532 157.115 56.4208C156.965 56.3849 156.816 56.3669 156.668 56.3669C156.586 56.3669 156.498 56.3723 156.405 56.3831C156.315 56.3902 156.229 56.4046 156.146 56.4262C156.067 56.4478 156.003 56.4784 155.953 56.518C155.902 56.5576 155.877 56.608 155.877 56.6692C155.877 56.7052 155.89 56.7394 155.915 56.7717C155.94 56.8005 155.972 56.8275 156.012 56.8527C156.094 56.9031 156.206 56.9427 156.346 56.9715C156.489 57.0003 156.645 57.0291 156.814 57.0579C157.047 57.0903 157.261 57.1316 157.454 57.182C157.652 57.2324 157.815 57.2972 157.944 57.3764C158.045 57.4376 158.122 57.5095 158.176 57.5923C158.229 57.6715 158.256 57.7669 158.256 57.8784C158.256 58.08 158.192 58.2491 158.062 58.3859C157.937 58.5226 157.765 58.6288 157.546 58.7044C157.327 58.7764 157.079 58.8124 156.803 58.8124Z" fill="white"/>
</svg>