<svg xmlns="http://www.w3.org/2000/svg" width="28.966" height="28.966" viewBox="0 0 28.966 28.966">
  <g id="Group_5626" data-name="Group 5626" transform="translate(28.966 28.966) rotate(180)">
    <path id="Path_22215" data-name="Path 22215" d="M26.527,13.247a.905.905,0,1,0-1.243,1.316l7.45,7.036-7.45,7.036a.905.905,0,1,0,1.243,1.316l8.147-7.694a.906.906,0,0,0,0-1.316l-8.147-7.694Z" transform="translate(-14.685 -7.116)"/>
    <path id="Path_22216" data-name="Path 22216" d="M14.483,0A14.482,14.482,0,0,0,4.243,24.723,14.482,14.482,0,1,0,24.723,4.243,14.385,14.385,0,0,0,14.483,0Zm8.96,23.443A12.672,12.672,0,1,1,5.523,5.523a12.672,12.672,0,1,1,17.92,17.921Z"/>
  </g>
</svg>
