<svg width="190" height="43" viewBox="0 0 190 43" fill="none" xmlns="http://www.w3.org/2000/svg">
<g id="Logo - #11">
<g id="Group 39863">
<g id="Natural">
<path d="M59.8252 32.0009V5.40088H64.6892L77.1912 24.1349V5.40088H82.0552V32.0009H77.1912L64.6892 13.3049V32.0009H59.8252Z" fill="black"/>
<path d="M93.5959 32.4569C91.9746 32.4569 90.6446 32.2036 89.6059 31.6969C88.5672 31.1649 87.7946 30.4682 87.2879 29.6069C86.7812 28.7456 86.5279 27.7956 86.5279 26.7569C86.5279 25.0089 87.2119 23.5902 88.5799 22.5009C89.9479 21.4116 91.9999 20.8669 94.7359 20.8669H99.5239V20.4109C99.5239 19.1189 99.1566 18.1689 98.4219 17.5609C97.6872 16.9529 96.7752 16.6489 95.6859 16.6489C94.6979 16.6489 93.8366 16.8896 93.1019 17.3709C92.3672 17.8269 91.9112 18.5109 91.7339 19.4229H86.9839C87.1106 18.0549 87.5666 16.8642 88.3519 15.8509C89.1626 14.8376 90.2012 14.0649 91.4679 13.5329C92.7346 12.9756 94.1532 12.6969 95.7239 12.6969C98.4092 12.6969 100.525 13.3682 102.07 14.7109C103.615 16.0536 104.388 17.9536 104.388 20.4109V32.0009H100.246L99.7899 28.9609C99.2326 29.9742 98.4472 30.8102 97.4339 31.4689C96.4459 32.1276 95.1666 32.4569 93.5959 32.4569ZM94.6979 28.6569C96.0912 28.6569 97.1679 28.2009 97.9279 27.2889C98.7132 26.3769 99.2072 25.2496 99.4099 23.9069H95.2679C93.9759 23.9069 93.0513 24.1476 92.4939 24.6289C91.9366 25.0849 91.6579 25.6549 91.6579 26.3389C91.6579 27.0736 91.9366 27.6436 92.4939 28.0489C93.0513 28.4542 93.7859 28.6569 94.6979 28.6569Z" fill="black"/>
<path d="M117.168 32.0009C115.192 32.0009 113.608 31.5196 112.418 30.5569C111.227 29.5942 110.632 27.8842 110.632 25.4269V17.2189H107.402V13.1529H110.632L111.202 8.09889H115.496V13.1529H120.588V17.2189H115.496V25.4649C115.496 26.3769 115.686 27.0102 116.066 27.3649C116.471 27.6942 117.155 27.8589 118.118 27.8589H120.474V32.0009H117.168Z" fill="black"/>
<path d="M131.832 32.4569C129.476 32.4569 127.652 31.7222 126.36 30.2529C125.093 28.7836 124.46 26.6302 124.46 23.7929V13.1529H129.286V23.3369C129.286 24.9582 129.615 26.1996 130.274 27.0609C130.933 27.9222 131.971 28.3529 133.39 28.3529C134.733 28.3529 135.835 27.8716 136.696 26.9089C137.583 25.9462 138.026 24.6036 138.026 22.8809V13.1529H142.89V32.0009H138.596L138.216 28.8089C137.633 29.9236 136.785 30.8102 135.67 31.4689C134.581 32.1276 133.301 32.4569 131.832 32.4569Z" fill="black"/>
<path d="M147.883 32.0009V13.1529H152.215L152.671 16.6869C153.355 15.4709 154.28 14.5082 155.445 13.7989C156.636 13.0642 158.029 12.6969 159.625 12.6969V17.8269H158.257C157.193 17.8269 156.243 17.9916 155.407 18.3209C154.571 18.6502 153.912 19.2202 153.431 20.0309C152.975 20.8416 152.747 21.9689 152.747 23.4129V32.0009H147.883Z" fill="black"/>
<path d="M169.447 32.4569C167.826 32.4569 166.496 32.2036 165.457 31.6969C164.419 31.1649 163.646 30.4682 163.139 29.6069C162.633 28.7456 162.379 27.7956 162.379 26.7569C162.379 25.0089 163.063 23.5902 164.431 22.5009C165.799 21.4116 167.851 20.8669 170.587 20.8669H175.375V20.4109C175.375 19.1189 175.008 18.1689 174.273 17.5609C173.539 16.9529 172.627 16.6489 171.537 16.6489C170.549 16.6489 169.688 16.8896 168.953 17.3709C168.219 17.8269 167.763 18.5109 167.585 19.4229H162.835C162.962 18.0549 163.418 16.8642 164.203 15.8509C165.014 14.8376 166.053 14.0649 167.319 13.5329C168.586 12.9756 170.005 12.6969 171.575 12.6969C174.261 12.6969 176.376 13.3682 177.921 14.7109C179.467 16.0536 180.239 17.9536 180.239 20.4109V32.0009H176.097L175.641 28.9609C175.084 29.9742 174.299 30.8102 173.285 31.4689C172.297 32.1276 171.018 32.4569 169.447 32.4569ZM170.549 28.6569C171.943 28.6569 173.019 28.2009 173.779 27.2889C174.565 26.3769 175.059 25.2496 175.261 23.9069H171.119C169.827 23.9069 168.903 24.1476 168.345 24.6289C167.788 25.0849 167.509 25.6549 167.509 26.3389C167.509 27.0736 167.788 27.6436 168.345 28.0489C168.903 28.4542 169.637 28.6569 170.549 28.6569Z" fill="black"/>
<path d="M184.881 32.0009V4.64088H189.745V32.0009H184.881Z" fill="black"/>
</g>
<g id="Group 39799">
<g id="surface15508">
<path id="Vector" d="M2.57467 42.8498C1.64418 42.8498 0.800247 42.2871 0.445361 41.4259C0.0861484 40.5647 0.28523 39.5693 0.943065 38.9114L13.4939 26.3606C14.3984 25.4604 15.8569 25.4604 16.7571 26.3606C17.6616 27.2608 17.6616 28.7236 16.7571 29.6238L4.20627 42.1746C3.77782 42.6074 3.18923 42.8498 2.57467 42.8498Z" fill="#FD3C3C"/>
<path id="Vector_2" d="M39.5251 0.276639L6.70693 33.0905C-0.148404 26.2352 -0.148404 15.1169 6.70693 8.25721C16.4619 -1.49779 39.5251 0.276639 39.5251 0.276639Z" fill="#FD3C3C"/>
<path id="Vector_3" d="M31.5403 33.0901C24.685 39.9498 13.5667 39.9498 6.70703 33.0901L39.5252 0.276276C39.5252 0.276276 41.2996 23.3351 31.5403 33.0901Z" fill="#F23535"/>
</g>
</g>
</g>
</g>
</svg>
