<svg width="208" height="51" viewBox="0 0 208 51" fill="none" xmlns="http://www.w3.org/2000/svg">
<g id="Logo - #18">
<g id="Group 39861">
<g id="Group 39860">
<path id="Rectangle 4535" d="M0 15.7472C0 15.0438 0.373312 14.3932 0.980614 14.0383L21.7902 1.87636C23.1098 1.10516 24.7683 2.05689 24.7683 3.58527V21.9156L12.5157 14.6114V50.8641H1.97937C0.886194 50.8641 0 49.9779 0 48.8847V15.7472Z" fill="#FD3C3C"/>
<path id="Rectangle 4536" d="M24.7686 21.9383L36.2298 28.9706C36.8165 29.3306 37.174 29.9694 37.174 30.6577V48.8848C37.174 49.978 36.2878 50.8642 35.1947 50.8642H26.7479C25.6547 50.8642 24.7686 49.978 24.7686 48.8848V21.9383Z" fill="#FD3C3C"/>
</g>
<g id="Architect">
<path d="M53.291 41.6476L62.0628 17.6623H66.9969L75.7687 41.6476H71.1087L69.1898 36.0968H59.8356L57.8825 41.6476H53.291ZM61.0348 32.6703H67.9906L64.4956 22.6993L61.0348 32.6703Z" fill="black"/>
<path d="M78.7556 41.6476V24.6523H82.6618L83.0729 27.839C83.6897 26.7425 84.5235 25.8745 85.5743 25.2348C86.6479 24.5724 87.9043 24.2412 89.3434 24.2412V28.8669H88.1098C87.1504 28.8669 86.2938 29.0154 85.54 29.3123C84.7862 29.6093 84.1922 30.1233 83.7582 30.8543C83.347 31.5852 83.1415 32.6018 83.1415 33.9038V41.6476H78.7556Z" fill="black"/>
<path d="M100.366 42.0588C98.6301 42.0588 97.0996 41.6819 95.7747 40.9281C94.4498 40.1743 93.399 39.1235 92.6223 37.7757C91.8685 36.428 91.4916 34.8861 91.4916 33.15C91.4916 31.4139 91.8685 29.872 92.6223 28.5243C93.399 27.1765 94.4498 26.1257 95.7747 25.3719C97.0996 24.6181 98.6301 24.2412 100.366 24.2412C102.536 24.2412 104.364 24.8122 105.849 25.9544C107.333 27.0737 108.281 28.627 108.692 30.6144H104.067C103.838 29.792 103.381 29.1524 102.696 28.6956C102.034 28.2159 101.246 27.976 100.332 27.976C99.1212 27.976 98.0933 28.4329 97.2481 29.3466C96.4029 30.2603 95.9803 31.5281 95.9803 33.15C95.9803 34.7719 96.4029 36.0396 97.2481 36.9534C98.0933 37.8671 99.1212 38.324 100.332 38.324C101.246 38.324 102.034 38.0955 102.696 37.6387C103.381 37.1818 103.838 36.5308 104.067 35.6856H108.692C108.281 37.6044 107.333 39.1463 105.849 40.3113C104.364 41.4763 102.536 42.0588 100.366 42.0588Z" fill="black"/>
<path d="M112.585 41.6476V16.9771H116.971V27.2565C117.542 26.3199 118.307 25.5889 119.267 25.0635C120.249 24.5153 121.368 24.2412 122.625 24.2412C124.726 24.2412 126.348 24.9036 127.49 26.2285C128.655 27.5534 129.238 29.4951 129.238 32.0535V41.6476H124.886V32.4647C124.886 31.0027 124.589 29.8834 123.995 29.1068C123.424 28.3301 122.511 27.9418 121.254 27.9418C120.021 27.9418 118.993 28.3758 118.17 29.2438C117.371 30.1119 116.971 31.3225 116.971 32.8759V41.6476H112.585Z" fill="black"/>
<path d="M135.796 22.014C134.997 22.014 134.334 21.7741 133.809 21.2944C133.306 20.8147 133.055 20.2094 133.055 19.4784C133.055 18.7474 133.306 18.1535 133.809 17.6966C134.334 17.2169 134.997 16.9771 135.796 16.9771C136.596 16.9771 137.247 17.2169 137.749 17.6966C138.275 18.1535 138.537 18.7474 138.537 19.4784C138.537 20.2094 138.275 20.8147 137.749 21.2944C137.247 21.7741 136.596 22.014 135.796 22.014ZM133.603 41.6476V24.6523H137.989V41.6476H133.603Z" fill="black"/>
<path d="M150.139 41.6476C148.358 41.6476 146.93 41.2136 145.856 40.3456C144.783 39.4775 144.246 37.9356 144.246 35.7198V28.3187H141.333V24.6523H144.246L144.76 20.0951H148.632V24.6523H153.223V28.3187H148.632V35.7541C148.632 36.5765 148.803 37.1475 149.146 37.4673C149.511 37.7643 150.128 37.9128 150.996 37.9128H153.12V41.6476H150.139Z" fill="black"/>
<path d="M164.812 42.0588C163.098 42.0588 161.579 41.6933 160.254 40.9623C158.93 40.2314 157.89 39.2034 157.136 37.8785C156.383 36.5536 156.006 35.0231 156.006 33.2871C156.006 31.5281 156.371 29.9634 157.102 28.5928C157.856 27.2222 158.884 26.16 160.186 25.4062C161.511 24.6295 163.064 24.2412 164.846 24.2412C166.513 24.2412 167.987 24.6067 169.266 25.3376C170.545 26.0686 171.539 27.0737 172.247 28.3529C172.978 29.6093 173.344 31.0142 173.344 32.5675C173.344 32.8188 173.332 33.0815 173.309 33.3556C173.309 33.6297 173.298 33.9152 173.275 34.2122H160.357C160.449 35.5371 160.905 36.5765 161.728 37.3303C162.573 38.0841 163.59 38.461 164.777 38.461C165.668 38.461 166.411 38.2669 167.005 37.8785C167.621 37.4673 168.078 36.9419 168.375 36.3023H172.83C172.51 37.376 171.973 38.3582 171.219 39.2491C170.488 40.1171 169.574 40.8024 168.478 41.305C167.404 41.8075 166.182 42.0588 164.812 42.0588ZM164.846 27.8047C163.772 27.8047 162.824 28.1131 162.002 28.7298C161.18 29.3238 160.654 30.2375 160.426 31.471H168.889C168.821 30.3517 168.409 29.4608 167.656 28.7984C166.902 28.1359 165.965 27.8047 164.846 27.8047Z" fill="black"/>
<path d="M185.359 42.0588C183.623 42.0588 182.092 41.6819 180.767 40.9281C179.442 40.1743 178.392 39.1235 177.615 37.7757C176.861 36.428 176.484 34.8861 176.484 33.15C176.484 31.4139 176.861 29.872 177.615 28.5243C178.392 27.1765 179.442 26.1257 180.767 25.3719C182.092 24.6181 183.623 24.2412 185.359 24.2412C187.529 24.2412 189.356 24.8122 190.841 25.9544C192.326 27.0737 193.274 28.627 193.685 30.6144H189.059C188.831 29.792 188.374 29.1524 187.689 28.6956C187.026 28.2159 186.238 27.976 185.324 27.976C184.114 27.976 183.086 28.4329 182.241 29.3466C181.395 30.2603 180.973 31.5281 180.973 33.15C180.973 34.7719 181.395 36.0396 182.241 36.9534C183.086 37.8671 184.114 38.324 185.324 38.324C186.238 38.324 187.026 38.0955 187.689 37.6387C188.374 37.1818 188.831 36.5308 189.059 35.6856H193.685C193.274 37.6044 192.326 39.1463 190.841 40.3113C189.356 41.4763 187.529 42.0588 185.359 42.0588Z" fill="black"/>
<path d="M204.916 41.6476C203.134 41.6476 201.707 41.2136 200.633 40.3456C199.559 39.4775 199.023 37.9356 199.023 35.7198V28.3187H196.11V24.6523H199.023L199.537 20.0951H203.408V24.6523H208V28.3187H203.408V35.7541C203.408 36.5765 203.58 37.1475 203.922 37.4673C204.288 37.7643 204.905 37.9128 205.773 37.9128H207.897V41.6476H204.916Z" fill="black"/>
</g>
</g>
</g>
</svg>
