<svg width="214" height="41" viewBox="0 0 214 41" fill="none" xmlns="http://www.w3.org/2000/svg">
<g id="Logo - #8">
<g id="Marketly">
<path d="M54.8442 32.1767V5.5767H60.6202L69.0942 22.4487L77.4542 5.5767H83.2302V32.1767H78.3662V13.8227L70.9562 28.3767H67.1182L59.7082 13.8227V32.1767H54.8442Z" fill="black"/>
<path d="M94.7751 32.6327C93.1538 32.6327 91.8238 32.3794 90.7851 31.8727C89.7464 31.3407 88.9738 30.644 88.4671 29.7827C87.9604 28.9214 87.7071 27.9714 87.7071 26.9327C87.7071 25.1847 88.3911 23.766 89.7591 22.6767C91.1271 21.5874 93.1791 21.0427 95.9151 21.0427H100.703V20.5867C100.703 19.2947 100.336 18.3447 99.6011 17.7367C98.8664 17.1287 97.9544 16.8247 96.8651 16.8247C95.8771 16.8247 95.0158 17.0654 94.2811 17.5467C93.5464 18.0027 93.0904 18.6867 92.9131 19.5987H88.1631C88.2898 18.2307 88.7458 17.04 89.5311 16.0267C90.3418 15.0134 91.3804 14.2407 92.6471 13.7087C93.9138 13.1514 95.3324 12.8727 96.9031 12.8727C99.5884 12.8727 101.704 13.544 103.249 14.8867C104.794 16.2294 105.567 18.1294 105.567 20.5867V32.1767H101.425L100.969 29.1367C100.412 30.15 99.6264 30.986 98.6131 31.6447C97.6251 32.3034 96.3458 32.6327 94.7751 32.6327ZM95.8771 28.8327C97.2704 28.8327 98.3471 28.3767 99.1071 27.4647C99.8924 26.5527 100.386 25.4254 100.589 24.0827H96.4471C95.1551 24.0827 94.2304 24.3234 93.6731 24.8047C93.1158 25.2607 92.8371 25.8307 92.8371 26.5147C92.8371 27.2494 93.1158 27.8194 93.6731 28.2247C94.2304 28.63 94.9651 28.8327 95.8771 28.8327Z" fill="black"/>
<path d="M110.209 32.1767V13.3287H114.541L114.997 16.8627C115.681 15.6467 116.605 14.684 117.771 13.9747C118.961 13.24 120.355 12.8727 121.951 12.8727V18.0027H120.583C119.519 18.0027 118.569 18.1674 117.733 18.4967C116.897 18.826 116.238 19.396 115.757 20.2067C115.301 21.0174 115.073 22.1447 115.073 23.5887V32.1767H110.209Z" fill="black"/>
<path d="M125.275 32.1767V4.8167H130.139V20.9667L136.827 13.3287H142.603L134.889 21.9167L143.857 32.1767H137.777L130.139 22.7147V32.1767H125.275Z" fill="black"/>
<path d="M154.472 32.6327C152.572 32.6327 150.888 32.2274 149.418 31.4167C147.949 30.606 146.796 29.466 145.96 27.9967C145.124 26.5274 144.706 24.83 144.706 22.9047C144.706 20.954 145.112 19.2187 145.922 17.6987C146.758 16.1787 147.898 15.0007 149.342 14.1647C150.812 13.3034 152.534 12.8727 154.51 12.8727C156.36 12.8727 157.994 13.278 159.412 14.0887C160.831 14.8994 161.933 16.014 162.718 17.4327C163.529 18.826 163.934 20.384 163.934 22.1067C163.934 22.3854 163.922 22.6767 163.896 22.9807C163.896 23.2847 163.884 23.6014 163.858 23.9307H149.532C149.634 25.4 150.14 26.5527 151.052 27.3887C151.99 28.2247 153.117 28.6427 154.434 28.6427C155.422 28.6427 156.246 28.4274 156.904 27.9967C157.588 27.5407 158.095 26.958 158.424 26.2487H163.364C163.01 27.4394 162.414 28.5287 161.578 29.5167C160.768 30.4794 159.754 31.2394 158.538 31.7967C157.348 32.354 155.992 32.6327 154.472 32.6327ZM154.51 16.8247C153.32 16.8247 152.268 17.1667 151.356 17.8507C150.444 18.5094 149.862 19.5227 149.608 20.8907H158.994C158.918 19.6494 158.462 18.6614 157.626 17.9267C156.79 17.192 155.752 16.8247 154.51 16.8247Z" fill="black"/>
<path d="M176.089 32.1767C174.113 32.1767 172.53 31.6954 171.339 30.7327C170.149 29.77 169.553 28.06 169.553 25.6027V17.3947H166.323V13.3287H169.553L170.123 8.2747H174.417V13.3287H179.509V17.3947H174.417V25.6407C174.417 26.5527 174.607 27.186 174.987 27.5407C175.393 27.87 176.077 28.0347 177.039 28.0347H179.395V32.1767H176.089Z" fill="black"/>
<path d="M183.685 32.1767V4.8167H188.549V32.1767H183.685Z" fill="black"/>
<path d="M195.875 40.5367L200.245 30.9227H199.105L191.771 13.3287H197.053L202.335 26.5907L207.845 13.3287H213.013L201.043 40.5367H195.875Z" fill="black"/>
</g>
<g id="Group 39804">
<rect id="Rectangle 4511" x="0.255371" y="23.5912" width="9.72" height="15.11" rx="4.86" fill="#FD3C3C"/>
<rect id="Rectangle 4515" x="0.255371" y="0.463318" width="9.72" height="9.72" rx="4.86" fill="#FD3C3C"/>
<rect id="Rectangle 4512" x="14.3979" y="11.7119" width="9.72" height="26.9894" rx="4.86" fill="#FD3C3C"/>
<rect id="Rectangle 4514" x="28.5405" y="0.463318" width="9.72" height="38.2377" rx="4.86" fill="#FD3C3C"/>
</g>
</g>
</svg>
