<svg width="32" height="32" viewBox="0 0 32 32" fill="none" xmlns="http://www.w3.org/2000/svg">
<g id="Frame">
<path id="Vector" d="M27.53 16.53L18.53 25.53C18.3878 25.6625 18.1998 25.7346 18.0055 25.7312C17.8112 25.7277 17.6258 25.649 17.4884 25.5116C17.351 25.3742 17.2723 25.1888 17.2688 24.9945C17.2654 24.8002 17.3375 24.6122 17.47 24.47L25.1887 16.75H5C4.80109 16.75 4.61032 16.671 4.46967 16.5303C4.32902 16.3897 4.25 16.1989 4.25 16C4.25 15.8011 4.32902 15.6103 4.46967 15.4697C4.61032 15.329 4.80109 15.25 5 15.25H25.1887L17.47 7.53C17.3375 7.38782 17.2654 7.19978 17.2688 7.00548C17.2723 6.81118 17.351 6.62579 17.4884 6.48838C17.6258 6.35096 17.8112 6.27225 18.0055 6.26882C18.1998 6.2654 18.3878 6.33752 18.53 6.47L27.53 15.47C27.6705 15.6106 27.7493 15.8012 27.7493 16C27.7493 16.1987 27.6705 16.3894 27.53 16.53Z" fill="white"/>
</g>
</svg>
