<svg xmlns="http://www.w3.org/2000/svg" width="25" height="24" viewBox="0 0 25 24" fill="none">
<rect width="24" height="24" transform="translate(0.341797)" fill="#1E1E1E"/>
<path d="M20.3418 21V19C20.3418 17.9391 19.9204 16.9217 19.1702 16.1716C18.4201 15.4214 17.4027 15 16.3418 15H8.3418C7.28093 15 6.26352 15.4214 5.51337 16.1716C4.76322 16.9217 4.3418 17.9391 4.3418 19V21M16.3418 7C16.3418 9.20914 14.5509 11 12.3418 11C10.1327 11 8.3418 9.20914 8.3418 7C8.3418 4.79086 10.1327 3 12.3418 3C14.5509 3 16.3418 4.79086 16.3418 7Z" stroke="#FD3C3C" stroke-width="2" stroke-linecap="round" stroke-linejoin="round"/>
</svg>