<svg width="415" height="449" viewBox="0 0 415 449" fill="none" xmlns="http://www.w3.org/2000/svg">
<g clip-path="url(#clip0_1943_845)">
<path opacity="0.05" d="M202.466 406.055C175.132 406.055 148.59 400.686 123.579 390.096C99.4446 379.877 77.7796 365.26 59.1862 346.647C40.5918 328.034 25.9885 306.348 15.7802 282.189C5.20157 257.154 -0.162109 230.586 -0.162109 203.225C-0.162109 175.864 5.20157 149.296 15.7802 124.26C25.9885 100.101 40.5918 78.4149 59.1862 59.8021C77.7807 41.1893 99.4457 26.5716 123.579 16.3532C148.59 5.76645 175.132 0.396362 202.466 0.396362C229.8 0.396362 256.341 5.76533 281.353 16.3543C305.488 26.5727 327.153 41.1904 345.747 59.8032C364.341 78.416 378.944 100.102 389.153 124.261C399.731 149.296 405.095 175.865 405.095 203.226C405.095 230.587 399.731 257.154 389.153 282.19C378.944 306.349 364.341 328.035 345.747 346.648C327.152 365.261 305.487 379.879 281.353 390.097C256.341 400.685 229.8 406.055 202.466 406.055ZM202.466 93.7055C142.136 93.7055 93.0541 142.836 93.0541 203.226C93.0541 263.616 142.136 312.746 202.466 312.746C262.797 312.746 311.879 263.616 311.879 203.226C311.879 142.836 262.797 93.7055 202.466 93.7055Z" fill="#1E1E1E"/>
<g opacity="0.25">
<path d="M206.025 357.848C205.684 357.848 205.407 357.573 205.406 357.231C205.405 356.889 205.681 356.611 206.023 356.61C206.647 356.608 207.271 356.601 207.893 356.591C208.215 356.587 208.516 356.859 208.522 357.2C208.527 357.543 208.254 357.824 207.913 357.829C207.286 357.839 206.657 357.846 206.027 357.848H206.025ZM198.203 357.684C198.194 357.684 198.183 357.684 198.175 357.684C197.545 357.655 196.917 357.622 196.291 357.586C195.95 357.566 195.689 357.275 195.709 356.933C195.728 356.591 196.02 356.313 196.361 356.35C196.983 356.386 197.606 356.419 198.229 356.445C198.571 356.462 198.835 356.751 198.819 357.093C198.805 357.425 198.531 357.684 198.203 357.684ZM215.721 357.511C215.398 357.511 215.126 357.259 215.105 356.933C215.082 356.591 215.341 356.297 215.682 356.274C216.305 356.234 216.927 356.189 217.548 356.142C217.885 356.094 218.186 356.37 218.212 356.712C218.238 357.052 217.984 357.349 217.643 357.376C217.016 357.425 216.39 357.47 215.761 357.51C215.748 357.511 215.733 357.511 215.721 357.511ZM188.53 356.945C188.508 356.945 188.486 356.944 188.464 356.941C187.839 356.874 187.213 356.803 186.59 356.729C186.251 356.688 186.009 356.381 186.05 356.041C186.091 355.702 186.392 355.458 186.738 355.5C187.357 355.574 187.975 355.645 188.596 355.712C188.936 355.748 189.181 356.054 189.145 356.393C189.111 356.71 188.842 356.945 188.53 356.945ZM225.377 356.581C225.071 356.581 224.804 356.354 224.764 356.041C224.721 355.702 224.961 355.392 225.298 355.348C225.918 355.27 226.537 355.186 227.153 355.1C227.483 355.059 227.803 355.289 227.851 355.628C227.898 355.967 227.662 356.28 227.323 356.327C226.701 356.413 226.079 356.496 225.455 356.578C225.43 356.58 225.403 356.581 225.377 356.581ZM178.921 355.606C178.887 355.606 178.851 355.603 178.816 355.597C178.195 355.49 177.577 355.381 176.959 355.268C176.624 355.206 176.401 354.883 176.463 354.546C176.524 354.211 176.844 353.991 177.183 354.049C177.796 354.162 178.41 354.27 179.025 354.376C179.362 354.434 179.588 354.755 179.531 355.092C179.478 355.392 179.217 355.606 178.921 355.606ZM234.957 355.051C234.667 355.051 234.408 354.845 234.351 354.549C234.286 354.213 234.507 353.889 234.843 353.824C235.456 353.707 236.068 353.586 236.678 353.46C237.018 353.402 237.34 353.607 237.408 353.943C237.476 354.279 237.261 354.606 236.926 354.674C236.31 354.799 235.693 354.923 235.075 355.04C235.036 355.048 234.997 355.051 234.957 355.051ZM169.413 353.671C169.366 353.671 169.318 353.665 169.27 353.654C168.657 353.508 168.046 353.361 167.437 353.208C167.105 353.126 166.904 352.79 166.987 352.458C167.07 352.126 167.406 351.923 167.736 352.008C168.34 352.159 168.947 352.307 169.553 352.45C169.885 352.529 170.092 352.862 170.013 353.195C169.948 353.479 169.694 353.671 169.413 353.671ZM244.425 352.925C244.149 352.925 243.897 352.74 243.827 352.46C243.742 352.129 243.941 351.792 244.272 351.707C244.877 351.55 245.479 351.392 246.081 351.229C246.405 351.135 246.751 351.335 246.839 351.664C246.929 351.995 246.734 352.335 246.404 352.423C245.798 352.589 245.189 352.749 244.58 352.906C244.528 352.918 244.476 352.925 244.425 352.925ZM160.045 351.144C159.986 351.144 159.925 351.135 159.866 351.118C159.261 350.934 158.657 350.746 158.056 350.556C157.73 350.452 157.55 350.105 157.653 349.779C157.756 349.453 158.103 349.273 158.43 349.376C159.027 349.566 159.624 349.752 160.225 349.933C160.552 350.033 160.736 350.378 160.638 350.705C160.556 350.972 160.31 351.144 160.045 351.144ZM253.741 350.211C253.48 350.211 253.238 350.044 253.154 349.783C253.047 349.459 253.226 349.109 253.55 349.004C254.142 348.81 254.735 348.613 255.325 348.414C255.654 348.3 256 348.478 256.109 348.801C256.22 349.125 256.045 349.478 255.722 349.586C255.126 349.789 254.53 349.987 253.931 350.181C253.868 350.201 253.805 350.211 253.741 350.211ZM150.829 348.024C150.757 348.024 150.684 348.012 150.613 347.985C150.022 347.766 149.433 347.539 148.844 347.312C148.526 347.19 148.368 346.831 148.491 346.511C148.614 346.193 148.974 346.034 149.291 346.158C149.875 346.383 150.46 346.606 151.046 346.826C151.366 346.946 151.528 347.302 151.409 347.622C151.315 347.872 151.079 348.024 150.829 348.024ZM262.869 346.918C262.623 346.918 262.39 346.77 262.294 346.527C262.167 346.21 262.322 345.851 262.64 345.723C263.221 345.493 263.799 345.26 264.377 345.021C264.689 344.893 265.053 345.042 265.184 345.359C265.313 345.675 265.163 346.037 264.846 346.168C264.265 346.406 263.682 346.641 263.097 346.874C263.023 346.903 262.945 346.918 262.869 346.918ZM141.829 344.334C141.745 344.334 141.658 344.316 141.576 344.28C141.001 344.022 140.427 343.76 139.855 343.497C139.545 343.355 139.409 342.987 139.552 342.677C139.695 342.367 140.063 342.229 140.372 342.373C140.94 342.634 141.51 342.894 142.081 343.149C142.392 343.289 142.532 343.655 142.392 343.966C142.292 344.198 142.066 344.334 141.829 344.334ZM271.757 343.065C271.526 343.065 271.304 342.934 271.198 342.711C271.052 342.402 271.184 342.033 271.493 341.887C272.057 341.622 272.617 341.353 273.177 341.082C273.484 340.932 273.853 341.06 274.002 341.369C274.152 341.677 274.022 342.046 273.716 342.196C273.152 342.468 272.587 342.738 272.021 343.007C271.936 343.046 271.845 343.065 271.757 343.065ZM133.083 340.089C132.986 340.089 132.889 340.066 132.797 340.018C132.239 339.725 131.683 339.429 131.129 339.132C130.828 338.968 130.715 338.594 130.877 338.293C131.04 337.993 131.415 337.881 131.715 338.04C132.266 338.338 132.817 338.631 133.371 338.922C133.673 339.081 133.789 339.455 133.631 339.757C133.521 339.969 133.306 340.089 133.083 340.089ZM280.387 338.666C280.168 338.666 279.955 338.549 279.843 338.344C279.68 338.045 279.79 337.669 280.09 337.503C280.635 337.205 281.179 336.902 281.72 336.595C282.019 336.426 282.396 336.533 282.563 336.831C282.731 337.128 282.626 337.506 282.328 337.674C281.782 337.982 281.234 338.287 280.683 338.59C280.59 338.642 280.487 338.666 280.387 338.666ZM124.622 335.309C124.513 335.309 124.402 335.281 124.302 335.219C123.764 334.892 123.227 334.562 122.694 334.229C122.404 334.049 122.315 333.666 122.496 333.376C122.675 333.086 123.057 332.994 123.347 333.177C123.877 333.507 124.41 333.835 124.943 334.16C125.235 334.337 125.328 334.718 125.151 335.011C125.035 335.202 124.831 335.309 124.622 335.309ZM288.732 333.739C288.526 333.739 288.326 333.637 288.207 333.451C288.025 333.161 288.111 332.779 288.4 332.596C288.926 332.263 289.449 331.926 289.97 331.588C290.258 331.4 290.641 331.483 290.826 331.768C291.013 332.055 290.932 332.439 290.646 332.625C290.12 332.969 289.593 333.307 289.062 333.644C288.959 333.709 288.845 333.739 288.732 333.739ZM116.478 330.012C116.356 330.012 116.233 329.976 116.125 329.901C115.609 329.541 115.095 329.179 114.582 328.812C114.304 328.614 114.238 328.227 114.437 327.949C114.636 327.671 115.022 327.605 115.3 327.804C115.809 328.166 116.319 328.526 116.832 328.883C117.113 329.079 117.182 329.465 116.987 329.745C116.866 329.919 116.673 330.012 116.478 330.012ZM296.755 328.298C296.564 328.298 296.376 328.21 296.255 328.044C296.054 327.767 296.116 327.379 296.392 327.179C296.896 326.813 297.399 326.444 297.901 326.072C298.173 325.869 298.562 325.926 298.766 326.201C298.969 326.476 298.911 326.864 298.637 327.067C298.134 327.441 297.627 327.811 297.12 328.18C297.009 328.26 296.882 328.298 296.755 328.298ZM108.681 324.22C108.547 324.22 108.412 324.177 108.297 324.087C107.804 323.696 107.314 323.302 106.825 322.906C106.56 322.691 106.52 322.301 106.735 322.036C106.951 321.772 107.339 321.729 107.605 321.944C108.089 322.338 108.577 322.728 109.066 323.116C109.334 323.328 109.379 323.718 109.168 323.985C109.045 324.139 108.863 324.22 108.681 324.22ZM304.43 322.368C304.252 322.368 304.076 322.292 303.953 322.142C303.736 321.879 303.774 321.488 304.038 321.272C304.52 320.876 304.997 320.477 305.474 320.075C305.733 319.857 306.125 319.888 306.345 320.149C306.564 320.41 306.532 320.802 306.271 321.021C305.79 321.426 305.308 321.829 304.822 322.227C304.708 322.323 304.569 322.368 304.43 322.368ZM101.259 317.959C101.112 317.959 100.964 317.906 100.846 317.8C100.379 317.38 99.9124 316.957 99.4493 316.529C99.1976 316.297 99.1819 315.906 99.4135 315.655C99.645 315.403 100.038 315.387 100.287 315.62C100.747 316.043 101.208 316.462 101.672 316.88C101.926 317.108 101.947 317.5 101.719 317.753C101.597 317.89 101.428 317.959 101.259 317.959ZM311.729 315.974C311.565 315.974 311.399 315.908 311.277 315.777C311.044 315.527 311.058 315.135 311.307 314.902C311.763 314.476 312.218 314.048 312.67 313.617C312.916 313.383 313.309 313.391 313.543 313.639C313.779 313.887 313.769 314.279 313.521 314.514C313.067 314.947 312.61 315.378 312.15 315.807C312.031 315.92 311.88 315.974 311.729 315.974ZM94.24 311.252C94.08 311.252 93.9201 311.191 93.7993 311.067C93.3585 310.621 92.92 310.168 92.4849 309.715C92.2478 309.468 92.2556 309.078 92.5017 308.84C92.7478 308.602 93.1393 308.61 93.3764 308.858C93.8082 309.307 94.2433 309.755 94.6807 310.2C94.9201 310.443 94.9167 310.834 94.674 311.074C94.5532 311.193 94.3966 311.252 94.24 311.252ZM318.622 309.139C318.469 309.139 318.316 309.083 318.197 308.97C317.948 308.735 317.937 308.343 318.172 308.096C318.601 307.642 319.028 307.188 319.451 306.729C319.685 306.477 320.076 306.464 320.324 306.694C320.576 306.926 320.591 307.319 320.359 307.568C319.932 308.031 319.502 308.49 319.07 308.946C318.95 309.074 318.785 309.139 318.622 309.139ZM87.6503 304.126C87.478 304.126 87.3058 304.055 87.1839 303.915C86.7711 303.44 86.3617 302.963 85.9545 302.484C85.7342 302.224 85.7666 301.832 86.0261 301.611C86.2867 301.39 86.676 301.423 86.8975 301.683C87.3002 302.159 87.7062 302.632 88.1156 303.102C88.3405 303.359 88.3125 303.751 88.0552 303.975C87.9389 304.076 87.7946 304.126 87.6503 304.126ZM325.077 301.887C324.936 301.887 324.795 301.84 324.68 301.742C324.42 301.523 324.384 301.132 324.604 300.87C325.005 300.392 325.403 299.912 325.798 299.428C326.014 299.164 326.403 299.125 326.667 299.341C326.931 299.557 326.97 299.946 326.754 300.211C326.357 300.699 325.954 301.184 325.552 301.666C325.43 301.812 325.254 301.887 325.077 301.887ZM81.5159 296.609C81.3302 296.609 81.1457 296.526 81.0249 296.366C80.6434 295.869 80.2642 295.367 79.8884 294.863C79.6837 294.589 79.7396 294.201 80.0136 293.998C80.2866 293.791 80.6747 293.846 80.8794 294.122C81.253 294.621 81.6289 295.118 82.007 295.613C82.215 295.884 82.1636 296.273 81.8918 296.48C81.7788 296.567 81.6468 296.609 81.5159 296.609ZM331.079 294.248C330.951 294.248 330.822 294.209 330.712 294.129C330.438 293.926 330.378 293.538 330.581 293.263C330.951 292.76 331.319 292.255 331.683 291.747C331.883 291.468 332.268 291.405 332.545 291.605C332.822 291.805 332.886 292.191 332.687 292.468C332.319 292.98 331.949 293.489 331.576 293.996C331.456 294.161 331.268 294.248 331.079 294.248ZM75.8581 288.729C75.6589 288.729 75.4632 288.633 75.3446 288.456C74.9956 287.934 74.6477 287.41 74.3043 286.886C74.1164 286.601 74.1969 286.217 74.4822 286.03C74.7663 285.842 75.1511 285.921 75.339 286.208C75.6802 286.728 76.0247 287.248 76.3715 287.765C76.5616 288.05 76.4867 288.435 76.2026 288.624C76.0963 288.696 75.9766 288.729 75.8581 288.729ZM336.592 286.248C336.477 286.248 336.361 286.217 336.257 286.148C335.97 285.963 335.889 285.58 336.074 285.292C336.413 284.767 336.749 284.24 337.081 283.711C337.264 283.422 337.644 283.335 337.934 283.517C338.223 283.7 338.31 284.081 338.128 284.371C337.792 284.906 337.455 285.436 337.112 285.966C336.995 286.15 336.796 286.248 336.592 286.248ZM70.7013 280.516C70.4888 280.516 70.283 280.407 70.1666 280.211C69.8501 279.67 69.5369 279.126 69.2259 278.581C69.057 278.284 69.1599 277.905 69.4563 277.736C69.7516 277.567 70.1308 277.67 70.2997 277.968C70.6085 278.509 70.9194 279.048 71.2338 279.585C71.406 279.879 71.3076 280.259 71.0134 280.431C70.915 280.489 70.8076 280.516 70.7013 280.516ZM341.605 277.919C341.503 277.919 341.398 277.893 341.303 277.84C341.004 277.672 340.899 277.295 341.065 276.997C341.371 276.453 341.674 275.904 341.973 275.355C342.136 275.054 342.513 274.945 342.812 275.107C343.111 275.271 343.222 275.646 343.059 275.947C342.757 276.501 342.452 277.053 342.145 277.603C342.032 277.804 341.82 277.919 341.605 277.919ZM66.067 272.004C65.841 272.004 65.6229 271.88 65.5144 271.664C65.2325 271.104 64.9528 270.543 64.6765 269.98C64.5266 269.673 64.653 269.303 64.9595 269.152C65.2672 268.999 65.6363 269.128 65.7873 269.436C66.0614 269.994 66.3377 270.551 66.6184 271.106C66.7728 271.412 66.6497 271.783 66.3444 271.937C66.256 271.983 66.1609 272.004 66.067 272.004ZM346.09 269.288C346 269.288 345.909 269.268 345.823 269.226C345.515 269.079 345.384 268.709 345.533 268.401C345.804 267.837 346.072 267.271 346.336 266.704C346.482 266.394 346.852 266.26 347.157 266.404C347.467 266.548 347.601 266.916 347.457 267.225C347.191 267.798 346.92 268.368 346.647 268.935C346.542 269.159 346.321 269.288 346.09 269.288ZM61.9729 263.221C61.7324 263.221 61.5042 263.081 61.4046 262.846C61.1574 262.271 60.9147 261.694 60.6742 261.114C60.5433 260.798 60.6932 260.437 61.0087 260.305C61.3219 260.174 61.6854 260.323 61.8174 260.639C62.0557 261.215 62.2973 261.787 62.5411 262.358C62.6765 262.672 62.5311 263.036 62.2167 263.171C62.1362 263.205 62.0545 263.221 61.9729 263.221ZM350.028 260.392C349.95 260.392 349.871 260.377 349.795 260.347C349.478 260.218 349.326 259.857 349.454 259.54C349.69 258.96 349.921 258.379 350.15 257.794C350.273 257.475 350.632 257.315 350.952 257.444C351.269 257.568 351.426 257.927 351.302 258.247C351.071 258.834 350.837 259.421 350.601 260.005C350.503 260.246 350.271 260.392 350.028 260.392ZM58.4348 254.207C58.1808 254.207 57.9426 254.049 57.852 253.796C57.6406 253.205 57.4325 252.61 57.2278 252.015C57.1171 251.693 57.2882 251.34 57.6115 251.229C57.9347 251.119 58.2871 251.29 58.3979 251.613C58.6003 252.204 58.8073 252.794 59.0164 253.38C59.1317 253.702 58.9639 254.057 58.6417 254.171C58.5746 254.197 58.5041 254.207 58.4348 254.207ZM353.404 251.26C353.338 251.26 353.273 251.25 353.207 251.228C352.883 251.119 352.709 250.769 352.816 250.445C353.015 249.85 353.211 249.254 353.401 248.657C353.505 248.333 353.857 248.157 354.179 248.258C354.504 248.363 354.683 248.71 354.578 249.036C354.385 249.637 354.189 250.238 353.989 250.838C353.902 251.097 353.662 251.26 353.404 251.26ZM55.4604 244.962C55.1919 244.962 54.9447 244.787 54.8664 244.516C54.6931 243.912 54.523 243.306 54.3552 242.698C54.2646 242.369 54.4581 242.028 54.787 241.937C55.117 241.845 55.457 242.039 55.5477 242.37C55.7132 242.972 55.8821 243.573 56.0544 244.172C56.1495 244.501 55.9593 244.844 55.6316 244.939C55.5745 244.956 55.5163 244.962 55.4604 244.962ZM356.194 241.95C356.142 241.95 356.088 241.944 356.036 241.929C355.704 241.842 355.509 241.503 355.596 241.172C355.756 240.57 355.913 239.965 356.066 239.359C356.15 239.027 356.482 238.825 356.818 238.912C357.149 238.996 357.35 239.333 357.265 239.664C357.109 240.274 356.953 240.883 356.791 241.49C356.718 241.768 356.469 241.95 356.194 241.95ZM53.0688 235.551C52.7847 235.551 52.5297 235.355 52.4648 235.065C52.3295 234.452 52.1975 233.836 52.0688 233.22C51.9983 232.885 52.2131 232.557 52.5476 232.488C52.8854 232.413 53.2098 232.633 53.2791 232.967C53.4067 233.578 53.5375 234.189 53.6729 234.798C53.7467 235.131 53.5364 235.462 53.202 235.536C53.1572 235.547 53.1125 235.551 53.0688 235.551ZM358.395 232.492C358.354 232.492 358.314 232.489 358.273 232.48C357.938 232.413 357.721 232.087 357.787 231.752C357.908 231.141 358.028 230.528 358.143 229.914C358.207 229.578 358.53 229.363 358.866 229.42C359.201 229.484 359.422 229.807 359.358 230.143C359.243 230.762 359.123 231.379 359 231.996C358.942 232.289 358.683 232.492 358.395 232.492ZM51.2701 226.008C50.9704 226.008 50.7075 225.791 50.6594 225.485C50.5621 224.865 50.4692 224.242 50.3786 223.619C50.3294 223.281 50.5643 222.966 50.9021 222.918C51.2455 222.871 51.5543 223.104 51.6035 223.442C51.693 224.061 51.7847 224.678 51.8809 225.294C51.9335 225.632 51.703 225.949 51.3652 226.001C51.335 226.006 51.3026 226.008 51.2701 226.008ZM360.002 222.916C359.974 222.916 359.946 222.913 359.918 222.91C359.579 222.864 359.342 222.552 359.388 222.213C359.472 221.595 359.552 220.976 359.629 220.356C359.67 220.017 359.981 219.77 360.318 219.817C360.657 219.859 360.898 220.169 360.857 220.507C360.781 221.133 360.698 221.757 360.614 222.379C360.572 222.689 360.306 222.916 360.002 222.916ZM50.0699 216.372C49.7544 216.372 49.4849 216.131 49.4547 215.811C49.3965 215.185 49.3417 214.558 49.2902 213.931C49.2634 213.59 49.5162 213.292 49.8562 213.264C50.1907 213.244 50.495 213.49 50.5229 213.83C50.5733 214.454 50.6281 215.075 50.6862 215.697C50.7175 216.037 50.4681 216.338 50.1281 216.371C50.1079 216.371 50.0889 216.372 50.0699 216.372ZM361.01 213.257C360.994 213.257 360.98 213.256 360.964 213.256C360.624 213.232 360.368 212.936 360.391 212.594C360.436 211.972 360.479 211.349 360.517 210.724C360.538 210.383 360.836 210.12 361.172 210.144C361.513 210.166 361.772 210.459 361.752 210.8C361.714 211.429 361.671 212.057 361.626 212.684C361.603 213.008 361.331 213.257 361.01 213.257ZM49.467 206.679C49.1347 206.679 48.8596 206.415 48.8495 206.08C48.8294 205.453 48.8137 204.825 48.8014 204.196C48.7947 203.855 49.0654 203.572 49.4077 203.565C49.8059 203.556 50.0319 203.83 50.0386 204.171C50.0509 204.794 50.0665 205.418 50.0867 206.039C50.0967 206.381 49.8294 206.668 49.4882 206.678C49.4804 206.679 49.4726 206.679 49.467 206.679ZM361.421 203.555C361.418 203.555 361.415 203.555 361.413 203.555C361.07 203.55 360.797 203.27 360.802 202.928C360.81 202.304 360.813 201.68 360.813 201.056L360.812 200.734C360.812 200.393 361.088 200.115 361.431 200.115C361.773 200.115 362.049 200.392 362.049 200.734L362.05 201.049C362.05 201.686 362.047 202.314 362.039 202.943C362.034 203.282 361.758 203.555 361.421 203.555ZM49.4591 196.97C49.4524 196.97 49.4468 196.97 49.4401 196.97C49.0989 196.96 48.8305 196.674 48.8405 196.333C48.8596 195.703 48.8819 195.074 48.9077 194.447C48.9222 194.106 49.2466 193.852 49.5509 193.854C49.892 193.867 50.1571 194.156 50.1437 194.498C50.118 195.12 50.0956 195.745 50.0777 196.37C50.0665 196.704 49.7913 196.97 49.4591 196.97ZM361.223 193.521C360.896 193.521 360.623 193.265 360.606 192.934C360.574 192.311 360.538 191.687 360.498 191.065C360.475 190.723 360.735 190.43 361.076 190.408C361.437 190.388 361.71 190.646 361.733 190.987C361.772 191.614 361.808 192.242 361.841 192.871C361.86 193.212 361.597 193.503 361.257 193.521C361.245 193.521 361.234 193.521 361.223 193.521ZM50.0442 187.275C50.0251 187.275 50.0061 187.274 49.9871 187.273C49.647 187.242 49.3965 186.941 49.4267 186.6C49.4837 185.973 49.5453 185.346 49.6101 184.721C49.6448 184.382 49.9457 184.136 50.2891 184.169C50.6292 184.204 50.8753 184.509 50.8406 184.849C50.7768 185.469 50.7164 186.09 50.6594 186.713C50.6303 187.035 50.3596 187.275 50.0442 187.275ZM360.424 183.842C360.114 183.842 359.846 183.61 359.811 183.294C359.739 182.672 359.665 182.052 359.588 181.433C359.546 181.094 359.787 180.785 360.125 180.742C360.457 180.697 360.772 180.939 360.815 181.279C360.893 181.903 360.967 182.527 361.038 183.153C361.077 183.492 360.833 183.799 360.494 183.838C360.471 183.842 360.447 183.842 360.424 183.842ZM51.2265 177.637C51.1952 177.637 51.1639 177.635 51.1314 177.63C50.7936 177.579 50.5632 177.262 50.6146 176.924C50.7108 176.301 50.8104 175.68 50.9144 175.06C50.9715 174.723 51.2925 174.499 51.627 174.551C51.9637 174.608 52.1907 174.926 52.1348 175.264C52.0319 175.879 51.9324 176.495 51.8373 177.113C51.7903 177.419 51.5263 177.637 51.2265 177.637ZM359.029 174.232C358.735 174.232 358.474 174.022 358.422 173.721C358.312 173.107 358.2 172.492 358.084 171.88C358.019 171.544 358.24 171.22 358.575 171.156C358.916 171.089 359.235 171.313 359.299 171.648C359.416 172.266 359.529 172.885 359.639 173.505C359.699 173.841 359.475 174.163 359.139 174.223C359.101 174.23 359.065 174.232 359.029 174.232ZM53.0062 168.091C52.9626 168.091 52.9178 168.086 52.8731 168.076C52.5397 168.003 52.3283 167.673 52.4022 167.338C52.5375 166.723 52.6751 166.109 52.8172 165.496C52.8932 165.164 53.2277 164.954 53.5599 165.033C53.8921 165.11 54.0991 165.442 54.023 165.776C53.8821 166.384 53.7445 166.992 53.6114 167.603C53.5465 167.893 53.2903 168.091 53.0062 168.091ZM357.039 164.728C356.759 164.728 356.505 164.538 356.438 164.253C356.292 163.646 356.141 163.041 355.987 162.437C355.902 162.106 356.102 161.769 356.433 161.684C356.766 161.599 357.101 161.8 357.184 162.129C357.341 162.739 357.493 163.35 357.64 163.963C357.719 164.296 357.516 164.63 357.183 164.709C357.135 164.722 357.086 164.728 357.039 164.728ZM55.3776 158.674C55.3217 158.674 55.2635 158.666 55.2076 158.65C54.8787 158.556 54.6897 158.214 54.7825 157.884C54.9559 157.28 55.1327 156.675 55.3116 156.073C55.409 155.746 55.7546 155.56 56.0812 155.656C56.4079 155.754 56.5947 156.099 56.4962 156.427C56.3173 157.025 56.1428 157.624 55.9716 158.224C55.8944 158.497 55.6472 158.674 55.3776 158.674ZM354.457 155.367C354.193 155.367 353.949 155.197 353.867 154.931C353.682 154.334 353.494 153.739 353.302 153.145C353.197 152.819 353.374 152.471 353.7 152.365C354.025 152.259 354.373 152.438 354.479 152.764C354.671 153.362 354.861 153.962 355.048 154.563C355.149 154.89 354.966 155.236 354.641 155.337C354.579 155.357 354.518 155.367 354.457 155.367ZM58.3352 149.424C58.2659 149.424 58.1965 149.413 58.1283 149.388C57.8061 149.274 57.6383 148.92 57.7524 148.598C57.9627 148.002 58.1786 147.409 58.3956 146.816C58.5131 146.495 58.871 146.331 59.1898 146.449C59.5109 146.567 59.6753 146.923 59.5567 147.244C59.3408 147.832 59.1272 148.421 58.918 149.012C58.8274 149.266 58.5891 149.424 58.3352 149.424ZM351.295 146.185C351.046 146.185 350.811 146.032 350.717 145.786C350.495 145.203 350.269 144.619 350.04 144.039C349.916 143.721 350.071 143.362 350.389 143.237C350.709 143.11 351.066 143.267 351.192 143.586C351.423 144.17 351.648 144.757 351.872 145.346C351.993 145.666 351.834 146.023 351.514 146.144C351.443 146.171 351.368 146.185 351.295 146.185ZM61.8733 140.357C61.7928 140.357 61.71 140.34 61.6306 140.306C61.3163 140.172 61.1709 139.808 61.3051 139.493C61.5534 138.913 61.804 138.333 62.059 137.757C62.1977 137.444 62.5613 137.302 62.8745 137.441C63.1866 137.58 63.3275 137.945 63.1899 138.257C62.9371 138.829 62.6877 139.404 62.4427 139.98C62.342 140.216 62.1138 140.357 61.8733 140.357ZM347.573 137.235C347.339 137.235 347.114 137.099 347.01 136.871C346.753 136.304 346.493 135.739 346.23 135.176C346.086 134.867 346.219 134.498 346.529 134.353C346.837 134.206 347.205 134.341 347.351 134.651C347.616 135.218 347.879 135.787 348.137 136.358C348.278 136.669 348.141 137.037 347.83 137.178C347.746 137.216 347.658 137.235 347.573 137.235ZM65.9719 131.532C65.879 131.532 65.7828 131.511 65.6945 131.466C65.3891 131.313 65.2672 130.94 65.4204 130.635C65.7034 130.072 65.9909 129.51 66.2806 128.95C66.4383 128.647 66.8119 128.53 67.1151 128.686C67.4182 128.844 67.5357 129.218 67.3791 129.521C67.0916 130.076 66.8064 130.633 66.5256 131.192C66.4148 131.408 66.1978 131.532 65.9719 131.532ZM343.298 128.537C343.078 128.537 342.863 128.418 342.752 128.208C342.46 127.658 342.166 127.111 341.867 126.564C341.703 126.264 341.814 125.888 342.115 125.724C342.417 125.56 342.789 125.673 342.954 125.971C343.255 126.522 343.551 127.074 343.845 127.628C344.006 127.93 343.891 128.304 343.589 128.464C343.496 128.514 343.397 128.537 343.298 128.537ZM70.6096 122.986C70.5033 122.986 70.3959 122.959 70.2975 122.901C70.0033 122.728 69.9038 122.349 70.076 122.054C70.3937 121.51 70.7147 120.968 71.038 120.427C71.2147 120.133 71.594 120.04 71.887 120.215C72.1801 120.391 72.2752 120.772 72.0996 121.065C71.7774 121.602 71.4597 122.139 71.1432 122.679C71.0291 122.877 70.8221 122.986 70.6096 122.986ZM338.494 120.118C338.285 120.118 338.082 120.013 337.965 119.822C337.64 119.291 337.311 118.762 336.979 118.236C336.797 117.947 336.883 117.564 337.173 117.382C337.461 117.199 337.843 117.285 338.026 117.575C338.361 118.106 338.692 118.639 339.021 119.175C339.198 119.468 339.107 119.848 338.816 120.026C338.715 120.089 338.603 120.118 338.494 120.118ZM75.7697 114.748C75.6511 114.748 75.5314 114.714 75.4252 114.643C75.1421 114.452 75.0661 114.067 75.2562 113.784C75.6064 113.261 75.961 112.74 76.3178 112.221C76.5124 111.94 76.8972 111.868 77.178 112.062C77.4599 112.256 77.5304 112.642 77.3368 112.923C76.9822 113.438 76.6321 113.955 76.2831 114.474C76.1645 114.652 75.9699 114.748 75.7697 114.748ZM333.171 112.011C332.977 112.011 332.786 111.921 332.666 111.748C332.308 111.238 331.947 110.729 331.583 110.224C331.383 109.948 331.447 109.56 331.723 109.361C331.998 109.163 332.387 109.222 332.585 109.502C332.952 110.012 333.316 110.523 333.677 111.037C333.874 111.317 333.806 111.704 333.526 111.899C333.418 111.976 333.294 112.011 333.171 112.011ZM81.4298 106.85C81.2989 106.85 81.1669 106.808 81.0539 106.722C80.7821 106.514 80.7318 106.126 80.9387 105.854C81.3202 105.354 81.7061 104.857 82.0942 104.361C82.3045 104.092 82.6927 104.044 82.9623 104.255C83.2307 104.466 83.2777 104.855 83.0674 105.124C82.6826 105.616 82.2989 106.109 81.9209 106.606C81.7989 106.766 81.6155 106.85 81.4298 106.85ZM327.356 104.246C327.175 104.246 326.995 104.167 326.873 104.013C326.483 103.526 326.093 103.042 325.697 102.56C325.481 102.296 325.519 101.905 325.783 101.689C326.045 101.473 326.436 101.51 326.653 101.775C327.052 102.262 327.446 102.75 327.838 103.241C328.051 103.508 328.008 103.897 327.741 104.111C327.629 104.203 327.492 104.246 327.356 104.246ZM87.5642 99.3196C87.421 99.3196 87.2767 99.2692 87.1592 99.1685C86.902 98.9445 86.874 98.5538 87.0977 98.2951C87.5105 97.8192 87.9255 97.3467 88.3427 96.8764C88.5698 96.6212 88.9602 96.5988 89.2164 96.8261C89.4714 97.0534 89.4938 97.4452 89.2667 97.7005C88.8517 98.1663 88.44 98.6355 88.0318 99.1069C87.9098 99.2468 87.7376 99.3196 87.5642 99.3196ZM321.072 96.854C320.904 96.854 320.735 96.7857 320.614 96.6514C320.195 96.1889 319.774 95.7287 319.349 95.2719C319.116 95.0211 319.132 94.6303 319.381 94.3974C319.632 94.1656 320.022 94.1802 320.255 94.4299C320.682 94.8912 321.107 95.3536 321.529 95.8194C321.758 96.0736 321.739 96.4644 321.487 96.6939C321.369 96.8014 321.22 96.854 321.072 96.854ZM94.1516 92.186C93.995 92.186 93.8384 92.1267 93.7176 92.008C93.4737 91.7684 93.4704 91.3765 93.7109 91.1324C94.1516 90.6845 94.5946 90.2389 95.0409 89.7943C95.2836 89.5536 95.6751 89.5536 95.9156 89.7977C96.1561 90.0396 96.155 90.4314 95.9134 90.6733C95.4704 91.1145 95.0308 91.5567 94.5934 92.0013C94.4715 92.1233 94.3116 92.186 94.1516 92.186ZM314.339 89.8626C314.182 89.8626 314.028 89.8044 313.906 89.6868C313.461 89.2502 313.011 88.818 312.56 88.388C312.312 88.1517 312.303 87.7598 312.538 87.5124C312.774 87.2649 313.165 87.256 313.411 87.4911C313.867 87.9244 314.321 88.3611 314.771 88.8012C315.014 89.0397 315.019 89.4315 314.781 89.6768C314.66 89.7999 314.499 89.8626 314.339 89.8626ZM101.164 85.4745C100.995 85.4745 100.826 85.4051 100.704 85.2696C100.476 85.0155 100.496 84.6236 100.75 84.3951C101.218 83.9753 101.688 83.5565 102.16 83.1422C102.415 82.916 102.806 82.9418 103.032 83.1993C103.258 83.4568 103.232 83.8476 102.975 84.0727C102.506 84.4836 102.041 84.8979 101.577 85.3155C101.459 85.4219 101.311 85.4745 101.164 85.4745ZM307.184 83.299C307.041 83.299 306.897 83.2497 306.78 83.1489C306.308 82.7413 305.833 82.3371 305.356 81.9352C305.095 81.7146 305.06 81.3249 305.281 81.0629C305.501 80.8009 305.891 80.7673 306.152 80.9879C306.634 81.3932 307.113 81.8019 307.589 82.2128C307.848 82.4357 307.877 82.8264 307.654 83.0862C307.531 83.2262 307.358 83.299 307.184 83.299ZM108.575 79.2121C108.392 79.2121 108.211 79.1314 108.089 78.978C107.877 78.7104 107.923 78.3208 108.19 78.1091C108.681 77.7184 109.177 77.331 109.672 76.9469C109.942 76.7375 110.331 76.7868 110.54 77.0577C110.748 77.3287 110.699 77.7172 110.429 77.9266C109.937 78.3073 109.446 78.6925 108.958 79.0788C108.844 79.1684 108.709 79.2121 108.575 79.2121ZM299.638 77.1876C299.508 77.1876 299.377 77.1473 299.265 77.0622C298.767 76.6849 298.267 76.3098 297.764 75.938C297.49 75.7343 297.432 75.3468 297.636 75.0725C297.839 74.7971 298.229 74.7422 298.5 74.9437C299.006 75.3177 299.508 75.6962 300.012 76.0758C300.284 76.2818 300.337 76.6703 300.131 76.9424C300.009 77.1025 299.825 77.1876 299.638 77.1876ZM116.356 73.4232C116.16 73.4232 115.968 73.3314 115.848 73.1578C115.652 72.8779 115.722 72.4916 116.002 72.2957C116.518 71.9362 117.034 71.5813 117.554 71.2275C117.837 71.0349 118.222 71.1099 118.413 71.3921C118.604 71.6753 118.53 72.0594 118.248 72.252C117.733 72.6025 117.219 72.9552 116.709 73.3112C116.601 73.3862 116.477 73.4232 116.356 73.4232ZM291.723 71.5544C291.605 71.5544 291.486 71.5208 291.381 71.4503C290.862 71.1043 290.339 70.7617 289.816 70.4213C289.529 70.2354 289.448 69.8525 289.633 69.5647C289.818 69.2781 290.202 69.1941 290.489 69.3811C291.018 69.7237 291.544 70.0697 292.067 70.419C292.352 70.6083 292.428 70.9934 292.239 71.2778C292.119 71.4581 291.923 71.5544 291.723 71.5544ZM124.476 68.1281C124.268 68.1281 124.063 68.0229 123.947 67.8303C123.769 67.538 123.862 67.1573 124.154 66.9804C124.689 66.6546 125.227 66.331 125.767 66.0119C126.062 65.8395 126.441 65.9358 126.613 66.2291C126.788 66.5236 126.691 66.9032 126.396 67.0767C125.861 67.3947 125.326 67.715 124.794 68.0374C124.696 68.099 124.585 68.1281 124.476 68.1281ZM283.472 66.4239C283.367 66.4239 283.26 66.3971 283.163 66.3411C282.624 66.0276 282.081 65.7174 281.536 65.4106C281.238 65.2427 281.133 64.8653 281.301 64.5675C281.469 64.2696 281.845 64.1633 282.143 64.3312C282.692 64.6414 283.241 64.9538 283.784 65.2695C284.08 65.4408 284.18 65.8204 284.009 66.116C283.894 66.3142 283.686 66.4239 283.472 66.4239ZM132.905 63.3515C132.683 63.3515 132.468 63.2317 132.357 63.0212C132.198 62.7189 132.314 62.3449 132.617 62.1848C133.172 61.8925 133.728 61.6036 134.287 61.3192C134.59 61.1636 134.964 61.2845 135.119 61.5902C135.275 61.8948 135.153 62.2676 134.848 62.4233C134.295 62.7054 133.743 62.9921 133.193 63.2821C133.101 63.328 133.003 63.3515 132.905 63.3515ZM274.918 61.8141C274.825 61.8141 274.73 61.794 274.642 61.7492C274.083 61.4704 273.522 61.1949 272.958 60.9229C272.651 60.7739 272.521 60.4044 272.67 60.0965C272.82 59.7875 273.193 59.661 273.495 59.8076C274.064 60.082 274.631 60.3608 275.195 60.6418C275.5 60.7941 275.624 61.1658 275.472 61.4726C275.362 61.6899 275.144 61.8141 274.918 61.8141ZM141.613 59.1112C141.375 59.1112 141.151 58.9746 141.048 58.745C140.908 58.4338 141.047 58.0676 141.359 57.9277C141.929 57.6712 142.502 57.4182 143.077 57.1685C143.391 57.0308 143.755 57.1763 143.891 57.4887C144.028 57.8023 143.884 58.1673 143.571 58.3039C143.001 58.5524 142.433 58.8033 141.865 59.0574C141.783 59.0933 141.697 59.1112 141.613 59.1112ZM266.085 57.7496C266.004 57.7496 265.921 57.7339 265.843 57.7004C265.268 57.4563 264.691 57.2155 264.11 56.9793C263.795 56.8505 263.643 56.4888 263.771 56.172C263.899 55.8551 264.261 55.7039 264.578 55.8327C265.162 56.0712 265.745 56.313 266.326 56.5594C266.641 56.6926 266.787 57.0565 266.654 57.3712C266.554 57.6074 266.325 57.7496 266.085 57.7496ZM150.56 55.4229C150.31 55.4229 150.075 55.2695 149.981 55.0209C149.861 54.7007 150.023 54.3446 150.342 54.2237C150.931 54.002 151.52 53.7848 152.112 53.5709C152.432 53.4556 152.787 53.6213 152.904 53.9426C153.02 54.264 152.853 54.6189 152.532 54.7354C151.946 54.947 151.361 55.1642 150.777 55.3837C150.706 55.4106 150.633 55.4229 150.56 55.4229ZM257.014 54.2438C256.946 54.2438 256.877 54.2326 256.809 54.2091C256.219 54.002 255.626 53.7982 255.032 53.5978C254.708 53.488 254.535 53.1376 254.644 52.8129C254.752 52.4893 255.103 52.3168 255.427 52.4243C256.025 52.6259 256.621 52.8319 257.218 53.0402C257.54 53.1533 257.71 53.506 257.597 53.8295C257.508 54.0837 257.269 54.2438 257.014 54.2438ZM159.746 52.2956C159.481 52.2956 159.236 52.1243 159.154 51.8566C159.055 51.5297 159.238 51.1837 159.565 51.084C160.166 50.9004 160.769 50.7201 161.372 50.5432C161.702 50.4503 162.044 50.6362 162.139 50.9631C162.234 51.2912 162.046 51.6349 161.719 51.7312C161.12 51.9059 160.524 52.0851 159.926 52.2676C159.866 52.2866 159.806 52.2956 159.746 52.2956ZM247.752 51.3203C247.697 51.3203 247.64 51.3125 247.585 51.2968C246.986 51.1277 246.384 50.962 245.781 50.8008C245.451 50.7123 245.255 50.373 245.344 50.0427C245.433 49.7135 245.765 49.5198 246.102 49.6049C246.709 49.7684 247.316 49.9352 247.92 50.1054C248.249 50.1984 248.441 50.5399 248.348 50.8691C248.271 51.1412 248.024 51.3203 247.752 51.3203ZM169.108 49.7494C168.828 49.7494 168.574 49.5579 168.507 49.2735C168.428 48.9409 168.632 48.6073 168.965 48.5278C169.575 48.3822 170.188 48.2389 170.802 48.1012C171.136 48.0273 171.467 48.2366 171.542 48.5692C171.617 48.9029 171.408 49.2343 171.074 49.3093C170.465 49.447 169.857 49.587 169.252 49.7314C169.204 49.7426 169.156 49.7494 169.108 49.7494ZM238.336 48.9835C238.292 48.9835 238.248 48.979 238.205 48.9701C237.595 48.839 236.985 48.7114 236.374 48.5882C236.038 48.5199 235.822 48.1941 235.889 47.8593C235.957 47.5234 236.289 47.3118 236.617 47.3745C237.234 47.4988 237.85 47.6275 238.463 47.7597C238.798 47.8313 239.009 48.1605 238.937 48.4953C238.877 48.7842 238.621 48.9835 238.336 48.9835ZM178.611 47.7944C178.316 47.7944 178.054 47.5827 178.003 47.2815C177.945 46.9445 178.171 46.6243 178.507 46.5661C179.126 46.4586 179.746 46.3555 180.368 46.2559C180.709 46.1977 181.021 46.4317 181.077 46.7687C181.13 47.1069 180.901 47.4237 180.564 47.4786C179.948 47.5771 179.332 47.6802 178.719 47.7865C178.682 47.7921 178.646 47.7944 178.611 47.7944ZM228.792 47.2412C228.761 47.2412 228.73 47.239 228.699 47.2345C228.081 47.1416 227.464 47.052 226.846 46.9669C226.509 46.9199 226.271 46.6075 226.318 46.2693C226.365 45.9312 226.672 45.6983 227.016 45.7408C227.64 45.827 228.26 45.9178 228.882 46.0107C229.22 46.0611 229.453 46.3768 229.402 46.715C229.357 47.0207 229.093 47.2412 228.792 47.2412ZM188.217 46.4362C187.906 46.4362 187.637 46.2022 187.603 45.8853C187.565 45.5449 187.811 45.2392 188.15 45.2023C188.774 45.134 189.399 45.069 190.027 45.0085C190.373 44.9694 190.669 45.2247 190.702 45.565C190.735 45.9054 190.486 46.2077 190.146 46.2413C189.524 46.3018 188.905 46.3656 188.286 46.4339C188.263 46.4351 188.239 46.4362 188.217 46.4362ZM219.158 46.0969C219.139 46.0969 219.123 46.0969 219.104 46.0947C218.482 46.0409 217.861 45.9905 217.239 45.9435C216.898 45.9177 216.643 45.621 216.667 45.2795C216.693 44.938 217.008 44.6794 217.331 44.7085C217.959 44.7555 218.584 44.807 219.211 44.8608C219.551 44.8899 219.803 45.1911 219.774 45.5315C219.744 45.8539 219.475 46.0969 219.158 46.0969ZM197.889 45.677C197.56 45.677 197.287 45.4195 197.272 45.0869C197.256 44.7454 197.519 44.4554 197.86 44.4397C198.488 44.4106 199.115 44.3838 199.744 44.3614C200.06 44.3412 200.371 44.6155 200.384 44.9582C200.396 45.2997 200.129 45.5863 199.788 45.5986C199.163 45.621 198.54 45.6468 197.918 45.6759C197.909 45.677 197.899 45.677 197.889 45.677ZM209.471 45.5505C209.466 45.5505 209.461 45.5505 209.456 45.5505C208.833 45.5348 208.209 45.5225 207.584 45.5135C207.243 45.5091 206.97 45.228 206.975 44.8854C206.979 44.5461 207.255 44.2751 207.593 44.2751C207.596 44.2751 207.599 44.2751 207.602 44.2751C208.232 44.2841 208.859 44.2964 209.487 44.3121C209.828 44.3199 210.098 44.6043 210.09 44.9458C210.081 45.2829 209.805 45.5505 209.471 45.5505Z" fill="white"/>
</g>
<path d="M389.716 102.3H302.805V151.237H389.716V102.3Z" fill="#FD3C3C"/>
<path d="M352.002 140.438C359.544 137.281 363.101 128.601 359.948 121.051C356.794 113.501 348.122 109.94 340.58 113.097C333.038 116.254 329.48 124.934 332.634 132.484C335.788 140.034 344.459 143.595 352.002 140.438Z" fill="#DD2525"/>
<path d="M389.716 150.267H302.805V159.787H389.716V150.267Z" fill="#1E1E1E"/>
<path d="M383.734 155.553H313.053C312.711 155.553 312.435 155.277 312.435 154.934C312.435 154.593 312.711 154.315 313.053 154.315H383.734C384.076 154.315 384.353 154.591 384.353 154.934C384.353 155.276 384.075 155.553 383.734 155.553Z" fill="white"/>
<path d="M308.787 156.853C308.445 156.853 308.168 156.576 308.168 156.234V153.82C308.168 153.478 308.445 153.201 308.787 153.201C309.129 153.201 309.406 153.478 309.406 153.82V156.234C309.406 156.576 309.128 156.853 308.787 156.853Z" fill="white"/>
<path d="M310.271 156.853C309.929 156.853 309.653 156.576 309.653 156.234V153.82C309.653 153.478 309.929 153.201 310.271 153.201C310.614 153.201 310.89 153.478 310.89 153.82V156.234C310.89 156.576 310.614 156.853 310.271 156.853Z" fill="white"/>
<path d="M354.62 126.769L342.099 119.531V134.006L354.62 126.769Z" fill="#FD3C3C"/>
<path d="M238.414 431.153L238.514 404.762L251.304 404.778L251.204 431.17L238.414 431.153Z" fill="#E4FDE1"/>
<path d="M220.869 427.9L231.803 427.868L234.18 420.889C234.659 419.482 235.743 418.572 236.942 418.568L239.904 418.559C240.339 418.557 240.492 418.786 240.517 419.224C240.761 422.895 241.117 424.655 243.302 424.649L251.103 424.625C252.989 424.62 254.524 426.572 254.531 428.986C254.531 428.986 254.55 439.091 254.496 439.578L212.953 439.702C212.896 439.215 212.865 438.718 212.864 438.212C212.846 432.53 216.431 427.914 220.869 427.9Z" fill="#303030"/>
<path d="M253.56 273.116H236.276V412.291H253.56V273.116Z" fill="#1E1E1E"/>
<path d="M275.735 430.996L275.836 404.605L288.626 404.622L288.525 431.013L275.735 430.996Z" fill="#E4FDE1"/>
<path d="M258.191 427.744L269.126 427.711L271.503 420.732C271.981 419.326 273.065 418.415 274.264 418.411L277.226 418.402C277.662 418.401 277.815 418.629 277.839 419.067C278.083 422.739 278.44 424.499 280.625 424.492L288.426 424.468C290.312 424.463 291.847 426.416 291.853 428.83C291.853 428.83 291.872 438.934 291.819 439.421L250.276 439.545C250.219 439.058 250.188 438.561 250.187 438.054C250.169 432.374 253.753 427.757 258.191 427.744Z" fill="#1E1E1E"/>
<path d="M175.556 204.39C166.883 204.39 157.353 203.246 146.935 200.719L149.965 188.205C209.871 202.739 227.039 166.054 230.875 154.465L243.086 158.514C235.182 182.394 213.586 204.39 175.556 204.39Z" fill="#1E1E1E"/>
<path d="M231.079 248.155H288.776C289.814 248.155 290.656 247.313 290.656 246.274V169.326C290.656 157.987 281.474 148.797 270.147 148.797H250.045C238.532 148.797 229.2 158.139 229.2 169.663V246.274C229.2 247.313 230.041 248.155 231.079 248.155Z" fill="#F3E8E8"/>
<path d="M244.659 253.548H265.933V219.129H244.659V253.548Z" fill="#1E1E1E"/>
<path d="M290.656 278.214H237.053C232.715 278.214 229.2 274.693 229.2 270.348V252.112H290.656V278.214Z" fill="#303030"/>
<path d="M290.673 250.072H229.182V258.553H290.673V250.072Z" fill="#1E1E1E"/>
<path d="M257.208 259.492H246.079C244.726 259.492 243.628 258.393 243.628 257.038V251.727C243.628 250.372 244.726 249.273 246.079 249.273H257.208C258.562 249.273 259.659 250.372 259.659 251.727V257.038C259.659 258.393 258.562 259.492 257.208 259.492Z" fill="#EFF4DF"/>
<path d="M257.426 154.159H258.39C262.251 154.159 265.38 151.026 265.38 147.163V135.664C265.38 131.8 262.251 128.667 258.39 128.667H257.426C253.566 128.667 250.436 131.8 250.436 135.664V147.163C250.436 151.026 253.566 154.159 257.426 154.159Z" fill="#F1797A"/>
<path d="M250.481 161.432L256.234 161.409L257.523 213.187L248.4 213.48L250.481 161.432Z" fill="#FD3C3C"/>
<path d="M259.154 152.775L256.271 161.601L250.458 161.633L247.527 152.839L259.154 152.775Z" fill="#C10C44"/>
<path d="M246.143 216.157L270.732 148.698C295.122 148.698 293.39 157.727 293.39 168.863V253.547H253.811L246.143 216.157Z" fill="#303030"/>
<path d="M246.786 148.977C226.601 148.977 229.075 158.625 229.075 168.864V253.548H249.112C249.112 253.548 247.571 148.977 246.786 148.977Z" fill="#303030"/>
<path d="M257.752 164.422L272.379 148.605L265.448 141.915L253.435 152.826L257.752 164.422Z" fill="#E0DADA"/>
<path d="M248.305 164.422L253.435 152.947L250.529 143.734L246.997 148.814L248.305 164.422Z" fill="#E0DADA"/>
<path d="M270.859 147.171C273.584 148.873 275.345 151.764 275.607 154.969L275.872 158.211L272.155 160.366L274.777 165.543L248.399 210.014L270.859 147.171Z" fill="#1E1E1E"/>
<path d="M242.456 160.832L240.075 157.609L241.126 154.618C242.165 151.662 244.308 149.479 246.907 148.731L248.653 213.245L239.038 164.909L242.456 160.832Z" fill="#1E1E1E"/>
<path d="M248.79 86.8317L248.836 105.643C248.848 110.757 244.716 114.915 239.606 114.927C234.538 114.94 230.419 110.837 230.407 105.764L230.383 96.1386C230.371 91.0238 234.503 86.8664 239.613 86.8541L248.79 86.8317Z" fill="#303030"/>
<path d="M234.624 104.91L234.656 118.152C232.298 117.54 230.551 115.405 230.544 112.852L230.538 110.229C230.532 107.677 232.269 105.533 234.624 104.91Z" fill="#F1797A"/>
<path d="M234.631 124.692L234.532 88.4709L273.314 88.3757L273.823 120.731C273.822 145.492 234.631 151.93 234.631 124.692Z" fill="#F69996"/>
<path d="M243.539 111.706C243.541 112.78 242.675 113.653 241.602 113.655C240.529 113.657 239.657 112.79 239.654 111.716C239.652 110.642 240.519 109.769 241.592 109.766C242.666 109.764 243.537 110.632 243.539 111.706Z" fill="#082951"/>
<path d="M258.858 111.669C258.86 112.743 257.994 113.616 256.92 113.618C255.847 113.62 254.976 112.753 254.972 111.679C254.97 110.605 255.837 109.732 256.91 109.729C257.983 109.726 258.856 110.595 258.858 111.669Z" fill="#082951"/>
<path d="M252.948 104.307L260.222 104.289C260.723 104.288 261.129 103.88 261.128 103.377C261.127 102.875 260.719 102.469 260.217 102.471L252.943 102.488C252.441 102.49 252.036 102.897 252.037 103.4C252.038 103.903 252.445 104.308 252.948 104.307Z" fill="#082951"/>
<path d="M237.803 100.814L245.078 100.797C245.579 100.795 245.986 100.388 245.984 99.8851C245.983 99.3824 245.575 98.977 245.074 98.9782L237.8 98.9961C237.298 98.9972 236.892 99.4059 236.894 99.9075C236.895 100.409 237.302 100.816 237.803 100.814Z" fill="#082951"/>
<path d="M259.439 119.799C259.741 119.798 259.962 120.08 259.895 120.374C258.705 125.599 253.681 129.49 248.574 129.503C243.464 129.516 239.927 125.642 238.82 120.418C238.758 120.126 238.975 119.849 239.274 119.849L259.439 119.799Z" fill="#EFF4DF"/>
<path d="M248.827 117.745C246.407 117.745 245.306 116.597 245.08 115.521C244.812 114.24 245.655 112.462 248.138 111.374C248.384 111.266 248.667 111.379 248.772 111.623C248.88 111.867 248.768 112.151 248.524 112.258C246.536 113.129 245.835 114.426 246.023 115.322C246.211 116.223 247.284 116.781 248.826 116.781C249.092 116.781 249.308 116.997 249.308 117.264C249.309 117.529 249.094 117.745 248.827 117.745Z" fill="#F1797A"/>
<path d="M268.332 86.7835L268.382 107.281C268.392 111.464 271.789 114.848 275.968 114.838C280.114 114.827 283.466 111.455 283.456 107.305L283.425 94.3213C283.415 90.137 280.018 86.7543 275.838 86.7644L268.332 86.7835Z" fill="#1E1E1E"/>
<path d="M275.435 104.626L273.353 104.631L273.387 118.243L275.468 118.237C278.5 118.229 280.951 115.764 280.944 112.729L280.937 110.106C280.929 107.072 278.466 104.618 275.435 104.626Z" fill="#F69996"/>
<path d="M277.049 86.7185C277.033 79.9208 271.515 74.4242 264.724 74.441L258.962 74.4556C255.977 74.4634 253.552 72.0471 253.544 69.0597L253.53 63.1936L245.153 63.2138C238.71 63.2294 233.44 68.2031 232.931 74.5183H232.887L232.889 75.4532C232.889 75.4857 232.887 75.5193 232.887 75.5517L232.907 83.8353H232.949C233.441 90.1963 238.756 95.1969 245.233 95.1812L277.07 95.1028L277.049 86.7185Z" fill="#1E1E1E"/>
<path d="M273.397 412.29H290.681V273.116H273.397V412.29Z" fill="#303030"/>
<path d="M82.9495 191.562H14.6099V237.325H82.9495V191.562Z" fill="white"/>
<path d="M48.7181 218.801C48.6006 218.801 48.4832 218.767 48.3814 218.701L19.139 199.672C18.8526 199.485 18.771 199.102 18.9578 198.815C19.1446 198.529 19.5283 198.448 19.8135 198.634L48.7181 217.443L77.6227 198.634C77.9068 198.447 78.2916 198.527 78.4784 198.815C78.6652 199.102 78.5835 199.485 78.2972 199.672L49.0559 218.701C48.953 218.767 48.8355 218.801 48.7181 218.801Z" fill="#303030"/>
<path d="M19.477 229.114C19.2745 229.114 19.0765 229.015 18.9579 228.832C18.7722 228.546 18.8539 228.161 19.1403 227.976L41.6923 213.35C41.9798 213.165 42.3612 213.246 42.548 213.533C42.7337 213.819 42.6521 214.203 42.3657 214.389L19.8137 229.014C19.7085 229.082 19.5922 229.114 19.477 229.114Z" fill="#303030"/>
<path d="M77.9584 229.114C77.8421 229.114 77.7257 229.082 77.6217 229.015L55.0697 214.319C54.7833 214.132 54.7027 213.749 54.8884 213.462C55.0752 213.175 55.4578 213.095 55.7442 213.281L78.2962 227.978C78.5826 228.164 78.6631 228.548 78.4774 228.834C78.3589 229.015 78.1609 229.114 77.9584 229.114Z" fill="#303030"/>
<path d="M86.5255 202.093C91.7004 200.135 94.3098 194.349 92.3538 189.169C90.3978 183.99 84.6171 181.379 79.4422 183.337C74.2673 185.295 71.6579 191.081 73.6139 196.26C75.5699 201.44 81.3506 204.051 86.5255 202.093Z" fill="#FD3C3C"/>
<path d="M83.3551 194.923C82.8796 194.923 82.4557 194.841 82.0835 194.678C81.7136 194.514 81.4195 194.288 81.2009 193.997C80.9848 193.704 80.8671 193.364 80.8479 192.977H81.7557C81.7749 193.215 81.8565 193.421 82.0006 193.593C82.1447 193.764 82.3332 193.896 82.5662 193.99C82.7991 194.083 83.0573 194.13 83.3406 194.13C83.6576 194.13 83.9386 194.075 84.1836 193.965C84.4285 193.854 84.6206 193.7 84.7599 193.503C84.8992 193.306 84.9689 193.078 84.9689 192.819C84.9689 192.548 84.9016 192.309 84.7671 192.102C84.6326 191.893 84.4357 191.73 84.1764 191.612C83.917 191.495 83.6 191.436 83.2254 191.436H82.6346V190.643H83.2254C83.5184 190.643 83.7753 190.59 83.9963 190.485C84.2196 190.379 84.3937 190.23 84.5186 190.038C84.6459 189.846 84.7095 189.62 84.7095 189.361C84.7095 189.111 84.6543 188.894 84.5438 188.709C84.4333 188.524 84.2772 188.38 84.0755 188.277C83.8762 188.173 83.6408 188.122 83.3695 188.122C83.1149 188.122 82.8748 188.169 82.649 188.262C82.4257 188.353 82.2432 188.487 82.1015 188.662C81.9598 188.835 81.8829 189.044 81.8709 189.289H81.0064C81.0208 188.902 81.1373 188.564 81.3558 188.273C81.5743 187.98 81.8601 187.752 82.2131 187.589C82.5686 187.425 82.9588 187.344 83.3839 187.344C83.8402 187.344 84.2316 187.436 84.5582 187.621C84.8848 187.803 85.1358 188.045 85.3111 188.345C85.4864 188.645 85.574 188.969 85.574 189.318C85.574 189.733 85.4648 190.087 85.2462 190.38C85.0301 190.673 84.7359 190.876 84.3637 190.989V191.047C84.8296 191.124 85.1934 191.322 85.4552 191.641C85.7169 191.958 85.8478 192.351 85.8478 192.819C85.8478 193.22 85.7385 193.58 85.52 193.9C85.3039 194.217 85.0085 194.466 84.6338 194.649C84.2592 194.831 83.833 194.923 83.3551 194.923Z" fill="white"/>
<path d="M124.022 111.562H62.1172V155.824H82.3951L104.885 178.335V155.824H124.022V111.562Z" fill="white"/>
<path d="M94.7692 122.415H67.9531C67.6119 122.415 67.3345 122.137 67.3345 121.795C67.3345 121.454 67.6119 121.176 67.9531 121.176H94.7692C95.1104 121.176 95.3878 121.453 95.3878 121.795C95.3867 122.137 95.1104 122.415 94.7692 122.415Z" fill="#303030"/>
<path d="M85.3551 133.051H67.9531C67.6119 133.051 67.3345 132.774 67.3345 132.431C67.3345 132.089 67.6119 131.812 67.9531 131.812H85.3551C85.6963 131.812 85.9737 132.089 85.9737 132.431C85.9737 132.774 85.6963 133.051 85.3551 133.051Z" fill="#303030"/>
<path d="M113.597 133.075H93.0566C92.7154 133.075 92.438 132.799 92.438 132.456C92.438 132.115 92.7154 131.837 93.0566 131.837H113.596C113.937 131.837 114.215 132.115 114.215 132.456C114.215 132.798 113.939 133.075 113.597 133.075Z" fill="#303030"/>
<path d="M106.751 143.688H67.9531C67.6119 143.688 67.3345 143.411 67.3345 143.069C67.3345 142.726 67.6119 142.449 67.9531 142.449H106.751C107.092 142.449 107.369 142.726 107.369 143.069C107.369 143.411 107.092 143.688 106.751 143.688Z" fill="#303030"/>
<path d="M353.027 179.918H414.932V224.179H394.654L372.164 246.69V224.179H353.027V179.918Z" fill="white"/>
<path d="M409.096 190.769H382.28C381.937 190.769 381.661 190.491 381.661 190.15C381.661 189.808 381.937 189.531 382.28 189.531H409.096C409.438 189.531 409.714 189.808 409.714 190.15C409.713 190.491 409.437 190.769 409.096 190.769Z" fill="#303030"/>
<path d="M409.096 201.405H391.694C391.351 201.405 391.075 201.128 391.075 200.786C391.075 200.444 391.351 200.167 391.694 200.167H409.096C409.438 200.167 409.714 200.444 409.714 200.786C409.713 201.128 409.437 201.405 409.096 201.405Z" fill="#303030"/>
<path d="M383.991 201.43H363.452C363.109 201.43 362.833 201.152 362.833 200.81C362.833 200.469 363.109 200.191 363.452 200.191H383.991C384.334 200.191 384.61 200.469 384.61 200.81C384.61 201.152 384.334 201.43 383.991 201.43Z" fill="#303030"/>
<path d="M409.096 212.042H370.298C369.956 212.042 369.68 211.766 369.68 211.423C369.68 211.081 369.956 210.804 370.298 210.804H409.096C409.438 210.804 409.714 211.081 409.714 211.423C409.713 211.766 409.437 212.042 409.096 212.042Z" fill="#303030"/>
<path d="M97.0788 259.219L103.066 271.359L116.451 273.307L106.765 282.757L109.051 296.1L97.0788 289.801L85.1075 296.1L87.394 282.757L77.708 273.307L91.0932 271.359L97.0788 259.219Z" fill="#FFCC33"/>
<g opacity="0.2">
<path d="M97.0788 289.801V259.219L91.0932 271.359L77.708 273.307L87.394 282.757L85.1075 296.1L97.0788 289.801Z" fill="black"/>
</g>
<path d="M206.493 289.36C206.395 289.36 206.297 289.336 206.206 289.288L199.3 285.655L192.395 289.288C192.185 289.399 191.934 289.38 191.742 289.241C191.552 289.102 191.457 288.868 191.496 288.635L192.815 280.938L187.229 275.487C187.06 275.322 187 275.077 187.072 274.853C187.145 274.629 187.339 274.465 187.571 274.432L195.292 273.309L198.745 266.305C198.953 265.883 199.646 265.883 199.853 266.305L203.307 273.309L211.027 274.432C211.26 274.465 211.453 274.629 211.526 274.853C211.599 275.077 211.538 275.323 211.369 275.487L205.783 280.938L207.102 288.635C207.142 288.868 207.046 289.102 206.856 289.241C206.75 289.321 206.622 289.36 206.493 289.36ZM199.3 284.337C199.398 284.337 199.498 284.36 199.587 284.407L205.671 287.609L204.509 280.827C204.474 280.625 204.541 280.421 204.687 280.279L209.609 275.475L202.806 274.486C202.605 274.457 202.432 274.33 202.341 274.148L199.299 267.977L196.256 274.148C196.165 274.33 195.992 274.455 195.791 274.486L188.988 275.475L193.91 280.279C194.056 280.421 194.123 280.626 194.088 280.827L192.927 287.609L199.011 284.407C199.102 284.36 199.201 284.337 199.3 284.337Z" fill="white"/>
<path d="M136.307 266.579L139.904 273.874L147.947 275.044L142.127 280.722L143.501 288.741L136.307 284.955L129.113 288.741L130.487 280.722L124.668 275.044L132.711 273.874L136.307 266.579Z" fill="#FFCC33"/>
<g opacity="0.2">
<path d="M136.307 284.955V266.579L132.711 273.874L124.668 275.044L130.487 280.722L129.113 288.741L136.307 284.955Z" fill="black"/>
</g>
<path d="M167.803 266.579L171.4 273.874L179.443 275.044L173.623 280.722L174.997 288.741L167.803 284.955L160.609 288.741L161.983 280.722L156.164 275.044L164.207 273.874L167.803 266.579Z" fill="#FFCC33"/>
<g opacity="0.2">
<path d="M167.803 284.955V266.579L164.207 273.874L156.164 275.044L161.983 280.722L160.609 288.741L167.803 284.955Z" fill="black"/>
</g>
<path d="M336.334 351.43C336.789 353.878 337.751 356.147 339.106 358.124L335.69 361.544L340.254 366.112L343.67 362.692C345.646 364.049 347.913 365.011 350.357 365.467V370.302H356.812V365.467C359.257 365.012 361.523 364.049 363.499 362.692L366.915 366.112L371.479 361.544L368.062 358.124C369.418 356.147 370.379 353.878 370.834 351.43H375.664V344.97H370.834C370.38 342.522 369.418 340.254 368.062 338.276L371.479 334.857L366.915 330.288L363.499 333.708C361.523 332.351 359.257 331.389 356.812 330.933V326.098H350.357V330.933C347.912 331.388 345.646 332.351 343.67 333.708L340.254 330.288L335.69 334.857L339.106 338.276C337.751 340.254 336.79 342.523 336.334 344.97H331.504V351.43H336.334ZM343.256 348.208C343.256 342.504 347.876 337.88 353.574 337.88C359.272 337.88 363.892 342.504 363.892 348.208C363.892 353.912 359.272 358.536 353.574 358.536C347.875 358.536 343.256 353.912 343.256 348.208Z" fill="#1E1E1E"/>
<path d="M309.915 391.772C310.369 394.22 311.331 396.488 312.686 398.466L309.27 401.885L313.834 406.454L317.25 403.034C319.226 404.391 321.493 405.353 323.937 405.809V410.643H330.392V405.809C332.837 405.354 335.103 404.391 337.079 403.034L340.495 406.454L345.059 401.885L341.643 398.466C342.998 396.488 343.959 394.22 344.414 391.772H349.244V385.311H344.414C343.96 382.864 342.998 380.595 341.643 378.618L345.059 375.198L340.495 370.63L337.079 374.049C335.103 372.692 332.836 371.731 330.392 371.275V366.44H323.937V371.275C321.492 371.729 319.226 372.692 317.25 374.049L313.834 370.63L309.27 375.198L312.686 378.618C311.331 380.595 310.37 382.865 309.915 385.311H305.084V391.772H309.915ZM316.836 388.548C316.836 382.845 321.456 378.22 327.154 378.22C332.853 378.22 337.472 382.845 337.472 388.548C337.472 394.252 332.853 398.877 327.154 398.877C321.455 398.877 316.836 394.252 316.836 388.548Z" fill="#FD3C3C"/>
<path d="M353.57 355.471C349.528 355.471 346.24 352.181 346.24 348.134C346.24 344.088 349.527 340.797 353.57 340.797C357.611 340.797 360.9 344.087 360.9 348.134C360.9 352.179 357.611 355.471 353.57 355.471ZM353.57 342.035C350.21 342.035 347.477 344.77 347.477 348.134C347.477 351.498 350.21 354.233 353.57 354.233C356.93 354.233 359.663 351.498 359.663 348.134C359.663 344.77 356.93 342.035 353.57 342.035Z" fill="white"/>
<path d="M327.097 395.966C323.056 395.966 319.767 392.676 319.767 388.629C319.767 384.584 323.055 381.292 327.097 381.292C331.139 381.292 334.427 384.582 334.427 388.629C334.427 392.675 331.139 395.966 327.097 395.966ZM327.097 382.53C323.737 382.53 321.004 385.265 321.004 388.629C321.004 391.993 323.737 394.728 327.097 394.728C330.458 394.728 333.19 391.993 333.19 388.629C333.19 385.265 330.458 382.53 327.097 382.53Z" fill="white"/>
<path d="M199.751 390.892C204.005 390.892 207.453 387.44 207.453 383.182C207.453 378.923 204.005 375.471 199.751 375.471C195.496 375.471 192.048 378.923 192.048 383.182C192.048 387.44 195.496 390.892 199.751 390.892Z" fill="#FFCC33"/>
<path d="M199.75 389.917C196.04 389.917 193.021 386.896 193.021 383.181C193.021 379.467 196.04 376.444 199.75 376.444C203.461 376.444 206.48 379.465 206.48 383.181C206.48 386.896 203.461 389.917 199.75 389.917ZM199.75 377.684C196.721 377.684 194.257 380.151 194.257 383.182C194.257 386.213 196.721 388.679 199.75 388.679C202.78 388.679 205.244 386.213 205.244 383.182C205.243 380.151 202.779 377.684 199.75 377.684Z" fill="white"/>
<path d="M317.685 245.069C321.939 245.069 325.387 241.617 325.387 237.359C325.387 233.1 321.939 229.648 317.685 229.648C313.431 229.648 309.982 233.1 309.982 237.359C309.982 241.617 313.431 245.069 317.685 245.069Z" fill="#FFCC33"/>
<path d="M317.685 244.095C313.974 244.095 310.954 241.074 310.954 237.359C310.954 233.643 313.973 230.622 317.685 230.622C321.395 230.622 324.414 233.645 324.414 237.359C324.414 241.073 321.395 244.095 317.685 244.095ZM317.685 231.861C314.656 231.861 312.191 234.328 312.191 237.36C312.191 240.391 314.656 242.857 317.685 242.857C320.713 242.857 323.177 240.391 323.177 237.36C323.177 234.328 320.713 231.861 317.685 231.861Z" fill="white"/>
<path d="M14.5943 140.087C18.8483 140.087 22.2969 136.635 22.2969 132.377C22.2969 128.118 18.8483 124.666 14.5943 124.666C10.3402 124.666 6.8916 128.118 6.8916 132.377C6.8916 136.635 10.3402 140.087 14.5943 140.087Z" fill="#FFCC33"/>
<path d="M14.5942 139.113C10.8838 139.113 7.86475 136.091 7.86475 132.377C7.86475 128.663 10.8838 125.64 14.5942 125.64C18.3046 125.64 21.3237 128.663 21.3237 132.377C21.3237 136.091 18.3057 139.113 14.5942 139.113ZM14.5942 126.878C11.5651 126.878 9.1008 129.344 9.1008 132.377C9.1008 135.409 11.5651 137.875 14.5942 137.875C17.6234 137.875 20.0877 135.409 20.0877 132.377C20.0877 129.344 17.6234 126.878 14.5942 126.878Z" fill="white"/>
<path d="M170.607 92.7852L170.588 58.8739C151.843 58.8213 136.64 74.0447 136.696 92.8053L170.607 92.7852Z" fill="#F7F9F9"/>
<path d="M174.885 63.2855C174.924 63.2855 174.962 63.2878 175.001 63.2889L175.02 97.1979L141.111 97.2169C141.111 97.1889 141.109 97.1621 141.109 97.1341C141.121 117.936 159.887 134.342 181.392 130.339C194.929 127.819 205.602 117.124 208.103 103.571C212.077 82.0405 195.666 63.2743 174.885 63.2855Z" fill="#FD3C3C"/>
<path d="M145.196 150.985H169.618V211.024C169.618 222.89 175.472 229.751 187.041 229.751C198.608 229.751 204.749 222.89 204.749 211.024V150.985H229.171V210.882C229.171 238.615 209.748 252.338 186.612 252.338C163.334 252.338 145.197 238.615 145.197 210.882L145.196 150.985Z" fill="#C10C44"/>
<path d="M134.242 150.985H158.663V211.024C158.663 222.89 164.518 229.751 176.086 229.751C187.654 229.751 193.795 222.89 193.795 211.024V150.985H218.216V210.882C218.216 238.615 198.794 252.338 175.658 252.338C152.38 252.338 134.243 238.615 134.243 210.882L134.242 150.985Z" fill="#FD3C3C"/>
<path d="M218.289 171.274V150.851H193.805V171.274H218.289Z" fill="#F7F9F9"/>
<path d="M158.649 171.274V150.851H134.165V171.274H158.649Z" fill="#F7F9F9"/>
<path d="M169.692 150.753H158.581V171.274H169.692V150.753Z" fill="#AFAFAF"/>
<path d="M229.158 150.753H218.203V171.274H229.158V150.753Z" fill="#AFAFAF"/>
<path d="M253.218 230.353C243.956 230.353 234.364 228.613 225.038 225.127C222.431 224.152 221.105 221.245 222.08 218.634C223.053 216.024 225.95 214.698 228.567 215.672C244.952 221.799 262.845 221.704 276.422 215.418C278.949 214.248 281.946 215.351 283.115 217.88C284.284 220.41 283.182 223.409 280.655 224.578C272.345 228.425 262.965 230.353 253.218 230.353Z" fill="#F1797A"/>
<path d="M292.349 186.962C289.479 186.962 286.863 185.025 286.122 182.113C286.097 182.016 283.615 172.314 279.746 160.722C278.619 157.349 280.438 153.702 283.807 152.576C287.177 151.45 290.821 153.269 291.945 156.642C295.972 168.704 298.482 178.522 298.585 178.934C299.462 182.379 297.384 185.883 293.942 186.762C293.409 186.897 292.875 186.962 292.349 186.962Z" fill="#1E1E1E"/>
<path d="M243.59 229.074C241.111 229.074 238.391 228.778 235.287 228.182L237.155 218.455C240.977 219.189 243.889 219.354 246.319 218.966L247.87 228.748C246.511 228.965 245.095 229.074 243.59 229.074Z" fill="white"/>
<path d="M250.926 231.865C247.122 231.865 243.105 231.672 238.875 231.283L240.051 218.461C261.428 220.424 275.647 217.1 282.312 208.583C288.766 200.338 288.631 186.299 281.911 166.859L294.067 162.648C297.139 171.535 306.487 198.576 292.438 216.524C284.455 226.724 270.519 231.864 250.926 231.865Z" fill="#1E1E1E"/>
<path d="M134.323 193.672H132.899C130.115 193.672 127.858 191.413 127.858 188.626C127.858 185.839 130.115 183.579 132.899 183.579H134.323C137.108 183.579 139.365 185.839 139.365 188.626C139.365 191.413 137.109 193.672 134.323 193.672Z" fill="#F1797A"/>
<g opacity="0.2">
<path d="M121.909 284.796C125.103 271.113 116.61 257.428 102.94 254.232C89.2696 251.035 75.5988 259.536 72.4051 273.22C69.2115 286.903 77.7044 300.587 91.3745 303.784C105.045 306.981 118.715 298.48 121.909 284.796Z" fill="#F7F9F9"/>
</g>
<path d="M116.379 295.158L112.78 298.761L120.543 306.531L124.142 302.929L116.379 295.158Z" fill="#D8D8D8"/>
<path d="M77.4542 259.794C66.5804 270.679 66.5804 288.326 77.4542 299.212C88.3281 310.097 105.958 310.097 116.833 299.212C127.707 288.327 127.707 270.68 116.833 259.794C105.958 248.909 88.3281 248.909 77.4542 259.794ZM113.657 296.033C104.537 305.162 89.7499 305.162 80.6288 296.033C71.5089 286.904 71.5089 272.103 80.6288 262.973C89.7488 253.844 104.536 253.844 113.657 262.973C122.778 272.102 122.778 286.904 113.657 296.033Z" fill="white"/>
<path d="M124.583 300.084L117.703 306.972L157.61 346.918L164.49 340.031L124.583 300.084Z" fill="#FD3C3C"/>
<g opacity="0.2">
<path d="M116.832 259.794C105.958 248.909 88.3281 248.909 77.4531 259.794L77.4497 259.797L80.6254 262.976L80.6288 262.973C89.7487 253.844 104.535 253.844 113.657 262.973C122.776 272.102 122.776 286.903 113.657 296.033L113.653 296.037L161.05 343.48L164.493 340.034L124.585 300.087L122.944 301.729L118.549 297.33C127.673 286.379 127.1 270.072 116.832 259.794Z" fill="black"/>
</g>
<path d="M325.633 440.322H179.001C178.66 440.322 178.383 440.046 178.383 439.703C178.383 439.36 178.66 439.084 179.001 439.084H325.633C325.975 439.084 326.251 439.36 326.251 439.703C326.251 440.046 325.975 440.322 325.633 440.322Z" fill="white"/>
<path d="M294.413 448.546H212.569C212.228 448.546 211.951 448.27 211.951 447.927C211.951 447.585 212.228 447.308 212.569 447.308H294.413C294.755 447.308 295.031 447.585 295.031 447.927C295.031 448.27 294.755 448.546 294.413 448.546Z" fill="white"/>
<path d="M310.532 448.546H300.516C300.174 448.546 299.897 448.27 299.897 447.927C299.897 447.585 300.174 447.308 300.516 447.308H310.532C310.874 447.308 311.151 447.585 311.151 447.927C311.151 448.27 310.874 448.546 310.532 448.546Z" fill="white"/>
<path d="M207.874 448.546H194.102C193.761 448.546 193.484 448.27 193.484 447.927C193.484 447.585 193.761 447.308 194.102 447.308H207.874C208.215 447.308 208.492 447.585 208.492 447.927C208.492 448.27 208.216 448.546 207.874 448.546Z" fill="white"/>
<path d="M346.231 84.833C346.189 84.833 346.15 84.833 346.109 84.833C339.544 84.7669 334.255 79.3666 334.321 72.794C334.388 66.2202 339.771 60.9476 346.349 60.9935C352.914 61.0595 358.203 66.4598 358.137 73.0325C358.07 79.5637 352.741 84.833 346.231 84.833ZM346.227 62.2307C340.393 62.2307 335.617 66.9525 335.558 72.8052C335.499 78.6948 340.239 83.5353 346.122 83.5946C346.158 83.5946 346.195 83.5946 346.232 83.5946C352.066 83.5946 356.842 78.8728 356.901 73.0202C356.96 67.1305 352.221 62.2901 346.337 62.2307C346.3 62.2319 346.264 62.2307 346.227 62.2307Z" fill="#303030"/>
<path d="M338.951 70.1492L338.869 78.3334L342.01 78.3648L342.092 70.1806L338.951 70.1492Z" fill="#EFF4DF"/>
<path d="M347.406 69.1035L347.428 66.9749C347.438 65.9493 346.616 65.1095 345.591 65.0994L345.152 65.0949C344.128 65.0849 343.289 65.9078 343.279 66.9335L343.258 69.062L343.255 69.2457L343.164 78.3623L350.392 78.4351C352.224 78.4541 353.725 76.9817 353.743 75.1465L353.77 72.4894C353.789 70.6554 352.318 69.1527 350.486 69.1348L347.406 69.1035Z" fill="#EFF4DF"/>
<path d="M93.0237 56.9525C92.9824 56.9525 92.9421 56.9525 92.9007 56.9513C86.3345 56.8853 81.0469 51.4838 81.1129 44.9123C81.1789 38.38 86.5079 33.1129 93.0182 33.1129C93.0596 33.1129 93.0998 33.1129 93.1401 33.1129C99.7063 33.179 104.994 38.5793 104.928 45.1519C104.897 48.3364 103.627 51.317 101.356 53.5463C99.1134 55.7454 96.1581 56.9525 93.0237 56.9525ZM93.0182 34.3502C87.1836 34.3502 82.4082 39.0708 82.349 44.9246C82.2897 50.8143 87.0292 55.6547 92.9119 55.7141C95.8102 55.7208 98.4546 54.6582 100.489 52.6618C102.525 50.6642 103.663 47.9937 103.691 45.1407C103.75 39.2511 99.0105 34.4107 93.1278 34.3513C93.0909 34.3502 93.054 34.3502 93.0182 34.3502Z" fill="#303030"/>
<path d="M85.7642 42.263L85.6816 50.4471L88.8223 50.4789L88.9049 42.2947L85.7642 42.263Z" fill="#EFF4DF"/>
<path d="M94.1971 41.2229L94.2184 39.0943C94.2285 38.0687 93.4063 37.2289 92.3828 37.2188L91.9454 37.2143C90.9208 37.2042 90.0818 38.0272 90.0718 39.0529L90.0505 41.1814L90.0483 41.3651L89.9565 50.4817L97.1849 50.5544C99.0172 50.5735 100.518 49.1011 100.536 47.2659L100.563 44.6088C100.581 42.7748 99.1111 41.2721 97.2789 41.2542L94.1971 41.2229Z" fill="#EFF4DF"/>
<path d="M34.1911 330.819C34.1497 330.819 34.1094 330.818 34.0692 330.818C27.503 330.752 22.2154 325.35 22.2814 318.778C22.3474 312.246 27.6775 306.977 34.1877 306.977C34.228 306.977 34.2683 306.978 34.3085 306.978C40.8747 307.045 46.1623 312.446 46.0963 319.018C46.065 322.202 44.7954 325.182 42.5246 327.412C40.2807 329.612 37.3254 330.819 34.1911 330.819ZM34.1866 308.217C28.352 308.217 23.5756 312.937 23.5163 318.791C23.457 324.681 28.1965 329.52 34.0804 329.581C36.8892 329.607 39.6219 328.525 41.6566 326.527C43.6925 324.531 44.829 321.859 44.858 319.005C44.9173 313.115 40.1778 308.276 34.294 308.216C34.2593 308.217 34.2235 308.217 34.1866 308.217Z" fill="#303030"/>
<path d="M26.9118 316.108L26.8301 324.292L29.9708 324.324L30.0526 316.14L26.9118 316.108Z" fill="#EFF4DF"/>
<path d="M35.3657 315.088L35.387 312.96C35.3971 311.934 34.5749 311.094 33.5503 311.084L33.1129 311.08C32.0883 311.07 31.2493 311.893 31.2392 312.918L31.218 315.047L31.2157 315.23L31.124 324.347L38.3535 324.42C40.1858 324.438 41.6869 322.966 41.7048 321.131L41.7317 318.474C41.7496 316.64 40.2798 315.138 38.4464 315.12L35.3657 315.088Z" fill="#EFF4DF"/>
<path d="M163.265 369.33H66.8599V423.605H163.265V369.33Z" fill="#FD3C3C"/>
<path d="M163.272 366.718H66.8667V372.969H163.272V366.718Z" fill="white"/>
<path d="M147.093 368.733H91.7622V370.843H147.093V368.733Z" fill="#AFAFAF"/>
<path d="M72.1057 369.834C72.1057 370.558 71.5185 371.145 70.7947 371.145C70.071 371.145 69.4837 370.557 69.4849 369.833C69.4849 369.108 70.0721 368.52 70.7959 368.521C71.5196 368.521 72.1057 369.109 72.1057 369.834Z" fill="#1E1E1E"/>
<path d="M76.0857 369.834C76.0857 370.558 75.4985 371.145 74.7747 371.145C74.051 371.145 73.4648 370.557 73.4648 369.833C73.4648 369.108 74.0521 368.52 74.7758 368.521C75.4996 368.523 76.0857 369.109 76.0857 369.834Z" fill="#1E1E1E"/>
<path d="M96.6465 401.08H94.8221L100.099 386.71H101.895L107.172 401.08H105.348L101.053 388.983H100.941L96.6465 401.08ZM97.3202 395.467H104.674V397.01H97.3202V395.467ZM113.845 401.08H109.41V386.71H114.042C115.436 386.71 116.629 386.997 117.62 387.573C118.612 388.143 119.372 388.964 119.901 390.036C120.429 391.102 120.694 392.379 120.694 393.867C120.694 395.364 120.427 396.653 119.894 397.733C119.36 398.809 118.584 399.637 117.564 400.217C116.544 400.793 115.305 401.08 113.845 401.08ZM111.151 399.537H113.733C114.921 399.537 115.906 399.307 116.687 398.849C117.468 398.39 118.051 397.738 118.434 396.891C118.818 396.044 119.01 395.036 119.01 393.867C119.01 392.707 118.82 391.708 118.441 390.871C118.062 390.029 117.496 389.383 116.743 388.934C115.99 388.48 115.052 388.253 113.929 388.253H111.151V399.537ZM131.472 390.302C131.388 389.591 131.046 389.039 130.447 388.646C129.849 388.253 129.114 388.057 128.244 388.057C127.608 388.057 127.051 388.16 126.574 388.366C126.101 388.571 125.732 388.854 125.465 389.215C125.203 389.575 125.072 389.984 125.072 390.443C125.072 390.826 125.164 391.156 125.346 391.432C125.533 391.703 125.772 391.93 126.062 392.113C126.352 392.29 126.656 392.438 126.974 392.555C127.292 392.667 127.584 392.758 127.851 392.828L129.311 393.221C129.685 393.32 130.101 393.455 130.56 393.628C131.023 393.801 131.465 394.038 131.886 394.337C132.311 394.632 132.662 395.011 132.938 395.474C133.214 395.937 133.352 396.505 133.352 397.179C133.352 397.955 133.149 398.657 132.742 399.284C132.34 399.911 131.75 400.409 130.974 400.779C130.202 401.148 129.264 401.333 128.16 401.333C127.131 401.333 126.239 401.167 125.486 400.835C124.738 400.503 124.148 400.039 123.718 399.445C123.292 398.851 123.051 398.161 122.995 397.375H124.792C124.838 397.918 125.021 398.367 125.339 398.723C125.662 399.073 126.069 399.335 126.56 399.509C127.056 399.677 127.589 399.761 128.16 399.761C128.824 399.761 129.42 399.654 129.949 399.438C130.478 399.218 130.896 398.914 131.205 398.526C131.514 398.133 131.668 397.675 131.668 397.151C131.668 396.674 131.535 396.285 131.268 395.986C131.002 395.687 130.651 395.443 130.216 395.256C129.781 395.069 129.311 394.905 128.805 394.765L127.037 394.26C125.914 393.937 125.026 393.476 124.371 392.877C123.716 392.279 123.388 391.495 123.388 390.527C123.388 389.722 123.606 389.02 124.041 388.422C124.481 387.818 125.07 387.35 125.809 387.018C126.553 386.681 127.383 386.513 128.3 386.513C129.226 386.513 130.05 386.679 130.77 387.011C131.49 387.339 132.061 387.788 132.482 388.359C132.908 388.929 133.132 389.577 133.156 390.302H131.472Z" fill="white"/>
<path d="M414.932 257.677H307.967V268.507H414.932V257.677Z" fill="#1E1E1E"/>
<path d="M414.932 268.506H307.967V315.309H414.932V268.506Z" fill="white"/>
<path d="M359.417 298.183L347.779 279.544L334.304 301.126L324.912 286.084L313.683 304.068V309.791H359.417V298.183Z" fill="#AFAFAF"/>
<path d="M389.643 275.548H366.767C366.402 275.548 366.106 275.252 366.106 274.887C366.106 274.522 366.402 274.225 366.767 274.225H389.643C390.008 274.225 390.305 274.522 390.305 274.887C390.305 275.252 390.008 275.548 389.643 275.548Z" fill="#303030"/>
<path d="M408.406 283.788H366.766C366.401 283.788 366.105 283.491 366.105 283.126C366.105 282.761 366.401 282.465 366.766 282.465H408.406C408.771 282.465 409.067 282.761 409.067 283.126C409.067 283.491 408.772 283.788 408.406 283.788Z" fill="#303030"/>
<path d="M408.406 292.029H366.766C366.401 292.029 366.105 291.732 366.105 291.367C366.105 291.002 366.401 290.706 366.766 290.706H408.406C408.771 290.706 409.067 291.002 409.067 291.367C409.067 291.734 408.772 292.029 408.406 292.029Z" fill="#303030"/>
<path d="M408.406 300.27H366.766C366.401 300.27 366.105 299.973 366.105 299.608C366.105 299.243 366.401 298.947 366.766 298.947H408.406C408.771 298.947 409.067 299.243 409.067 299.608C409.067 299.973 408.772 300.27 408.406 300.27Z" fill="#303030"/>
<path d="M408.406 308.511H366.766C366.401 308.511 366.105 308.214 366.105 307.849C366.105 307.484 366.401 307.188 366.766 307.188H408.406C408.771 307.188 409.067 307.484 409.067 307.849C409.067 308.216 408.772 308.511 408.406 308.511Z" fill="#303030"/>
</g>
<defs>
<clipPath id="clip0_1943_845">
<rect width="415" height="449" fill="white"/>
</clipPath>
</defs>
</svg>
