<svg width="32" height="32" viewBox="0 0 32 32" fill="none" xmlns="http://www.w3.org/2000/svg">
<g id="uil-apple">
<path id="Vector" d="M19.9199 6.92C20.4239 6.33904 20.8083 5.66423 21.0508 4.93432C21.2934 4.2044 21.3893 3.43377 21.3332 2.66667C19.7857 2.79158 18.3492 3.51941 17.3332 4.69333C16.8467 5.25597 16.478 5.91051 16.249 6.61819C16.0199 7.32588 15.9352 8.07233 15.9999 8.81333C16.7547 8.81962 17.5009 8.65213 18.1807 8.32381C18.8604 7.9955 19.4555 7.51517 19.9199 6.92ZM23.2799 16.84C23.2888 15.8183 23.5579 14.8158 24.0618 13.9269C24.5657 13.0381 25.2878 12.2923 26.1599 11.76C25.6095 10.967 24.8819 10.3131 24.0349 9.85023C23.1878 9.38735 22.2445 9.1282 21.2799 9.09333C19.1999 8.88 17.2799 10.3067 16.1732 10.3067C15.0665 10.3067 13.5065 9.12 11.7732 9.14667C10.6401 9.18399 9.53591 9.51437 8.56848 10.1056C7.60105 10.6968 6.80336 11.5286 6.25322 12.52C3.90655 16.6 5.65322 22.6667 7.99988 25.96C9.06655 27.5733 10.3999 29.4 12.1599 29.3333C13.9199 29.2667 14.4932 28.24 16.5332 28.24C18.5732 28.24 19.1999 29.3333 20.9332 29.2933C22.6665 29.2533 23.8932 27.64 25.0132 26.0267C25.8066 24.8554 26.4264 23.5754 26.8532 22.2267C25.7965 21.776 24.895 21.0257 24.2599 20.0684C23.6249 19.1111 23.2842 17.9888 23.2799 16.84Z" fill="white"/>
</g>
</svg>
