<svg width="32" height="32" viewBox="0 0 32 32" fill="none" xmlns="http://www.w3.org/2000/svg">
<g id="uil-robot">
<path id="Vector" d="M11.9997 20C11.736 20 11.4782 20.0782 11.2589 20.2247C11.0396 20.3712 10.8688 20.5795 10.7678 20.8231C10.6669 21.0667 10.6405 21.3348 10.692 21.5935C10.7434 21.8521 10.8704 22.0897 11.0569 22.2761C11.2433 22.4626 11.4809 22.5896 11.7396 22.641C11.9982 22.6925 12.2663 22.6661 12.5099 22.5652C12.7536 22.4643 12.9618 22.2934 13.1083 22.0741C13.2548 21.8548 13.333 21.597 13.333 21.3333C13.333 20.9797 13.1925 20.6406 12.9425 20.3905C12.6924 20.1405 12.3533 20 11.9997 20ZM2.66634 18.6667C2.31272 18.6667 1.97358 18.8071 1.72353 19.0572C1.47348 19.3072 1.33301 19.6464 1.33301 20V22.6667C1.33301 23.0203 1.47348 23.3594 1.72353 23.6095C1.97358 23.8595 2.31272 24 2.66634 24C3.01996 24 3.3591 23.8595 3.60915 23.6095C3.8592 23.3594 3.99967 23.0203 3.99967 22.6667V20C3.99967 19.6464 3.8592 19.3072 3.60915 19.0572C3.3591 18.8071 3.01996 18.6667 2.66634 18.6667ZM29.333 18.6667C28.9794 18.6667 28.6402 18.8071 28.3902 19.0572C28.1402 19.3072 27.9997 19.6464 27.9997 20V22.6667C27.9997 23.0203 28.1402 23.3594 28.3902 23.6095C28.6402 23.8595 28.9794 24 29.333 24C29.6866 24 30.0258 23.8595 30.2758 23.6095C30.5259 23.3594 30.6663 23.0203 30.6663 22.6667V20C30.6663 19.6464 30.5259 19.3072 30.2758 19.0572C30.0258 18.8071 29.6866 18.6667 29.333 18.6667ZM22.6663 9.33333H17.333V7.62666C17.736 7.39398 18.0712 7.05988 18.3051 6.65756C18.539 6.25523 18.6635 5.7987 18.6663 5.33333C18.6663 4.62609 18.3854 3.94781 17.8853 3.44771C17.3852 2.94762 16.7069 2.66666 15.9997 2.66666C15.2924 2.66666 14.6142 2.94762 14.1141 3.44771C13.614 3.94781 13.333 4.62609 13.333 5.33333C13.3358 5.7987 13.4604 6.25523 13.6943 6.65756C13.9282 7.05988 14.2633 7.39398 14.6663 7.62666V9.33333H9.33301C8.27214 9.33333 7.25473 9.75476 6.50458 10.5049C5.75444 11.255 5.33301 12.2725 5.33301 13.3333V25.3333C5.33301 26.3942 5.75444 27.4116 6.50458 28.1618C7.25473 28.9119 8.27214 29.3333 9.33301 29.3333H22.6663C23.7272 29.3333 24.7446 28.9119 25.4948 28.1618C26.2449 27.4116 26.6663 26.3942 26.6663 25.3333V13.3333C26.6663 12.2725 26.2449 11.255 25.4948 10.5049C24.7446 9.75476 23.7272 9.33333 22.6663 9.33333ZM18.293 12L17.6263 14.6667H14.373L13.7063 12H18.293ZM23.9997 25.3333C23.9997 25.687 23.8592 26.0261 23.6092 26.2761C23.3591 26.5262 23.02 26.6667 22.6663 26.6667H9.33301C8.97939 26.6667 8.64025 26.5262 8.3902 26.2761C8.14015 26.0261 7.99967 25.687 7.99967 25.3333V13.3333C7.99967 12.9797 8.14015 12.6406 8.3902 12.3905C8.64025 12.1405 8.97939 12 9.33301 12H10.9597L11.9997 16.32C12.0727 16.6158 12.2448 16.8777 12.4874 17.0621C12.73 17.2465 13.0284 17.3422 13.333 17.3333H18.6663C18.9709 17.3422 19.2694 17.2465 19.5119 17.0621C19.7545 16.8777 19.9267 16.6158 19.9997 16.32L21.0397 12H22.6663C23.02 12 23.3591 12.1405 23.6092 12.3905C23.8592 12.6406 23.9997 12.9797 23.9997 13.3333V25.3333ZM19.9997 20C19.736 20 19.4782 20.0782 19.2589 20.2247C19.0396 20.3712 18.8688 20.5795 18.7678 20.8231C18.6669 21.0667 18.6405 21.3348 18.692 21.5935C18.7434 21.8521 18.8704 22.0897 19.0569 22.2761C19.2433 22.4626 19.4809 22.5896 19.7396 22.641C19.9982 22.6925 20.2663 22.6661 20.5099 22.5652C20.7536 22.4643 20.9618 22.2934 21.1083 22.0741C21.2548 21.8548 21.333 21.597 21.333 21.3333C21.333 20.9797 21.1925 20.6406 20.9425 20.3905C20.6924 20.1405 20.3533 20 19.9997 20Z" fill="white"/>
</g>
</svg>
