<svg width="32" height="32" viewBox="0 0 32 32" fill="none" xmlns="http://www.w3.org/2000/svg">
<g id="uil-android-alt">
<path id="Vector" d="M3.98861 12.0006C3.8135 12.0005 3.6401 12.035 3.47831 12.102C3.31652 12.169 3.16951 12.2672 3.04569 12.391C2.92187 12.5148 2.82366 12.6618 2.75667 12.8236C2.68968 12.9854 2.65523 13.1588 2.65527 13.3339V18.6673C2.65527 19.0209 2.79575 19.36 3.0458 19.6101C3.29585 19.8601 3.63498 20.0006 3.98861 20.0006C4.34223 20.0006 4.68137 19.8601 4.93142 19.6101C5.18146 19.36 5.32194 19.0209 5.32194 18.6673V13.3339C5.32199 13.1588 5.28753 12.9854 5.22054 12.8236C5.15355 12.6618 5.05534 12.5148 4.93152 12.391C4.8077 12.2672 4.6607 12.169 4.49891 12.102C4.33712 12.035 4.16372 12.0005 3.98861 12.0006ZM27.9886 12.0006C27.8135 12.0005 27.6401 12.035 27.4783 12.102C27.3165 12.169 27.1695 12.2672 27.0457 12.391C26.9219 12.5148 26.8237 12.6618 26.7567 12.8236C26.6897 12.9854 26.6552 13.1588 26.6553 13.3339V18.6673C26.6553 19.0209 26.7957 19.36 27.0458 19.6101C27.2958 19.8601 27.635 20.0006 27.9886 20.0006C28.3422 20.0006 28.6814 19.8601 28.9314 19.6101C29.1815 19.36 29.3219 19.0209 29.3219 18.6673V13.3339C29.322 13.1588 29.2875 12.9854 29.2205 12.8236C29.1536 12.6618 29.0553 12.5148 28.9315 12.391C28.8077 12.2672 28.6607 12.169 28.4989 12.102C28.3371 12.035 28.1637 12.0005 27.9886 12.0006ZM22.4762 4.66725C22.5644 4.51564 22.6218 4.34812 22.6451 4.17429C22.6684 4.00046 22.6572 3.82374 22.6121 3.65425C22.567 3.48477 22.4888 3.32585 22.3822 3.18662C22.2756 3.04738 22.1425 2.93055 21.9906 2.84283C21.8387 2.75512 21.671 2.69824 21.4971 2.67545C21.3232 2.65266 21.1466 2.66441 20.9772 2.71003C20.8079 2.75565 20.6492 2.83424 20.5103 2.9413C20.3713 3.04836 20.2549 3.18178 20.1676 3.33392L19.3488 4.75043C18.2974 4.25661 17.1502 4.00059 15.9886 4.00059C14.8271 4.00059 13.6798 4.25661 12.6284 4.75043L11.8096 3.33392C11.7223 3.18178 11.6059 3.04836 11.467 2.9413C11.328 2.83424 11.1694 2.75565 11 2.71003C10.8307 2.66441 10.654 2.65266 10.4801 2.67545C10.3062 2.69824 10.1385 2.75512 9.98661 2.84283C9.83473 2.93055 9.70166 3.04738 9.59502 3.18662C9.48838 3.32585 9.41026 3.48477 9.36514 3.65425C9.32003 3.82374 9.30881 4.00046 9.33212 4.17429C9.35543 4.34812 9.41281 4.51564 9.50098 4.66725L10.4243 6.26451C9.65393 7.00805 9.04121 7.89917 8.62274 8.88468C8.20426 9.87019 7.98859 10.9299 7.98861 12.0006V22.6673C7.98856 22.8424 8.02302 23.0158 8.09001 23.1776C8.157 23.3393 8.25521 23.4863 8.37903 23.6102C8.50285 23.734 8.64985 23.8322 8.81164 23.8992C8.97343 23.9662 9.14683 24.0006 9.32194 24.0006H11.9886V28.0006C11.9886 28.3542 12.1291 28.6933 12.3791 28.9434C12.6292 29.1934 12.9683 29.3339 13.3219 29.3339C13.6756 29.3339 14.0147 29.1934 14.2647 28.9434C14.5148 28.6933 14.6553 28.3542 14.6553 28.0006V24.0006H17.3219V28.0006C17.3219 28.3542 17.4624 28.6933 17.7125 28.9434C17.9625 29.1934 18.3017 29.3339 18.6553 29.3339C19.0089 29.3339 19.348 29.1934 19.5981 28.9434C19.8481 28.6933 19.9886 28.3542 19.9886 28.0006V24.0006H22.6553C22.8304 24.0006 23.0038 23.9662 23.1656 23.8992C23.3274 23.8322 23.4744 23.734 23.5982 23.6102C23.722 23.4863 23.8202 23.3393 23.8872 23.1776C23.9542 23.0158 23.9886 22.8424 23.9886 22.6673V12.0006C23.9886 10.9299 23.773 9.87019 23.3545 8.88468C22.936 7.89917 22.3233 7.00805 21.5529 6.26451L22.4762 4.66725ZM21.3219 21.3339H10.6553V14.6673H21.3219V21.3339ZM10.6553 12.0006C10.6553 10.5861 11.2172 9.22955 12.2174 8.22935C13.2176 7.22916 14.5741 6.66725 15.9886 6.66725C17.4031 6.66725 18.7596 7.22916 19.7598 8.22935C20.76 9.22955 21.3219 10.5861 21.3219 12.0006H10.6553Z" fill="white"/>
</g>
</svg>
