<svg width="32" height="32" viewBox="0 0 32 32" fill="none" xmlns="http://www.w3.org/2000/svg">
<g id="uil-monitor-heart-rate">
<path id="Vector" d="M12.0003 25.3333C12.1746 25.3312 12.3467 25.295 12.507 25.2267C12.6686 25.1591 12.8174 25.0644 12.947 24.9467C13.0073 24.8811 13.0609 24.8096 13.107 24.7333C13.1598 24.6653 13.2004 24.5886 13.227 24.5067C13.2747 24.4326 13.3107 24.3517 13.3337 24.2667C13.3402 24.1779 13.3402 24.0888 13.3337 24C13.3316 23.8258 13.2953 23.6536 13.227 23.4933C13.1671 23.3279 13.0716 23.1776 12.9471 23.0532C12.8227 22.9288 12.6725 22.8332 12.507 22.7733C12.2656 22.6614 11.9963 22.6243 11.7337 22.6667L11.4937 22.7467C11.4117 22.7733 11.3351 22.8139 11.267 22.8667C11.1907 22.9127 11.1192 22.9663 11.0537 23.0267C10.9323 23.1535 10.8371 23.303 10.7737 23.4667C10.7018 23.6352 10.6655 23.8168 10.667 24C10.667 24.3536 10.8075 24.6928 11.0575 24.9428C11.3076 25.1929 11.6467 25.3333 12.0003 25.3333ZM7.05366 24.9467C7.18326 25.0644 7.33208 25.1591 7.49366 25.2267C7.65395 25.295 7.82609 25.3312 8.00033 25.3333H8.25366C8.34197 25.321 8.4276 25.2939 8.50699 25.2533C8.59196 25.2241 8.67266 25.1838 8.74699 25.1333L8.94699 24.9733C9.06477 24.8437 9.15947 24.6949 9.22699 24.5333C9.30583 24.367 9.34246 24.1838 9.33366 24C9.3402 23.9112 9.3402 23.8221 9.33366 23.7333C9.31906 23.6498 9.2921 23.5689 9.25366 23.4933C9.22703 23.4114 9.18643 23.3347 9.13366 23.2667C9.08759 23.1904 9.03399 23.1189 8.97366 23.0533C8.78616 22.8683 8.54806 22.743 8.28941 22.6932C8.03076 22.6433 7.76314 22.6712 7.52033 22.7733C7.35666 22.8368 7.20713 22.9319 7.08033 23.0533C7.02 23.1189 6.9664 23.1904 6.92033 23.2667C6.86755 23.3347 6.82695 23.4114 6.80032 23.4933C6.74322 23.5656 6.69819 23.6467 6.66699 23.7333C6.66045 23.8221 6.66045 23.9112 6.66699 24C6.6691 24.1742 6.70534 24.3464 6.77366 24.5067C6.84118 24.6682 6.93588 24.8171 7.05366 24.9467ZM25.3337 2.66667H6.66699C5.60613 2.66667 4.58871 3.0881 3.83857 3.83824C3.08842 4.58839 2.66699 5.6058 2.66699 6.66667V25.3333C2.66699 26.3942 3.08842 27.4116 3.83857 28.1618C4.58871 28.9119 5.60613 29.3333 6.66699 29.3333H25.3337C26.3945 29.3333 27.4119 28.9119 28.1621 28.1618C28.9122 27.4116 29.3337 26.3942 29.3337 25.3333V6.66667C29.3337 5.6058 28.9122 4.58839 28.1621 3.83824C27.4119 3.0881 26.3945 2.66667 25.3337 2.66667ZM26.667 25.3333C26.667 25.687 26.5265 26.0261 26.2765 26.2761C26.0264 26.5262 25.6873 26.6667 25.3337 26.6667H6.66699C6.31337 26.6667 5.97423 26.5262 5.72418 26.2761C5.47413 26.0261 5.33366 25.687 5.33366 25.3333V21.3333H26.667V25.3333ZM26.667 18.6667H5.33366V13.3333H10.667C10.8425 13.3343 11.0164 13.3007 11.1789 13.2344C11.3413 13.168 11.4891 13.0702 11.6137 12.9467L13.3337 11.28L17.067 15.5467C17.1874 15.6839 17.3348 15.795 17.4999 15.873C17.6651 15.951 17.8445 15.9942 18.027 16C18.2025 16.001 18.3764 15.9674 18.5389 15.901C18.7013 15.8347 18.8491 15.7369 18.9737 15.6133L21.2137 13.3333H26.667V18.6667ZM26.667 10.6667H20.667C20.4915 10.6657 20.3176 10.6993 20.1551 10.7656C19.9927 10.832 19.8449 10.9298 19.7203 11.0533L18.067 12.72L14.3337 8.45333C14.2089 8.32012 14.0582 8.21392 13.8908 8.14132C13.7234 8.06872 13.5428 8.03126 13.3603 8.03126C13.1778 8.03126 12.9973 8.06872 12.8299 8.14132C12.6624 8.21392 12.5117 8.32012 12.387 8.45333L10.1203 10.6667H5.33366V6.66667C5.33366 6.31305 5.47413 5.97391 5.72418 5.72386C5.97423 5.47381 6.31337 5.33333 6.66699 5.33333H25.3337C25.6873 5.33333 26.0264 5.47381 26.2765 5.72386C26.5265 5.97391 26.667 6.31305 26.667 6.66667V10.6667Z" fill="white"/>
</g>
</svg>
