<svg width="32" height="32" viewBox="0 0 32 32" fill="none" xmlns="http://www.w3.org/2000/svg">
<g id="uil-database">
<path id="Vector" d="M10.6663 22C10.4026 22 10.1448 22.0782 9.92558 22.2247C9.70632 22.3712 9.53542 22.5795 9.4345 22.8231C9.33358 23.0667 9.30718 23.3348 9.35863 23.5935C9.41007 23.8521 9.53706 24.0897 9.72353 24.2761C9.91 24.4626 10.1476 24.5896 10.4062 24.641C10.6649 24.6925 10.933 24.6661 11.1766 24.5652C11.4202 24.4643 11.6285 24.2934 11.775 24.0741C11.9215 23.8548 11.9997 23.597 11.9997 23.3333C11.9997 22.9797 11.8592 22.6406 11.6091 22.3905C11.3591 22.1405 11.02 22 10.6663 22ZM15.9997 2.66667C10.6663 2.66667 5.33301 4.49333 5.33301 8V24C5.33301 27.5067 10.6663 29.3333 15.9997 29.3333C21.333 29.3333 26.6663 27.5067 26.6663 24V8C26.6663 4.49333 21.333 2.66667 15.9997 2.66667ZM23.9997 24C23.9997 24.9467 20.9597 26.6667 15.9997 26.6667C11.0397 26.6667 7.99967 24.9467 7.99967 24V19.64C10.4958 20.8266 13.2369 21.4068 15.9997 21.3333C18.7625 21.4068 21.5036 20.8266 23.9997 19.64V24ZM23.9997 16C23.9997 16.9467 20.9597 18.6667 15.9997 18.6667C11.0397 18.6667 7.99967 16.9467 7.99967 16V11.64C10.4958 12.8266 13.2369 13.4068 15.9997 13.3333C18.7625 13.4068 21.5036 12.8266 23.9997 11.64V16ZM15.9997 10.6667C11.0397 10.6667 7.99967 8.94667 7.99967 8C7.99967 7.05333 11.0397 5.33333 15.9997 5.33333C20.9597 5.33333 23.9997 7.05333 23.9997 8C23.9997 8.94667 20.9597 10.6667 15.9997 10.6667ZM10.6663 14C10.4026 14 10.1448 14.0782 9.92558 14.2247C9.70632 14.3712 9.53542 14.5795 9.4345 14.8231C9.33358 15.0667 9.30718 15.3348 9.35863 15.5935C9.41007 15.8521 9.53706 16.0897 9.72353 16.2761C9.91 16.4626 10.1476 16.5896 10.4062 16.641C10.6649 16.6925 10.933 16.6661 11.1766 16.5652C11.4202 16.4643 11.6285 16.2934 11.775 16.0741C11.9215 15.8548 11.9997 15.597 11.9997 15.3333C11.9997 14.9797 11.8592 14.6406 11.6091 14.3905C11.3591 14.1405 11.02 14 10.6663 14Z" fill="white"/>
</g>
</svg>
