<svg width="32" height="32" viewBox="0 0 32 32" fill="none" xmlns="http://www.w3.org/2000/svg">
<g id="uil-globe">
<path id="Vector" d="M28.5466 11.52C28.5466 11.52 28.5466 11.52 28.5466 11.4533C27.6071 8.88829 25.9025 6.67371 23.6633 5.10915C21.424 3.54459 18.7583 2.70556 16.0266 2.70556C13.2949 2.70556 10.6292 3.54459 8.38995 5.10915C6.15072 6.67371 4.44607 8.88829 3.5066 11.4533C3.5066 11.4533 3.5066 11.4533 3.5066 11.52C2.45743 14.4145 2.45743 17.5855 3.5066 20.48C3.5066 20.48 3.5066 20.48 3.5066 20.5467C4.44607 23.1117 6.15072 25.3263 8.38995 26.8908C10.6292 28.4554 13.2949 29.2944 16.0266 29.2944C18.7583 29.2944 21.424 28.4554 23.6633 26.8908C25.9025 25.3263 27.6071 23.1117 28.5466 20.5467C28.5466 20.5467 28.5466 20.5467 28.5466 20.48C29.5958 17.5855 29.5958 14.4145 28.5466 11.52ZM5.67994 18.6667C5.21757 16.9189 5.21757 15.081 5.67994 13.3333H8.15993C7.94664 15.1047 7.94664 16.8953 8.15993 18.6667H5.67994ZM6.77327 21.3333H8.63994C8.95289 22.5225 9.40022 23.6721 9.97327 24.76C8.66567 23.8692 7.5726 22.6987 6.77327 21.3333ZM8.63994 10.6667H6.77327C7.56109 9.30544 8.64019 8.13528 9.93327 7.24C9.37401 8.32965 8.94012 9.47922 8.63994 10.6667ZM14.6666 26.2667C13.029 25.0649 11.8788 23.3136 11.4266 21.3333H14.6666V26.2667ZM14.6666 18.6667H10.8533C10.6045 16.8976 10.6045 15.1024 10.8533 13.3333H14.6666V18.6667ZM14.6666 10.6667H11.4266C11.8788 8.68635 13.029 6.93509 14.6666 5.73333V10.6667ZM25.2266 10.6667H23.3599C23.047 9.47754 22.5997 8.32792 22.0266 7.24C23.3342 8.13076 24.4273 9.30125 25.2266 10.6667ZM17.3333 5.73333C18.9709 6.93509 20.1211 8.68635 20.5733 10.6667H17.3333V5.73333ZM17.3333 26.2667V21.3333H20.5733C20.1211 23.3136 18.9709 25.0649 17.3333 26.2667ZM21.1466 18.6667H17.3333V13.3333H21.1466C21.3954 15.1024 21.3954 16.8976 21.1466 18.6667ZM22.0666 24.76C22.6397 23.6721 23.087 22.5225 23.3999 21.3333H25.2666C24.4673 22.6987 23.3742 23.8692 22.0666 24.76ZM26.3199 18.6667H23.8399C23.9484 17.7819 24.0018 16.8913 23.9999 16C24.0014 15.1087 23.948 14.2181 23.8399 13.3333H26.3199C26.7823 15.081 26.7823 16.9189 26.3199 18.6667Z" fill="white"/>
</g>
</svg>
