<svg width="32" height="32" viewBox="0 0 32 32" fill="none" xmlns="http://www.w3.org/2000/svg">
<g id="&#240;&#159;&#166;&#134; icon &#34;call&#34;">
<path id="Vector" d="M24.1409 32C22.4591 32 20.6879 31.5981 18.8572 30.8242C17.0712 30.0651 15.2702 29.0233 13.5139 27.7581C11.7726 26.4781 10.0907 25.0493 8.49813 23.4865C6.92046 21.894 5.49162 20.2121 4.22651 18.4856C2.94651 16.6995 1.91953 14.9135 1.19023 13.187C0.416274 11.3414 0.0292969 9.55535 0.0292969 7.87349C0.0292969 6.71256 0.237669 5.61116 0.639529 4.58419C1.05627 3.52744 1.72604 2.54512 2.63395 1.69674C3.77999 0.565582 5.08976 0 6.48883 0C7.0693 0 7.66464 0.133953 8.17069 0.372093C8.75116 0.64 9.24232 1.04186 9.59953 1.57767L13.0526 6.44465C13.3651 6.87628 13.6032 7.29302 13.767 7.70977C13.9605 8.15628 14.0646 8.60279 14.0646 9.03442C14.0646 9.6 13.9009 10.1507 13.5884 10.6716C13.3651 11.0735 13.0228 11.5051 12.5912 11.9367L11.5791 12.9935C11.5939 13.0381 11.6088 13.0679 11.6237 13.0977C11.8023 13.4102 12.1595 13.946 12.8442 14.7498C13.5735 15.5833 14.2581 16.3423 14.9428 17.0419C15.8209 17.9051 16.5502 18.5898 17.2349 19.1553C18.0833 19.8698 18.6339 20.227 18.9614 20.3907L18.9316 20.4651L20.0181 19.3935C20.4795 18.9321 20.926 18.5898 21.3577 18.3665C22.1763 17.8605 23.2181 17.7712 24.26 18.2028C24.647 18.3665 25.0637 18.5898 25.5102 18.9023L30.4516 22.4149C31.0023 22.787 31.4042 23.2633 31.6423 23.8288C31.8656 24.3944 31.9698 24.9153 31.9698 25.4363C31.9698 26.1507 31.806 26.8651 31.4935 27.5349C31.1809 28.2047 30.7939 28.7851 30.3028 29.3209C29.4544 30.2586 28.5316 30.9284 27.46 31.36C26.433 31.7767 25.3167 32 24.1409 32ZM6.48883 2.23256C5.67023 2.23256 4.91116 2.58977 4.18185 3.30419C3.4972 3.94419 3.02092 4.64372 2.72325 5.40279C2.41069 6.17674 2.26185 6.99535 2.26185 7.87349C2.26185 9.25767 2.5893 10.7609 3.24418 12.3088C3.91395 13.8865 4.85162 15.5237 6.04232 17.1609C7.23302 18.7981 8.58744 20.3907 10.0758 21.894C11.5642 23.3674 13.1716 24.7367 14.8237 25.9423C16.4312 27.1181 18.0832 28.0707 19.7205 28.7553C22.2656 29.8419 24.647 30.0949 26.6116 29.2763C27.3707 28.9637 28.0405 28.4874 28.6507 27.8028C28.993 27.4307 29.2609 27.0288 29.4842 26.5526C29.6628 26.1805 29.7521 25.7935 29.7521 25.4065C29.7521 25.1684 29.7074 24.9302 29.5884 24.6623C29.5437 24.573 29.4544 24.4093 29.1716 24.2158L24.2302 20.7033C23.9326 20.4949 23.6646 20.346 23.4116 20.2419C23.0842 20.1079 22.9502 19.974 22.4442 20.2865C22.1465 20.4353 21.8786 20.6586 21.5809 20.9563L20.4498 22.0726C19.8693 22.6381 18.9763 22.7721 18.2916 22.5191L17.8898 22.3405C17.2795 22.013 16.5651 21.507 15.7763 20.8372C15.0619 20.227 14.2879 19.5126 13.3502 18.5898C12.6209 17.8456 11.8916 17.0567 11.1326 16.1786C10.433 15.36 9.92697 14.6605 9.61441 14.08L9.43581 13.6335C9.34651 13.2912 9.31674 13.0977 9.31674 12.8893C9.31674 12.3535 9.51023 11.8772 9.88232 11.5051L10.9986 10.3442C11.2963 10.0465 11.5195 9.76372 11.6684 9.5107C11.7874 9.31721 11.8321 9.15349 11.8321 9.00465C11.8321 8.88558 11.7874 8.70698 11.713 8.52837C11.6088 8.29023 11.4451 8.02233 11.2367 7.73953L7.78371 2.85767C7.63488 2.6493 7.45627 2.50046 7.23302 2.39628C6.99488 2.29209 6.74185 2.23256 6.48883 2.23256ZM18.9316 20.48L18.6935 21.4921L19.0953 20.4502C19.0209 20.4353 18.9614 20.4502 18.9316 20.48Z" fill="#121417"/>
</g>
</svg>
