<svg width="96" height="20" viewBox="0 0 96 20" fill="none" xmlns="http://www.w3.org/2000/svg">
<g id="Group 48095494">
<path id="Vector" d="M0.219512 9.20135L9.21951 0.201352C9.36169 0.0688712 9.54973 -0.00324943 9.74404 0.000178088C9.93834 0.00360561 10.1237 0.0823181 10.2611 0.219731C10.3985 0.357144 10.4773 0.542529 10.4807 0.736831C10.4841 0.931132 10.412 1.11918 10.2795 1.26135L2.56076 8.98135L22.7495 8.98135C22.9484 8.98135 23.1392 9.06037 23.2798 9.20102C23.4205 9.34168 23.4995 9.53244 23.4995 9.73135C23.4995 9.93027 23.4205 10.121 23.2798 10.2617C23.1392 10.4023 22.9484 10.4814 22.7495 10.4814L2.56076 10.4814L10.2795 18.2014C10.412 18.3435 10.4841 18.5316 10.4807 18.7259C10.4773 18.9202 10.3985 19.1056 10.2611 19.243C10.1237 19.3804 9.93833 19.4591 9.74403 19.4625C9.54973 19.466 9.36169 19.3938 9.21951 19.2614L0.219512 10.2614C0.0790623 10.1207 0.000172495 9.9301 0.000172512 9.73135C0.000172529 9.5326 0.0790624 9.34198 0.219512 9.20135Z" fill="#FD3C3C"/>
<path id="Vector_2" d="M95.2795 10.2613L86.2795 19.2613C86.1373 19.3938 85.9493 19.4659 85.755 19.4625C85.5607 19.459 85.3753 19.3803 85.2379 19.2429C85.1005 19.1055 85.0218 18.9201 85.0183 18.7258C85.0149 18.5315 85.087 18.3435 85.2195 18.2013L92.9383 10.4813H72.7495C72.5506 10.4813 72.3598 10.4023 72.2192 10.2616C72.0785 10.121 71.9995 9.9302 71.9995 9.73129C71.9995 9.53238 72.0785 9.34161 72.2192 9.20096C72.3598 9.06031 72.5506 8.98129 72.7495 8.98129H92.9383L85.2195 1.26129C85.087 1.11912 85.0149 0.93107 85.0183 0.736769C85.0218 0.542468 85.1005 0.357083 85.2379 0.21967C85.3753 0.0822568 85.5607 0.00354506 85.755 0.000116847C85.9493 -0.00331137 86.1373 0.0688116 86.2795 0.201292L95.2795 9.20129C95.42 9.34192 95.4989 9.53254 95.4989 9.73129C95.4989 9.93004 95.42 10.1207 95.2795 10.2613Z" fill="white"/>
</g>
</svg>
