<svg width="32" height="32" viewBox="0 0 32 32" fill="none" xmlns="http://www.w3.org/2000/svg">
<g id="&#240;&#159;&#166;&#134; icon &#34;whatsapp&#34;">
<path id="Vector" d="M31.9753 15.0563C31.4313 5.77659 22.9994 -1.37525 13.2876 0.224716C6.59976 1.32869 1.23987 6.75255 0.199887 13.4404C-0.408101 17.3123 0.391915 20.9762 2.13588 24.0002L0.711892 29.2961C0.391899 30.496 1.49584 31.584 2.67982 31.248L7.89573 29.808C10.2637 31.2 13.0316 32 15.9916 32C25.0154 32 32.5033 24.0482 31.9753 15.0563ZM23.8154 21.9522C23.6714 22.2402 23.4954 22.5122 23.2714 22.7682C22.8714 23.2002 22.4395 23.5202 21.9595 23.7122C21.4795 23.9202 20.9515 24.0162 20.3915 24.0162C19.5755 24.0162 18.6955 23.8243 17.7835 23.4243C16.8556 23.0243 15.9436 22.4962 15.0316 21.8402C14.1036 21.1682 13.2396 20.4162 12.4077 19.6002C11.5757 18.7683 10.8396 17.8883 10.1677 16.9763C9.51167 16.0643 8.98371 15.1523 8.59972 14.2404C8.21572 13.3284 8.02376 12.4485 8.02376 11.6165C8.02376 11.0725 8.11974 10.5445 8.31174 10.0645C8.50373 9.56851 8.80776 9.12054 9.23975 8.72054C9.75174 8.20856 10.3117 7.96856 10.9037 7.96856C11.1277 7.96856 11.3516 8.01654 11.5596 8.11254C11.7676 8.20854 11.9596 8.35254 12.1037 8.56053L13.9596 11.1845C14.1036 11.3925 14.2156 11.5685 14.2796 11.7445C14.3596 11.9204 14.3916 12.0804 14.3916 12.2404C14.3916 12.4324 14.3276 12.6245 14.2156 12.8164C14.1036 13.0084 13.9596 13.2004 13.7676 13.3924L13.1596 14.0324C13.0636 14.1284 13.0316 14.2244 13.0316 14.3524C13.0316 14.4164 13.0476 14.4803 13.0636 14.5443C13.0956 14.6083 13.1116 14.6563 13.1276 14.7043C13.2716 14.9763 13.5276 15.3123 13.8796 15.7283C14.2476 16.1443 14.6316 16.5763 15.0476 16.9923C15.4796 17.4243 15.8956 17.8083 16.3276 18.1763C16.7436 18.5283 17.0956 18.7683 17.3676 18.9123C17.4156 18.9283 17.4636 18.9603 17.5116 18.9763C17.5756 19.0083 17.6396 19.0083 17.7195 19.0083C17.8635 19.0083 17.9595 18.9603 18.0555 18.8643L18.6635 18.2563C18.8715 18.0483 19.0635 17.9043 19.2395 17.8083C19.4315 17.6963 19.6075 17.6323 19.8155 17.6323C19.9755 17.6323 20.1355 17.6643 20.3115 17.7443C20.4875 17.8243 20.6795 17.9203 20.8715 18.0643L23.5274 19.9522C23.7354 20.0962 23.8794 20.2722 23.9754 20.4642C24.0554 20.6722 24.1034 20.8642 24.1034 21.0882C24.0074 21.3602 23.9434 21.6642 23.8154 21.9522Z" fill="#19C940"/>
</g>
</svg>
