<svg width="10" height="10" viewBox="0 0 10 10" fill="none" xmlns="http://www.w3.org/2000/svg">
<g id="icon" clip-path="url(#clip0_865_3)">
<path id="Vector" d="M9.37479 5.00004C9.37579 5.12821 9.33682 5.25352 9.26332 5.35853C9.18981 5.46354 9.08541 5.54304 8.96464 5.58598L6.48651 6.48715L5.58573 8.96488C5.54133 9.08449 5.46139 9.18765 5.35665 9.2605C5.25191 9.33334 5.12738 9.37239 4.99979 9.37239C4.87221 9.37239 4.74768 9.33334 4.64294 9.2605C4.53819 9.18765 4.45825 9.08449 4.41386 8.96488L3.51268 6.48441L1.03495 5.58598C0.91534 5.54158 0.812182 5.46164 0.739335 5.35689C0.666488 5.25215 0.627441 5.12762 0.627441 5.00004C0.627441 4.87245 0.666488 4.74792 0.739335 4.64318C0.812182 4.53844 0.91534 4.4585 1.03495 4.4141L3.51542 3.51293L4.41386 1.03519C4.45825 0.915584 4.53819 0.812426 4.64294 0.739579C4.74768 0.666732 4.87221 0.627686 4.99979 0.627686C5.12738 0.627686 5.25191 0.666732 5.35665 0.739579C5.46139 0.812426 5.54133 0.915584 5.58573 1.03519L6.4869 3.51566L8.96464 4.4141C9.08541 4.45704 9.18981 4.53654 9.26332 4.64155C9.33682 4.74656 9.37579 4.87186 9.37479 5.00004Z" fill="black"/>
</g>
<defs>
<clipPath id="clip0_865_3">
<rect width="10" height="10" fill="white"/>
</clipPath>
</defs>
</svg>
