<svg width="27" height="24" viewBox="0 0 27 24" fill="none" xmlns="http://www.w3.org/2000/svg">
<g id="86">
<path id="Vector" d="M9.15031 3.71012L11.4407 2.87012C12.3369 2.54012 13.3659 2.93012 13.731 3.75012L14.4281 5.29012C14.7932 6.10012 14.3617 7.03012 13.4544 7.37012L10.9206 8.30012C11.1862 9.45012 11.5956 10.8001 12.2373 12.2601C12.9565 13.9101 13.7864 15.2701 14.5387 16.3601L17.0725 15.4301C17.9798 15.1001 19.0088 15.4901 19.3739 16.3101L20.071 17.8501C20.4361 18.6701 20.0046 19.6001 19.0973 19.9301L16.807 20.7701L16.7627 20.7901C14.2953 21.6901 11.4517 20.8201 10.1682 18.7201C9.30521 17.3101 8.45324 15.7301 7.66766 13.9601C6.95953 12.3601 6.4063 10.8301 5.98585 9.41012C5.28878 7.08012 6.63866 4.65012 9.10605 3.74012L9.15031 3.71012Z" stroke="#636363" stroke-width="1.2" stroke-miterlimit="10" stroke-linecap="round" stroke-linejoin="round"/>
</g>
</svg>
